<svg width="991" height="5096" viewBox="0 0 991 5096" fill="none" xmlns="http://www.w3.org/2000/svg">
<path d="M156.5 174H308.874C339.466 174 362.885 146.774 358.313 116.527L356.998 107.832C355.344 96.8885 362.893 86.682 373.841 85.0592L607 50.5L933.467 0.756697C952.918 -2.20695 964.509 21.7461 950.115 35.1598L691.521 276.151C690.003 277.566 687.77 277.896 685.908 276.982L447.267 159.823C432.784 152.713 416.277 164.795 418.675 180.749L424.5 219.5L460.989 458.751C462.653 469.661 472.841 477.162 483.753 475.51L972.691 401.499C983.626 399.843 991.141 389.627 989.467 378.695L974.5 281L960.54 189.484C958.308 174.851 944.647 164.789 930.01 166.999V166.999C915.366 169.209 905.281 182.867 907.479 197.513L946.599 458.183C950.69 485.441 931.95 510.868 904.703 515.03L295.951 608.016C271.535 611.745 253.5 632.744 253.5 657.443V3095.36C253.5 3122.97 231.115 3145.36 203.5 3145.36H51C23.3858 3145.36 1.00001 3167.74 1.00003 3195.36L1.00049 4120.68V5096" stroke="#C4C4C4"/>
</svg>
