<svg width="319" height="220" viewBox="0 0 319 220" fill="none" xmlns="http://www.w3.org/2000/svg">
<g clip-path="url(#clip0)">
<path opacity="0.1" d="M98.4986 11.0871C109.321 1.35825 126.312 -0.622785 141.776 0.151444C190.349 2.58434 234.195 26.2135 272.122 52.9423C285.852 62.6188 299.37 73.0558 308.29 86.372C326.435 113.498 321.051 151.077 295.825 173.422C287.241 181.026 276.835 186.854 266.153 192.023C247.161 201.209 226.672 208.582 205.112 210.681C189.739 212.177 174.189 210.957 158.894 208.874C116.196 203.038 74.2853 190.138 39.1553 168.057C23.7411 158.375 9.21859 146.338 2.86847 130.666C-3.48166 114.994 0.582421 95.153 16.3142 85.8815C22.8217 82.0462 30.5992 80.3159 38.2166 78.6875C49.4287 76.296 60.8175 73.9347 70.9363 69.0689C81.3864 64.0433 93.7581 54.3227 91.6902 43.197C89.4704 31.2694 87.6896 20.7856 98.4986 11.0871Z" fill="#6C63FF"/>
<path d="M70.873 123.383C70.873 123.383 73.7361 121.336 76.6986 122.601C76.6986 122.601 75.8703 124.359 72.179 124.337L70.873 123.383Z" fill="#6C63FF"/>
<path d="M70.5166 123.502C70.5166 123.502 69.7518 126.932 72.082 129.159C72.082 129.159 73.3741 127.706 71.9053 124.329L70.5166 123.502Z" fill="#6C63FF"/>
<path d="M66.7324 120.38C66.7324 120.38 66.8373 117.484 73.4084 118.193C73.4084 118.193 73.5105 120.055 71.2521 121.025C68.9936 121.995 67.9113 121.298 66.7324 120.38Z" fill="#6C63FF"/>
<path d="M66.3261 120.375C66.3261 120.375 63.5956 121.367 66.2958 127.39C66.2958 127.39 68.1014 126.913 68.3306 124.469C68.5597 122.025 67.5603 121.218 66.3261 120.375Z" fill="#6C63FF"/>
<path d="M62.4681 116.421C62.4681 116.421 61.9159 111.682 68.6084 111.913C68.6084 111.913 69.2462 116.198 63.6912 117.518L62.4681 116.421Z" fill="#6C63FF"/>
<path d="M57.8506 111.225C57.8506 111.225 58.5601 105.805 65.3051 107.152C65.3051 107.152 65.5094 111.809 58.9991 112.467L57.8506 111.225Z" fill="#6C63FF"/>
<path d="M54.4121 105.8C54.4121 105.8 55.7429 100.485 62.4188 101.813C62.4188 101.813 61.0383 106.593 54.8897 106.753L54.4121 105.8Z" fill="#6C63FF"/>
<path d="M51.1406 100.501C51.1406 100.501 52.43 94.9906 58.8712 96.3903C58.8712 96.3903 56.9386 101.645 51.5907 101.413L51.1406 100.501Z" fill="#6C63FF"/>
<path d="M48.9678 95.4313C48.9678 95.4313 49.8651 88.7277 55.8701 89.9731C55.8701 89.9731 54.3737 96.0981 49.4371 96.3819L48.9678 95.4313Z" fill="#6C63FF"/>
<path d="M46.8779 89.2842C46.8779 89.2842 48.0016 82.5201 54.0977 84.2421C54.0977 84.2421 51.9774 90.6756 47.3335 90.1962L46.8779 89.2842Z" fill="#6C63FF"/>
<path d="M45.5078 83.5505C45.5078 83.5505 47.4405 76.756 52.1119 76.7588C52.1119 76.7588 50.1379 83.9225 45.9496 84.8813L45.5078 83.5505Z" fill="#6C63FF"/>
<path d="M44.5645 77.9244C44.5645 77.9244 46.6434 69.7523 50.459 70.2317C50.459 70.2317 49.0427 76.4696 44.7467 79.1781L44.5645 77.9244Z" fill="#6C63FF"/>
<path d="M43.8926 71.1961C43.8926 71.1961 45.8722 64.3796 49.6049 63.9663C49.6049 63.9663 48.3349 70.6478 44.0417 72.943L43.8926 71.1961Z" fill="#6C63FF"/>
<path d="M43.1963 64.9361C43.1963 64.9361 45.7308 58.0893 48.1991 57.8413C48.1991 57.8413 47.241 64.5228 43.4862 66.0327L43.1963 64.9361Z" fill="#6C63FF"/>
<path d="M42.665 59.1004C42.665 59.1004 44.1007 51.7135 46.5469 51.0137C46.5469 51.0137 46.4392 57.0119 42.9328 59.6377L42.665 59.1004Z" fill="#6C63FF"/>
<path d="M41.4414 51.4846C41.4414 51.4846 43.0234 45.5828 44.9892 44.6157C44.9892 44.6157 44.8567 51.5039 41.9522 52.8815L41.4414 51.4846Z" fill="#6C63FF"/>
<path d="M40.4751 46.487L39.7158 36.2153C39.7158 36.2153 43.7468 43.8364 40.8202 48.2917L40.4751 46.487Z" fill="#6C63FF"/>
<path d="M37.1895 36.3747C37.1895 36.3747 34.2105 28.9658 33.5479 28.5718C33.5479 28.5718 39.0145 33.2557 38.7384 39.5322L37.1895 36.3747Z" fill="#6C63FF"/>
<path d="M62.2866 116.394C62.2866 116.394 57.524 115.956 57.9243 122.629C57.9243 122.629 62.2313 123.161 63.4158 117.584L62.2866 116.394Z" fill="#6C63FF"/>
<path d="M57.6213 111.054C57.6213 111.054 52.1492 111.244 52.856 118.063C52.856 118.063 57.4805 118.708 58.7533 112.302L57.6213 111.054Z" fill="#6C63FF"/>
<path d="M54.3768 106.246C54.3768 106.246 49.3188 104.11 46.3701 110.233C46.3701 110.233 51.0333 111.993 54.8517 107.202L54.3768 106.246Z" fill="#6C63FF"/>
<path d="M51.0301 100.556C51.0301 100.556 45.8506 98.2749 43.0869 104.254C43.0869 104.254 48.4569 105.871 51.4856 101.466L51.0301 100.556Z" fill="#6C63FF"/>
<path d="M49.0364 95.572C49.0364 95.572 43.9618 91.0919 40.2373 95.9632C40.2373 95.9632 45.3864 99.6112 49.3014 96.6025L49.0364 95.572Z" fill="#6C63FF"/>
<path d="M47.148 89.1137C47.148 89.1137 42.0403 84.5289 38.3545 89.6647C38.3545 89.6647 44.0337 93.3706 47.3634 90.1028L47.148 89.1137Z" fill="#6C63FF"/>
<path d="M46.0046 83.3332C46.0046 83.3332 41.9819 77.5196 37.5645 79.0184C37.5645 79.0184 41.7445 85.1792 46.0156 84.7356L46.0046 83.3332Z" fill="#6C63FF"/>
<path d="M44.6772 77.8829C44.6772 77.8829 40.5606 70.5209 36.999 71.9619C36.999 71.9619 39.9753 77.6267 44.8207 79.1393L44.6772 77.8829Z" fill="#6C63FF"/>
<path d="M44.1388 70.802C44.1388 70.802 39.9808 65.0435 36.3281 65.9059C36.3281 65.9059 39.771 71.7746 44.586 72.4992L44.1388 70.802Z" fill="#6C63FF"/>
<path d="M43.6087 64.7874C43.6087 64.7874 40.3094 58.2739 37.8301 58.3097C37.8301 58.3097 39.5446 64.8397 43.4458 65.9088L43.6087 64.7874Z" fill="#6C63FF"/>
<path d="M42.7808 58.9514C42.7808 58.9514 39.1364 52.3664 36.5908 52.449C36.5908 52.449 38.5456 58.1249 42.6897 59.5466L42.7808 58.9514Z" fill="#6C63FF"/>
<path d="M41.9993 51.8652C41.9993 51.8652 39.2522 46.4043 37.1318 45.856C37.1318 45.856 38.6586 52.5788 41.7757 53.3503L41.9993 51.8652Z" fill="#6C63FF"/>
<path d="M40.1662 46.305L34.1777 37.918C34.1777 37.918 35.953 46.3546 41.0552 47.9141L40.1662 46.305Z" fill="#6C63FF"/>
<path d="M35.9227 37.1164C35.9227 37.1164 29.1833 32.8374 28.9072 32.1128C28.9072 32.1128 32.4964 38.3342 38.7527 39.2159L35.9227 37.1164Z" fill="#6C63FF"/>
<path d="M35.4495 35.0939C35.4495 35.0939 27.6195 28.1368 25.6924 28.2195C25.6924 28.2195 31.9321 28.2636 35.6317 34.7026L35.4495 35.0939Z" fill="#6C63FF"/>
<path d="M41.9665 52.9673L41.6904 53.0141C39.8461 41.9793 37.5241 35.5072 35.1553 34.7853L35.2353 34.5098C37.7423 35.2702 40.078 41.6487 41.9665 52.9673Z" fill="#444053"/>
<path d="M45.0719 79.3843L44.6578 79.4339C44.5307 78.4035 44.4203 77.3454 44.3347 76.2929C43.5865 67.1317 42.6478 58.7281 41.5986 52.4406L41.8278 52.1348C42.8797 58.4333 44.0006 67.0848 44.7516 76.2599C44.8372 77.3069 44.9449 78.3566 45.0719 79.3843Z" fill="#444053"/>
<path d="M78.8317 128.365C78.7572 128.335 71.3137 125.353 63.4175 117.865C58.7933 113.481 54.8944 108.395 51.8658 102.793C48.0806 95.7922 45.604 87.1021 44.5576 78.6104L44.9994 78.7977C47.3461 97.8586 56.5732 110.599 63.7737 117.446C71.5926 124.869 78.9587 127.819 79.0278 127.847L78.8317 128.365Z" fill="#444053"/>
<g opacity="0.7">
<path opacity="0.7" d="M82.4238 105.927C82.4238 105.927 85.7673 104.825 88.2218 106.91C88.2218 106.91 86.9048 108.343 83.3874 107.224L82.4238 105.927Z" fill="#6C63FF"/>
<path opacity="0.7" d="M82.0486 105.932C82.0486 105.932 80.2981 108.982 81.8581 111.795C81.8581 111.795 83.5146 110.795 83.1309 107.133L82.0486 105.932Z" fill="#6C63FF"/>
<path opacity="0.7" d="M79.3613 101.829C79.3613 101.829 80.3277 99.096 86.3879 101.722C86.3879 101.722 85.9323 103.532 83.4834 103.786C81.0344 104.039 80.2172 103.05 79.3613 101.829Z" fill="#6C63FF"/>
<path opacity="0.7" d="M78.9778 101.706C78.9778 101.706 76.0788 101.843 76.8574 108.393C76.8574 108.393 78.7266 108.475 79.6736 106.208C80.6206 103.94 79.9055 102.874 78.9778 101.706Z" fill="#6C63FF"/>
<path opacity="0.7" d="M76.4775 96.7761C76.4775 96.7761 77.3583 92.0921 83.6808 94.2963C83.6808 94.2963 83.0154 98.5753 77.3169 98.1868L76.4775 96.7761Z" fill="#6C63FF"/>
<path opacity="0.7" d="M73.6162 90.4392C73.6162 90.4392 75.9078 85.4797 81.9376 88.764C81.9376 88.764 80.7449 93.2688 74.3313 91.9656L73.6162 90.4392Z" fill="#6C63FF"/>
<path opacity="0.7" d="M71.9482 84.2535C71.9482 84.2535 74.8058 79.5696 80.7832 82.8235C80.7832 82.8235 78.0223 86.973 72.1222 85.3033L71.9482 84.2535Z" fill="#6C63FF"/>
<path opacity="0.7" d="M70.4053 78.2225C70.4053 78.2225 73.2766 73.3512 79.0166 76.5942C79.0166 76.5942 75.6069 81.0357 70.5709 79.2282L70.4053 78.2225Z" fill="#6C63FF"/>
<path opacity="0.7" d="M69.8428 72.7369C69.8428 72.7369 72.6976 66.6037 78.0648 69.5793C78.0648 69.5793 74.8097 74.9797 70.014 73.7866L69.8428 72.7369Z" fill="#6C63FF"/>
<path opacity="0.7" d="M69.6826 66.2479C69.6826 66.2479 72.7721 60.1229 78.0758 63.5781C78.0758 63.5781 74.136 69.0886 69.8455 67.2536L69.6826 66.2479Z" fill="#6C63FF"/>
<path opacity="0.7" d="M70.0879 60.3599C70.0879 60.3599 73.9532 54.4471 78.4148 55.8357C78.4148 55.8357 74.3922 62.0985 70.11 61.7623L70.0879 60.3599Z" fill="#6C63FF"/>
<path opacity="0.7" d="M70.8726 54.714C70.8726 54.714 75.2901 47.531 78.7937 49.1208C78.7937 49.1208 75.58 54.6562 70.6738 55.9649L70.8726 54.714Z" fill="#6C63FF"/>
<path opacity="0.7" d="M72.2222 48.0933C72.2222 48.0933 76.1482 42.1722 79.8313 42.8859C79.8313 42.8859 76.6286 48.8896 71.8467 49.8043L72.2222 48.0933Z" fill="#6C63FF"/>
<path opacity="0.7" d="M73.4284 41.9077C73.4284 41.9077 77.8873 36.1216 80.3169 36.6231C80.3169 36.6231 77.4097 42.7177 73.376 43.0401L73.4284 41.9077Z" fill="#6C63FF"/>
<path opacity="0.7" d="M74.6582 36.1801C74.6582 36.1801 78.2308 29.5675 80.7764 29.6115C80.7764 29.6115 78.8824 35.3067 74.7548 36.7752L74.6582 36.1801Z" fill="#6C63FF"/>
<path opacity="0.7" d="M75.7598 28.5452C75.7598 28.5452 79.0315 23.3818 81.196 23.0347C81.196 23.0347 79.0149 29.5757 75.8343 30.0358L75.7598 28.5452Z" fill="#6C63FF"/>
<path opacity="0.7" d="M76.327 23.4863L78.6655 13.4517C78.6655 13.4517 80.242 21.9241 76.1172 25.2993L76.327 23.4863Z" fill="#6C63FF"/>
<path opacity="0.7" d="M76.2118 12.8592C76.2118 12.8592 75.5741 4.90199 75.0605 4.31787C75.0605 4.31787 78.8872 10.4015 76.7502 16.3253L76.2118 12.8592Z" fill="#6C63FF"/>
<path opacity="0.7" d="M76.3087 96.7021C76.3087 96.7021 71.8912 94.8726 70.2871 101.364C70.2871 101.364 74.238 103.149 77.032 98.1761L76.3087 96.7021Z" fill="#6C63FF"/>
<path opacity="0.7" d="M73.4457 90.2187C73.4457 90.2187 68.164 88.7777 66.8057 95.4978C66.8057 95.4978 71.0299 97.4871 74.1553 91.7479L73.4457 90.2187Z" fill="#6C63FF"/>
<path opacity="0.7" d="M71.7842 84.6671C71.7842 84.6671 67.5931 81.1266 62.9492 86.0971C62.9492 86.0971 66.8753 89.1637 71.9526 85.7169L71.7842 84.6671Z" fill="#6C63FF"/>
<path opacity="0.7" d="M70.2865 78.2418C70.2865 78.2418 66.0181 74.5277 61.6006 79.4128C61.6006 79.4128 66.2445 82.5538 70.4493 79.2475L70.2865 78.2418Z" fill="#6C63FF"/>
<path opacity="0.7" d="M69.8698 72.8938C69.8698 72.8938 66.3579 67.1077 61.3496 70.651C61.3496 70.651 65.179 75.6656 69.8146 73.9573L69.8698 72.8938Z" fill="#6C63FF"/>
<path opacity="0.7" d="M69.9905 66.1652C69.9905 66.1652 66.4786 60.2717 61.4316 64.085C61.4316 64.085 65.7497 69.32 69.8994 67.1792L69.9905 66.1652Z" fill="#6C63FF"/>
<path opacity="0.7" d="M70.6204 60.3049C70.6204 60.3049 68.5138 53.5628 63.8506 53.6923C63.8506 53.6923 66.0041 60.8174 70.2145 61.6605L70.6204 60.3049Z" fill="#6C63FF"/>
<path opacity="0.7" d="M70.9763 54.709C70.9763 54.709 69.2425 46.457 65.4131 46.7766C65.4131 46.7766 66.5671 53.0697 70.7417 55.9544L70.9763 54.709Z" fill="#6C63FF"/>
<path opacity="0.7" d="M72.5786 47.7905C72.5786 47.7905 70.3257 41.0567 66.5791 40.7949C66.5791 40.7949 68.1169 47.4213 72.4985 49.5429L72.5786 47.7905Z" fill="#6C63FF"/>
<path opacity="0.7" d="M73.8649 41.8886C73.8649 41.8886 72.6556 34.6918 70.2757 33.9893C70.2757 33.9893 69.9692 40.7314 73.3734 42.9136L73.8649 41.8886Z" fill="#6C63FF"/>
<path opacity="0.7" d="M74.811 36.0722C74.811 36.0722 73.2953 28.7019 70.8408 28.0269C70.8408 28.0269 71.0148 34.0251 74.5487 36.6123L74.811 36.0722Z" fill="#6C63FF"/>
<path opacity="0.7" d="M76.1753 29.0848C76.1753 29.0848 75.1813 23.0563 73.3205 21.9019C73.3205 21.9019 72.7683 28.7735 75.5292 30.4432L76.1753 29.0848Z" fill="#6C63FF"/>
<path opacity="0.7" d="M76.0885 23.2105L72.8692 13.4238C72.8692 13.4238 72.0409 22.0037 76.4584 25.0097L76.0885 23.2105Z" fill="#6C63FF"/>
<path opacity="0.7" d="M74.7763 13.1897C74.7763 13.1897 69.6051 7.09782 69.5664 6.3291C69.5664 6.3291 71.1484 13.3357 76.847 16.0331L74.7763 13.1897Z" fill="#6C63FF"/>
<path opacity="0.7" d="M74.9279 11.1206C74.9279 11.1206 69.5248 2.1522 67.6611 1.65625C67.6611 1.65625 73.6026 3.55463 75.204 10.7927L74.9279 11.1206Z" fill="#6C63FF"/>
<path opacity="0.7" d="M75.8225 30.099L75.5464 30.0604C77.0732 18.9815 76.7888 12.1098 74.7402 10.7184L74.8976 10.4897C77.0704 11.9693 77.3879 18.75 75.8225 30.099Z" fill="#444053"/>
<path opacity="0.7" d="M70.9075 56.274L70.4961 56.1996C70.6838 55.1774 70.8937 54.1359 71.1256 53.1027C73.1438 44.1343 74.7534 35.8354 75.6231 29.5204L75.9351 29.2944C75.0627 35.6315 73.5524 44.2142 71.5342 53.1964C71.3023 54.2075 71.0925 55.2435 70.9075 56.274Z" fill="#444053"/>
<path opacity="0.7" d="M88.5418 113.046C88.4811 112.997 82.2635 107.941 76.9459 98.4435C73.8383 92.886 71.6334 86.8719 70.4136 80.6252C68.8868 72.8168 69.1104 63.785 70.6455 55.3677L71.0099 55.6763C67.5726 74.5719 72.5837 89.4779 77.4263 98.1542C82.6721 107.561 88.8234 112.564 88.8869 112.614L88.5418 113.046Z" fill="#444053"/>
</g>
<path d="M280.055 207.777C280.055 207.777 268.382 207.075 269.76 215.239C269.76 215.239 269.483 216.68 270.795 217.335C270.795 217.335 270.817 216.729 271.993 216.936C272.412 217.006 272.837 217.027 273.26 216.996C273.833 216.956 274.378 216.732 274.812 216.357C274.812 216.357 278.092 215.004 279.368 209.654C279.368 209.654 280.312 208.485 280.276 208.185L278.305 209.012C278.305 209.012 278.978 210.431 278.448 211.607C278.448 211.607 278.385 209.064 278.006 209.127C277.929 209.141 276.982 209.621 276.982 209.621C276.982 209.621 278.142 212.1 277.258 213.886C277.258 213.886 277.59 210.841 276.612 209.797L275.232 210.607C275.232 210.607 276.585 213.158 275.668 215.239C275.668 215.239 275.903 212.045 274.939 210.803L273.683 211.781C273.683 211.781 274.956 214.296 274.18 216.021C274.18 216.021 274.078 212.304 273.412 212.023C273.412 212.023 272.308 212.99 272.145 213.401C272.145 213.401 273.015 215.225 272.476 216.189C272.476 216.189 272.145 213.709 271.872 213.709C271.872 213.709 270.767 215.349 270.662 216.465C270.662 216.465 270.709 214.792 271.607 213.544C270.975 213.663 270.392 213.963 269.931 214.409C269.931 214.409 270.102 213.249 271.863 213.147C271.863 213.147 272.769 211.905 273.012 211.828C273.012 211.828 271.242 211.682 270.171 212.155C270.171 212.155 271.115 211.053 273.335 211.558L274.575 210.546C274.575 210.546 272.247 210.23 271.261 210.579C271.261 210.579 272.396 209.612 274.909 210.318L276.259 209.513C276.259 209.513 274.276 209.086 273.095 209.238C273.095 209.238 274.343 208.565 276.656 209.293L277.623 208.86C277.623 208.86 276.168 208.585 275.742 208.53C275.317 208.474 275.295 208.367 275.295 208.367C276.215 208.214 277.159 208.319 278.023 208.67C278.023 208.67 280.091 207.907 280.055 207.777Z" fill="#6C63FF"/>
<path opacity="0.1" d="M272.015 219.44C276.577 219.44 280.275 218.816 280.275 218.046C280.275 217.276 276.577 216.652 272.015 216.652C267.452 216.652 263.754 217.276 263.754 218.046C263.754 218.816 267.452 219.44 272.015 219.44Z" fill="#6C63FF"/>
<path d="M302.445 186.267C302.445 186.267 295.866 185.873 296.647 190.474C296.607 190.708 296.642 190.948 296.747 191.16C296.851 191.372 297.02 191.546 297.23 191.656C297.23 191.656 297.244 191.315 297.906 191.431C298.142 191.472 298.383 191.484 298.622 191.466C298.944 191.445 299.251 191.318 299.494 191.105C299.494 191.105 301.344 190.342 302.064 187.325C302.064 187.325 302.597 186.667 302.575 186.499L301.471 186.973C301.471 186.973 301.849 187.772 301.551 188.436C301.551 188.436 301.515 187 301.302 187.036C301.258 187.036 300.725 187.311 300.725 187.311C300.725 187.311 301.377 188.706 300.886 189.717C300.886 189.717 301.073 188 300.521 187.413L299.74 187.868C299.74 187.868 300.502 189.306 299.985 190.48C299.985 190.48 300.118 188.681 299.574 187.978L298.867 188.529C298.867 188.529 299.582 189.948 299.143 190.921C299.143 190.921 299.085 188.827 298.71 188.667C298.442 188.894 298.202 189.152 297.995 189.436C297.995 189.436 298.486 190.466 298.183 191.009C298.183 191.009 297.995 189.612 297.843 189.607C297.843 189.607 297.225 190.532 297.161 191.166C297.191 190.578 297.374 190.008 297.694 189.513C297.337 189.58 297.008 189.749 296.747 190.001C296.747 190.001 296.843 189.348 297.851 189.29C297.851 189.29 298.362 188.587 298.497 188.546C298.497 188.546 297.501 188.463 296.896 188.73C296.896 188.73 297.429 188.113 298.68 188.392L299.381 187.824C299.381 187.824 298.067 187.645 297.512 187.843C297.512 187.843 298.152 187.292 299.569 187.694L300.331 187.24C299.744 187.112 299.144 187.06 298.544 187.086C298.544 187.086 299.248 186.708 300.551 187.119L301.104 186.873C301.104 186.873 300.275 186.714 300.043 186.689C299.812 186.664 299.789 186.595 299.789 186.595C300.309 186.509 300.842 186.568 301.33 186.766C301.33 186.766 302.465 186.342 302.445 186.267Z" fill="#6C63FF"/>
<path opacity="0.1" d="M297.915 192.844C300.487 192.844 302.572 192.492 302.572 192.059C302.572 191.625 300.487 191.273 297.915 191.273C295.342 191.273 293.257 191.625 293.257 192.059C293.257 192.492 295.342 192.844 297.915 192.844Z" fill="#6C63FF"/>
<path d="M263.602 190.262C263.602 190.262 255.656 189.782 256.595 195.34C256.546 195.621 256.588 195.911 256.714 196.168C256.841 196.424 257.045 196.634 257.299 196.767C257.299 196.767 257.299 196.356 258.113 196.492C258.399 196.539 258.689 196.554 258.977 196.536C259.367 196.507 259.736 196.355 260.032 196.1C260.032 196.1 262.266 195.18 263.135 191.535C263.135 191.535 263.779 190.741 263.751 190.537L262.412 191.108C262.412 191.108 262.87 192.075 262.509 192.877C262.509 192.877 262.467 191.144 262.208 191.185C262.155 191.185 261.512 191.518 261.512 191.518C261.512 191.518 262.299 193.202 261.705 194.422C261.705 194.422 261.931 192.35 261.266 191.639L260.322 192.191C260.322 192.191 261.241 193.926 260.617 195.345C260.617 195.345 260.777 193.171 260.123 192.315L259.267 192.979C259.267 192.979 260.134 194.69 259.607 195.866C259.607 195.866 259.538 193.337 259.082 193.144C259.082 193.144 258.334 193.802 258.221 194.072C258.221 194.072 258.812 195.315 258.444 195.971C258.444 195.971 258.221 194.287 258.036 194.279C258.036 194.279 257.29 195.395 257.208 196.161C257.245 195.453 257.467 194.767 257.851 194.172C257.421 194.253 257.025 194.458 256.711 194.761C256.711 194.761 256.827 193.97 258.036 193.902C258.036 193.902 258.652 193.056 258.817 193.003C258.817 193.003 257.613 192.904 256.885 193.227C256.885 193.227 257.525 192.48 259.035 192.819L259.88 192.133C259.88 192.133 258.298 191.915 257.624 192.155C257.624 192.155 258.398 191.496 260.109 191.976L261.029 191.425C261.029 191.425 259.679 191.133 258.872 191.237C258.872 191.237 259.723 190.783 261.296 191.276L261.956 191.006C261.956 191.006 260.968 190.813 260.678 190.783C260.388 190.752 260.374 190.672 260.374 190.672C261.001 190.568 261.644 190.64 262.232 190.879C262.232 190.879 263.627 190.35 263.602 190.262Z" fill="#6C63FF"/>
<path opacity="0.1" d="M258.13 198.2C261.236 198.2 263.754 197.775 263.754 197.252C263.754 196.729 261.236 196.304 258.13 196.304C255.024 196.304 252.506 196.729 252.506 197.252C252.506 197.775 255.024 198.2 258.13 198.2Z" fill="#6C63FF"/>
<path opacity="0.1" d="M197.15 193.144L169.455 203.837L128.974 219.451C127.448 216.622 125.195 212.75 122.406 208.155C112.82 192.298 96.956 167.636 82.8367 145.963C66.9227 121.543 53.2285 100.922 53.2285 100.922L63.143 98.0543L144.126 74.6152L197.15 193.144Z" fill="black"/>
<path d="M197.702 191.215L170.007 201.908L129.526 217.523C127.999 214.693 125.747 210.822 122.958 206.226C113.372 190.369 97.5078 165.707 83.3884 144.034C67.4745 119.614 53.7803 98.9938 53.7803 98.9938L63.6948 96.1256L144.678 72.6865L197.702 191.215Z" fill="white"/>
<path opacity="0.1" d="M197.702 191.215L170.008 201.909C154.539 205.124 138.755 206.572 122.959 206.226C113.373 190.369 97.5084 165.707 83.389 144.034L63.6953 96.1256L144.679 72.6865L197.702 191.215Z" fill="black"/>
<path d="M218.307 184.564C218.307 184.564 175.281 209.962 111.045 204.231L59.8301 79.6409L84.3719 75.4336L169.21 60.894L217.346 182.156L218.307 184.564Z" fill="#6C63FF"/>
<path opacity="0.1" d="M217.345 182.156C207.213 182.652 195.495 182.605 183.701 181.203C170.94 179.709 158.118 176.618 147.102 170.959C137.902 166.228 130.036 161.089 123.176 154.92C105.337 138.907 94.2963 115.999 84.3818 75.4336L169.22 60.894L217.345 182.156Z" fill="black"/>
<path d="M248.906 175.191C248.906 175.191 217.177 181.396 184.913 177.574C172.152 176.073 159.317 172.99 148.314 167.33C139.115 162.6 131.249 157.461 124.388 151.292C102.301 131.454 90.647 101.085 78.626 39.7285C78.626 39.7285 131.36 52.4275 183.461 24.6104C183.461 24.6104 201.034 134.069 248.906 175.191Z" fill="white"/>
<path opacity="0.1" d="M184.914 177.574C172.153 176.073 159.317 172.989 148.315 167.33C139.115 162.599 131.25 157.461 124.389 151.292C143.188 149.768 145.891 139.51 145.891 139.51C159.828 161.585 184.914 177.574 184.914 177.574Z" fill="black"/>
<path opacity="0.3" d="M105.895 62.2553C105.895 62.2553 134.222 65.4817 160.735 50.6143L162.551 56.4361C162.551 56.4361 137.187 69.058 105.895 69.058V62.2553Z" fill="#6C63FF"/>
<path opacity="0.3" d="M105.895 90.99C105.895 90.99 134.056 88.7225 165.406 73.6016L166.466 76.0207C166.466 76.0207 154.929 90.5106 105.895 94.2963V90.99Z" fill="black"/>
<path opacity="0.3" d="M109.232 102.198C109.232 102.198 137.394 99.9306 168.744 84.8125L169.804 87.2316C169.804 87.2316 158.269 101.735 109.232 105.524V102.198Z" fill="black"/>
<path opacity="0.3" d="M112.287 114.28C112.287 114.28 140.449 112.013 171.799 96.8945L172.859 99.3137C172.859 99.3137 161.307 113.809 112.287 117.606V114.28Z" fill="black"/>
<path opacity="0.3" d="M115.912 124.634C115.912 124.634 144.074 122.367 175.424 107.249L176.484 109.668C176.484 109.668 164.949 124.166 115.912 127.963V124.634Z" fill="black"/>
<path opacity="0.1" d="M119.253 135.854C119.253 135.854 147.414 133.586 178.765 118.468L179.825 120.887C179.825 120.887 168.287 135.386 119.253 139.18V135.854Z" fill="black"/>
<path opacity="0.3" d="M177.939 66.0563L170.059 68.7334L172.741 76.5973L180.621 73.9202L177.939 66.0563Z" fill="#6C63FF"/>
<path opacity="0.3" d="M182.422 77.7555L174.542 80.4326L177.225 88.2965L185.105 85.6194L182.422 77.7555Z" fill="#6C63FF"/>
<path opacity="0.3" d="M189.609 100.266L181.729 102.943L184.411 110.807L192.291 108.13L189.609 100.266Z" fill="#6C63FF"/>
<path opacity="0.3" d="M193.732 112.348L185.852 115.025L188.534 122.889L196.414 120.212L193.732 112.348Z" fill="#6C63FF"/>
<path opacity="0.3" d="M186.077 89.9088L178.197 92.5859L180.88 100.45L188.76 97.7728L186.077 89.9088Z" fill="#6C63FF"/>
<path d="M268.473 123.869L268.177 123.593C268.939 123.439 269.657 123.37 269.657 123.37C269.657 123.37 267.043 113.93 262.633 110.781C260.452 109.224 258.636 106.632 257.352 104.408C255.012 100.388 252.383 96.5412 249.486 92.8994L248.691 91.8993L248.348 91.4639C248.826 90.7421 249.411 90.056 249.345 89.2184C249.344 89.213 249.344 89.2073 249.345 89.2019C249.348 89.1578 249.348 89.1137 249.345 89.0696C249.337 88.9661 249.319 88.8636 249.29 88.7638L249.259 88.8106C248.887 87.7306 247.454 87.2539 246.391 86.6588C243.906 85.2618 242.843 82.209 242.313 79.3711C241.899 77.1669 241.557 74.6871 239.828 73.2682C238.724 72.3562 237.222 72.0558 236.109 71.1494C235.055 70.2897 234.466 68.9865 233.804 67.7879C232.699 65.7904 231.242 63.9306 229.317 62.7375C227.393 61.5445 224.95 61.0844 222.837 61.8834C222.028 62.192 221.294 62.6714 220.493 63.0048C218.506 63.8314 216.228 63.7212 214.259 64.5946C211.835 65.6691 210.259 68.0442 208.817 70.298C208.072 71.4635 206.901 73.169 206.236 74.8855C206.236 74.8249 206.236 74.767 206.236 74.7064C205.917 75.4627 205.743 76.2721 205.722 77.0925C205.709 77.4415 205.748 77.7905 205.836 78.1285C206.134 79.2306 207.023 79.8395 208.078 80.2638C208.139 80.6144 208.22 80.9612 208.321 81.3025C208.798 82.8702 209.647 84.3 210.795 85.4708C211.944 86.6416 213.359 87.5188 214.919 88.0281C215.01 88.0612 215.104 88.0832 215.195 88.1108C215.272 88.3289 215.383 88.5335 215.524 88.7169C216.404 89.819 218.171 89.5049 219.32 88.7032C219.367 88.6729 219.411 88.6343 219.455 88.6012C219.463 88.7572 219.48 88.9127 219.505 89.0669C219.53 89.1991 219.549 89.3424 219.577 89.4609C220.612 95.0293 223.263 98.0352 223.263 98.0352C223.263 98.0352 223.508 98.4045 223.909 99.0161C223.699 102.088 225.104 104.888 226.728 107.05C225.328 107.858 222.31 109.439 220.444 109.307C220.444 109.307 213.586 110.191 212.79 109.748C212.68 109.687 212.575 109.77 212.476 109.957C210.587 108.808 204.549 105.497 204.033 109.748C203.566 113.605 209.069 114.098 211.689 114.118C211.57 115.247 211.504 116.151 211.504 116.151L222.771 115.382L228.638 114.52C227.989 115.377 227.258 116.14 226.543 116.512C226.543 116.512 221.239 120.797 220.322 120.835C220.192 120.835 220.151 120.965 220.17 121.171C217.94 121.171 211.001 121.494 212.926 125.351C214.673 128.847 219.593 126.428 221.819 125.092C222.343 126.109 222.791 126.905 222.791 126.905L231.882 120.444L233.851 118.791C234.518 118.759 235.177 118.631 235.808 118.413C235.808 118.438 235.828 118.463 235.836 118.485C235.906 118.687 235.959 118.896 235.993 119.108C236.545 122.273 234.69 129.657 234.69 129.657C234.69 129.657 230.609 140.042 232.57 141.458C234.53 142.874 233.08 148.851 233.08 148.851C233.423 149.425 233.816 149.967 234.257 150.471C234.464 150.71 234.694 150.929 234.944 151.124C234.853 151.371 234.777 151.624 234.718 151.881C234.418 153.155 234.531 154.49 235.041 155.695C236.388 158.957 235.568 163.685 235.568 163.685L232.923 181.517C231.653 181.324 230.013 181.164 229.403 181.517C228.467 182.043 228.773 184.697 230.946 185.837C230.287 186.341 229.523 186.692 228.71 186.865C226.777 187.306 225.419 187.587 224.524 187.758C224.466 187.758 219.886 186.749 218.71 187.416C217.534 188.083 218.1 191.78 221.446 192.687C224.72 193.571 236.932 194.869 240.449 194.34L240.673 194.301C243.663 193.712 241.037 189.791 240.706 189.314C240.684 189.155 240.665 188.987 240.643 188.805C240.596 188.397 240.554 187.929 240.524 187.427C243.859 187.733 247.15 187.882 248.66 187.656C248.732 187.656 248.798 187.634 248.859 187.62C251.507 187.096 249.188 183.63 248.89 183.212C248.877 183.105 248.863 182.992 248.848 182.873V182.842C248.848 182.762 248.829 182.677 248.821 182.594C248.812 182.512 248.821 182.454 248.798 182.379C248.776 182.305 248.798 182.247 248.779 182.178C248.768 182.042 248.757 181.902 248.746 181.757C248.746 181.699 248.746 181.638 248.746 181.578C248.746 181.467 248.732 181.357 248.727 181.244C248.727 181.184 248.727 181.123 248.727 181.06C248.727 180.894 248.727 180.724 248.71 180.553C248.71 180.506 248.71 180.459 248.71 180.412C248.71 180.274 248.71 180.137 248.71 179.993C248.71 179.927 248.71 179.861 248.71 179.792C248.71 179.646 248.71 179.5 248.71 179.351C248.71 179.302 248.71 179.255 248.71 179.205C248.71 179.021 248.727 178.831 248.738 178.641L248.754 178.437C248.754 178.296 248.776 178.161 248.79 178.018C248.79 177.949 248.79 177.88 248.812 177.811C248.834 177.618 248.859 177.425 248.887 177.23C248.887 177.172 248.906 177.114 248.914 177.056C248.939 176.91 248.964 176.761 248.992 176.613C248.992 176.541 249.019 176.467 249.036 176.392C249.069 176.232 249.105 176.073 249.144 175.913C249.144 175.869 249.163 175.825 249.174 175.781C249.224 175.588 249.279 175.398 249.337 175.207C249.356 175.141 249.378 175.075 249.4 175.009C249.447 174.866 249.497 174.734 249.549 174.585L249.616 174.408C249.69 174.221 249.77 174.036 249.853 173.857C249.875 173.811 249.9 173.764 249.925 173.717C249.994 173.574 250.068 173.441 250.146 173.293L250.24 173.13C250.345 172.954 250.452 172.777 250.571 172.609C253.608 168.289 254.409 159.957 254.334 158.144C254.26 156.331 254.696 152.57 255.24 152.014C255.604 151.642 257.724 148.707 258.992 146.476C259.221 146.068 259.42 145.685 259.577 145.343C260.477 145.032 261.074 144.792 261.074 144.792C260.756 143.635 260.604 142.44 260.621 141.241C260.643 138.896 261.289 135.807 263.956 133.3C267.893 129.597 268.442 125.927 268.495 124.516C268.495 124.417 268.495 124.329 268.495 124.254C268.487 123.995 268.473 123.869 268.473 123.869Z" fill="url(#paint0_linear)"/>
<path d="M257.982 146.977C256.913 148.882 255.714 150.712 254.392 152.452C253.873 153.003 253.456 156.725 253.528 158.513C253.6 160.301 252.841 168.545 249.939 172.816C247.037 177.087 248.528 184.468 248.528 184.468L243.898 186.088H238.335L234.503 184.945L233.492 182.162C233.492 182.162 234.84 181.955 238.186 181.162C239.114 180.973 239.955 180.487 240.58 179.777C241.206 179.067 241.582 178.173 241.651 177.23L244 160.855C244 160.855 244.693 156.722 243.55 153.862C243.228 153.057 243.095 152.19 243.16 151.326C243.225 150.461 243.487 149.623 243.926 148.875L244 148.76C244 148.76 247.625 145.902 251.319 144.114C254.591 142.538 257.91 141.789 258.851 144.585C258.973 144.946 258.575 145.875 257.982 146.977Z" fill="#A5636D"/>
<path opacity="0.05" d="M257.982 146.977C256.913 148.882 255.714 150.712 254.392 152.452C253.873 153.003 253.456 156.725 253.528 158.513C253.6 160.301 252.841 168.545 249.939 172.816C247.896 175.827 248.031 180.379 248.282 182.806C248.39 183.823 248.523 184.46 248.523 184.46L243.893 186.08H238.335L234.503 184.945L233.492 182.162C233.492 182.162 233.829 182.109 234.597 181.961C235.364 181.812 236.529 181.558 238.202 181.162C239.127 180.97 239.965 180.482 240.587 179.773C241.209 179.063 241.583 178.17 241.651 177.23L244 160.855C244 160.855 244.693 156.722 243.55 153.862C243.228 153.057 243.095 152.19 243.16 151.326C243.225 150.461 243.487 149.623 243.926 148.875L244 148.76C244 148.76 247.625 145.902 251.319 144.114C254.591 142.538 257.91 141.789 258.851 144.585C258.973 144.946 258.575 145.875 257.982 146.977Z" fill="black"/>
<path opacity="0.1" d="M248.528 184.471L243.898 186.091H238.335L234.503 184.944L233.492 182.162C233.492 182.162 233.829 182.109 234.597 181.96C234.542 182.466 234.676 182.974 234.971 183.388C235.267 183.803 235.704 184.094 236.201 184.209L238.376 184.283C238.683 184.283 238.992 184.3 239.296 184.3C242.356 184.301 245.395 183.798 248.291 182.809C248.401 183.826 248.528 184.471 248.528 184.471Z" fill="black"/>
<path d="M238.372 184.752L236.194 184.677C236.194 184.677 234.162 184.247 234.659 181.947C234.659 181.947 230.738 181.06 229.736 181.646C228.734 182.233 229.217 185.471 232.05 186.264C234.81 187.038 245.153 188.176 248.126 187.711L248.317 187.678C251.012 187.127 248.317 183.269 248.317 183.269C245.12 184.361 241.75 184.864 238.372 184.752Z" fill="#BEBED0"/>
<path d="M251.789 147.61C251.643 147.903 251.485 148.206 251.306 148.522C249.939 151.002 247.747 154.124 247.363 154.529C246.778 155.152 246.311 159.351 246.386 161.379C246.46 163.406 245.61 172.697 242.335 177.519C240.66 179.999 240.281 183.374 240.309 186.091C240.317 187.011 240.372 187.931 240.472 188.846C240.593 189.967 240.748 190.667 240.748 190.667L235.524 192.494H229.238L224.911 191.21L223.779 188.058C223.779 188.058 224.158 187.997 225.008 187.829C225.858 187.661 227.184 187.38 229.078 186.934C230.123 186.718 231.069 186.168 231.773 185.368C232.477 184.567 232.9 183.56 232.979 182.498L235.626 164.018C235.626 164.018 236.408 159.348 235.121 156.124C234.636 154.928 234.528 153.612 234.812 152.352C234.966 151.645 235.246 150.971 235.64 150.363C235.64 150.363 236.651 149.569 238.175 148.52C238.848 148.057 239.63 147.544 240.469 147.026C244.158 144.748 249.009 142.422 251.333 144.117C251.846 144.503 252.221 145.043 252.405 145.657C252.498 145.977 252.236 146.701 251.789 147.61Z" fill="#A5636D"/>
<path opacity="0.1" d="M240.734 190.67L235.51 192.497H229.238L224.911 191.213L223.779 188.061C223.779 188.061 224.158 188 225.008 187.832C224.954 188.206 224.992 188.587 225.12 188.942C225.248 189.297 225.462 189.615 225.742 189.868C226.178 190.237 226.728 190.444 227.299 190.452L229.279 190.516C229.624 190.516 229.972 190.535 230.317 190.535C233.772 190.534 237.203 189.964 240.472 188.849C240.593 189.97 240.734 190.67 240.734 190.67Z" fill="black"/>
<path d="M229.275 190.984L227.298 190.918C226.727 190.908 226.176 190.702 225.738 190.334C225.236 189.888 224.802 189.116 225.084 187.818C225.084 187.818 220.667 186.818 219.526 187.479C218.386 188.141 218.944 191.797 222.138 192.692C225.266 193.566 236.928 194.85 240.286 194.326L240.498 194.288C243.535 193.665 240.498 189.306 240.498 189.306C236.891 190.543 233.087 191.111 229.275 190.984Z" fill="#BEBED0"/>
<path opacity="0.1" d="M257.981 146.977C256.089 147.635 253.312 148.509 251.788 148.545C251.63 148.551 251.472 148.543 251.316 148.523C250.25 148.377 246.956 148.611 243.936 148.881C242.724 148.988 241.559 149.101 240.595 149.2C239.159 149.349 238.171 149.457 238.171 149.457V148.523C238.845 148.06 239.626 147.547 240.465 147.029C244.154 144.751 249.005 142.425 251.329 144.12C254.601 142.544 257.92 141.794 258.861 144.591C258.972 144.946 258.574 145.875 257.981 146.977Z" fill="black"/>
<path d="M267.055 125.246C267.003 126.643 266.478 130.269 262.718 133.933C257.925 138.604 259.957 145.31 259.957 145.31C259.957 145.31 254.242 147.55 251.776 147.611C251.619 147.617 251.461 147.609 251.304 147.588C249.824 147.382 243.949 147.925 240.573 148.266C239.137 148.415 238.148 148.523 238.148 148.523V128.685L264.634 122.268L267.033 124.651C267.054 124.849 267.061 125.047 267.055 125.246Z" fill="#5C5C8E"/>
<g opacity="0.1">
<path opacity="0.1" d="M238.596 148.277L238.16 148.324V148.534C238.16 148.534 239.149 148.426 240.584 148.277C243.008 148.032 246.711 147.688 249.16 147.586C247.464 147.431 241.865 147.947 238.596 148.277Z" fill="black"/>
<path opacity="0.1" d="M267.046 124.662L264.646 122.276L263.048 122.675L265.058 124.673C265.071 124.872 265.071 125.072 265.058 125.271C265.005 126.665 264.481 130.294 260.72 133.958C255.927 138.626 257.959 145.335 257.959 145.335C257.959 145.335 253.23 147.186 250.521 147.569C250.78 147.568 251.038 147.582 251.295 147.611C251.451 147.632 251.609 147.641 251.767 147.635C254.232 147.575 259.947 145.335 259.947 145.335C259.947 145.335 257.904 138.626 262.708 133.958C266.469 130.294 266.993 126.665 267.046 125.271C267.06 125.068 267.06 124.865 267.046 124.662Z" fill="black"/>
</g>
<path d="M214.129 111.233C214.129 111.233 206.122 105.689 205.534 110.682C204.946 115.674 214.129 114.961 214.129 114.961V111.233Z" fill="#A5636D"/>
<path d="M227.934 107.557C227.934 107.557 223.602 110.417 221.206 110.241C221.206 110.241 214.657 111.117 213.895 110.679C213.133 110.241 212.669 117.016 212.669 117.016L223.437 116.258L230.339 115.206C230.339 115.206 233.79 113.106 233.79 111.296C233.79 109.486 227.934 107.557 227.934 107.557Z" fill="#F7CDDD"/>
<path opacity="0.05" d="M227.934 107.557C227.934 107.557 223.602 110.417 221.206 110.241C221.206 110.241 214.657 111.117 213.895 110.679C213.133 110.241 212.669 117.016 212.669 117.016L223.437 116.258L230.339 115.206C230.339 115.206 233.79 113.106 233.79 111.296C233.79 109.486 227.934 107.557 227.934 107.557Z" fill="black"/>
<path d="M221.58 121.984C221.58 121.984 211.842 121.581 214.024 126.117C216.205 130.652 223.585 125.147 223.585 125.147L221.58 121.984Z" fill="#A5636D"/>
<path d="M231.378 112.343C231.378 112.343 223.484 106.45 224.597 99.2722C225.709 92.0947 231.378 104.766 231.378 104.766V112.343Z" fill="#5C5C8E"/>
<path d="M229.196 79.8034C229.193 82.3854 228.187 84.8656 226.388 86.7219C225.951 87.178 225.468 87.5888 224.947 87.948C223.953 88.6396 222.845 89.1508 221.673 89.4578C221.207 89.5739 220.734 89.6577 220.256 89.7086C219.914 89.7416 219.569 89.7609 219.218 89.7609C218.099 89.7673 216.986 89.5809 215.93 89.2099C214.201 88.6076 212.672 87.5422 211.509 86.1302C210.346 84.7182 209.596 83.0142 209.339 81.2048C209.082 79.3954 209.329 77.5504 210.053 75.8718C210.777 74.1932 211.95 72.7458 213.444 71.6882C214.937 70.6305 216.693 70.0034 218.52 69.8755C220.347 69.7476 222.173 70.1238 223.8 70.963C225.427 71.8022 226.791 73.0719 227.743 74.6332C228.694 76.1944 229.197 77.9869 229.196 79.8144V79.8034Z" fill="#A5636D"/>
<path opacity="0.1" d="M267.055 125.246C266.161 125.411 265.057 125.709 265.057 126.172C265.057 126.952 252.583 131.153 252.583 131.153C252.583 131.153 253.049 132.239 251.804 134.107C250.559 135.975 240.421 146.71 240.421 146.71L240.454 147.029L240.584 148.266L241.202 154.179C241.202 154.179 237.304 152.779 236.056 152.934C235.653 152.986 235.227 152.727 234.811 152.355C234.964 151.648 235.245 150.974 235.639 150.366C235.639 150.366 236.649 149.572 238.173 148.522V128.685L264.659 122.268L267.058 124.651C267.071 124.849 267.07 125.048 267.055 125.246Z" fill="black"/>
<path d="M268.177 124.149C268.177 124.149 265.057 124.458 265.057 125.238C265.057 126.017 252.583 130.219 252.583 130.219C252.583 130.219 253.05 131.305 251.804 133.173C250.559 135.041 240.421 145.778 240.421 145.778L241.203 153.245C241.203 153.245 237.304 151.845 236.056 151.999C235.504 152.068 234.883 151.556 234.372 150.958C233.95 150.459 233.574 149.923 233.248 149.357C233.248 149.357 234.654 143.442 232.782 142.042C230.91 140.642 234.808 130.373 234.808 130.373C234.808 130.373 236.57 123.072 236.051 119.939C236.018 119.73 235.969 119.523 235.902 119.322C235.902 119.3 235.888 119.275 235.879 119.253C234.775 116.261 222.804 91.1495 222.804 91.1495C222.811 90.4372 222.861 89.726 222.953 89.0196C222.978 88.824 223.011 88.6201 223.047 88.4135C223.107 88.0419 223.188 87.674 223.29 87.3114C223.353 87.0789 223.429 86.8499 223.516 86.6253C223.886 85.6775 224.452 84.9474 225.297 84.9308C225.297 84.9308 226.233 83.8976 228.428 83.6166C230.035 83.4072 232.329 83.6166 235.435 84.9308C242.76 88.0388 244.477 88.1986 244.477 88.1986L248.157 93.0203L248.914 94.0094C251.687 97.6187 254.197 101.422 256.426 105.389C257.652 107.593 259.389 110.153 261.47 111.693C265.681 114.814 268.177 124.149 268.177 124.149Z" fill="#F7CDDD"/>
<path opacity="0.1" d="M240.85 106.158C240.85 106.158 251.258 108.726 255.292 115.201L240.85 106.158Z" fill="black"/>
<path opacity="0.1" d="M244.065 117.534C244.065 117.534 246.034 130.724 245.487 131.716C244.941 132.707 244.065 117.534 244.065 117.534Z" fill="black"/>
<path opacity="0.1" d="M243.362 124.304C242.605 125.293 239.532 132.939 239.532 132.939L240.418 145.778L241.2 153.245C241.2 153.245 237.304 151.845 236.056 152C235.504 152.068 234.88 151.556 234.372 150.958C235.181 146.585 236.912 137.435 237.224 137.259C237.635 137.025 239.742 129.674 239.852 127.615C239.963 125.557 242.89 120.97 242.89 120.97C242.89 120.97 244.124 123.314 243.362 124.304Z" fill="black"/>
<path opacity="0.1" d="M240.421 111.701C240.228 112.283 239.93 115.669 239.93 115.669C239.714 118.65 237.445 119.626 236.051 119.94C236.018 119.73 235.969 119.524 235.902 119.322C234.966 116.68 222.804 91.1609 222.804 91.1609C222.817 89.8662 222.98 88.5773 223.29 87.3201C225.937 86.5431 230.128 87.7389 230.128 87.7389C231.34 87.5791 235.294 95.4233 235.294 95.4233C235.294 95.4233 237.928 101.43 238.218 102.248C238.508 103.066 238.218 104.408 238.334 104.877C238.45 105.345 239.681 105.747 239.855 106.392C240.029 107.037 239.916 108.321 240.032 108.549C240.148 108.778 240.617 111.117 240.421 111.701Z" fill="black"/>
<path d="M239.485 111.233C239.292 111.817 238.994 115.2 238.994 115.2C238.817 117.68 237.216 118.782 235.879 119.253C235.277 119.468 234.646 119.593 234.008 119.625L232.127 121.256L223.444 127.635C223.444 127.635 220.209 121.664 221.086 121.631C221.964 121.598 227.028 117.355 227.028 117.355C228.577 116.528 230.128 113.773 230.849 112.357C230.808 112.188 230.776 112.017 230.755 111.844C230.443 109.202 223.894 99.0847 223.894 99.0847C223.894 99.0847 221.363 96.1118 220.377 90.604C220.349 90.4773 220.33 90.3478 220.305 90.2155C220.277 90.0442 220.261 89.8711 220.255 89.6975C220.137 87.5788 221.683 86.8073 223.516 86.6254C224.474 86.5496 225.436 86.5791 226.387 86.7136C227.335 86.8327 228.273 87.0168 229.195 87.2647C229.979 87.16 231.912 90.4139 233.179 92.7201C233.861 93.971 234.353 94.9463 234.353 94.9463C234.353 94.9463 236.987 100.956 237.276 101.771C237.566 102.587 237.276 103.934 237.392 104.4C237.508 104.865 238.74 105.273 238.914 105.918C239.088 106.563 238.974 107.846 239.09 108.075C239.206 108.304 239.681 110.649 239.485 111.233Z" fill="#F7CDDD"/>
<path opacity="0.1" d="M249.557 97.7704C247.901 99.4594 245.226 99.4649 243.078 98.597C240.93 97.7291 239.11 96.1751 237.12 94.9655C235.827 94.1775 234.458 93.5328 233.185 92.72C232.997 92.5988 232.815 92.4775 232.633 92.3508C231.164 91.3148 229.891 89.984 228.37 89.0445C227.353 88.3691 226.168 87.9877 224.947 87.9424C224.384 87.9373 223.828 88.0539 223.315 88.284C223.22 88.3226 223.128 88.3677 223.039 88.419C222.538 88.7056 222.074 89.0527 221.658 89.4523C221.228 89.838 220.816 90.2485 220.363 90.6095C220.336 90.4827 220.317 90.3532 220.292 90.221C220.264 90.0496 220.247 89.8765 220.242 89.703C219.9 89.736 219.555 89.7553 219.204 89.7553C218.084 89.7617 216.972 89.5753 215.916 89.2043C215.916 89.1629 215.916 89.1216 215.891 89.0803C215.518 87.1185 214.844 85.0411 213.262 83.939C212.346 83.2997 210.882 83.038 209.612 82.5613C209.172 81.0325 209.106 79.4206 209.418 77.8608C209.73 76.3009 210.413 74.8384 211.408 73.5958C212.403 72.3531 213.682 71.3664 215.137 70.7184C216.593 70.0703 218.183 69.7797 219.775 69.8709C221.366 69.962 222.912 70.4324 224.284 71.2424C225.656 72.0525 226.813 73.1788 227.659 74.5269C228.505 75.8751 229.015 77.4059 229.147 78.9912C229.278 80.5765 229.027 82.1701 228.414 83.6386C230.021 83.4292 232.316 83.6386 235.422 84.9529C242.746 88.0608 244.464 88.2206 244.464 88.2206L248.144 93.0424C247.746 93.6485 247.296 94.2464 247.255 94.9545C247.186 96.2522 248.453 97.1587 249.557 97.7704Z" fill="black"/>
<path d="M213.273 82.9992C214.855 84.1014 215.528 86.1761 215.904 88.1351C216.02 88.7467 216.13 89.3915 216.506 89.8764C217.334 90.962 219.035 90.6561 220.131 89.8764C221.227 89.0966 222.091 87.9146 223.314 87.3636C224.938 86.6307 226.848 87.1652 228.369 88.1158C229.891 89.0663 231.163 90.3971 232.632 91.4221C234.054 92.4223 235.639 93.1359 237.119 94.0368C239.109 95.2464 240.929 96.8086 243.077 97.6683C245.225 98.5279 247.908 98.5252 249.554 96.8417C248.45 96.23 247.182 95.3263 247.268 94.0148C247.354 92.7033 248.883 91.7252 248.781 90.3806C248.679 89.036 247.094 88.5098 245.956 87.8485C243.582 86.4709 242.569 83.4401 242.061 80.6435C241.666 78.4558 241.34 76.0119 239.703 74.6067C238.646 73.703 237.218 73.4082 236.152 72.5127C235.145 71.6613 234.584 70.3746 233.944 69.1871C232.886 67.2116 231.497 65.3738 229.661 64.1918C227.825 63.0098 225.49 62.5386 223.474 63.3487C222.701 63.6545 221.997 64.1284 221.235 64.4508C219.336 65.2774 217.163 65.1589 215.283 66.0213C212.966 67.0848 211.461 69.4323 210.084 71.6613C208.919 73.5707 206.608 76.9377 207.262 79.4174C207.914 81.9385 211.555 81.8035 213.273 82.9992Z" fill="#4C3E42"/>
<g opacity="0.1">
<path opacity="0.1" d="M248.777 90.2293C248.769 90.127 248.751 90.0256 248.725 89.9263C248.305 90.5848 247.784 91.224 247.734 91.9955C247.723 92.1739 247.738 92.353 247.778 92.5272C248.245 91.7861 248.844 91.089 248.777 90.2293Z" fill="black"/>
<path opacity="0.1" d="M243.543 95.6573C241.395 94.7977 239.579 93.2355 237.588 92.0259C236.105 91.1249 234.52 90.4113 233.099 89.4111C231.63 88.3752 230.357 87.0444 228.836 86.1048C227.314 85.1653 225.407 84.6197 223.78 85.3499C222.557 85.9009 221.696 87.0719 220.597 87.8654C219.498 88.659 217.814 88.9675 216.972 87.8654C216.597 87.3805 216.486 86.7358 216.37 86.1241C215.997 84.1651 215.321 82.0904 213.742 80.9883C212.022 79.7897 208.38 79.9248 207.72 77.4064C207.61 76.9559 207.581 76.4895 207.635 76.0288C207.212 77.153 206.994 78.2826 207.251 79.2662C207.913 81.7956 211.555 81.6606 213.272 82.8481C214.854 83.9502 215.528 86.0277 215.904 87.9867C216.02 88.5983 216.13 89.2431 216.503 89.728C217.331 90.8136 219.032 90.5077 220.131 89.7142C221.229 88.9207 222.088 87.7525 223.314 87.2014C224.937 86.4713 226.848 87.0058 228.369 87.9564C229.89 88.9069 231.163 90.2377 232.632 91.2627C234.054 92.2656 235.639 92.9765 237.119 93.8774C239.109 95.0898 240.929 96.652 243.077 97.5116C245.225 98.3713 247.908 98.3658 249.554 96.6851C249.128 96.4569 248.724 96.1903 248.347 95.8888C246.851 96.4371 245.064 96.2662 243.543 95.6573Z" fill="black"/>
</g>
<path d="M194.677 114.503L216.765 106.271C217.023 106.174 217.298 106.129 217.574 106.138C217.849 106.148 218.121 106.211 218.372 106.326C218.623 106.44 218.849 106.602 219.037 106.804C219.225 107.005 219.371 107.241 219.468 107.499C219.564 107.757 219.609 108.032 219.599 108.307C219.589 108.582 219.525 108.853 219.41 109.103C219.296 109.354 219.133 109.579 218.931 109.767C218.729 109.954 218.492 110.101 218.234 110.197L196.146 118.432L191.414 117.958L194.677 114.503Z" fill="#5C5C8E"/>
<path opacity="0.1" d="M218.798 106.838C218.993 107.36 218.973 107.937 218.741 108.443C218.51 108.95 218.087 109.344 217.564 109.539L195.477 117.771L191.921 117.416L191.41 117.967L196.142 118.441L218.23 110.205C218.488 110.109 218.725 109.963 218.927 109.775C219.129 109.588 219.292 109.362 219.407 109.112C219.521 108.861 219.585 108.591 219.595 108.316C219.605 108.04 219.56 107.766 219.464 107.508C219.302 107.074 219 106.705 218.605 106.461C218.681 106.581 218.746 106.707 218.798 106.838Z" fill="white"/>
<path d="M194.677 114.503L196.149 118.432L192.264 118.044L191.414 117.959L192.576 116.73L194.677 114.503Z" fill="#EFC8C4"/>
<path d="M192.574 116.729C192.665 116.796 192.742 116.88 192.8 116.977C192.837 117.035 192.857 117.101 192.857 117.169C192.857 117.237 192.837 117.303 192.8 117.36C192.737 117.422 192.664 117.473 192.585 117.512C192.496 117.571 192.421 117.649 192.366 117.741C192.311 117.834 192.279 117.937 192.27 118.044L191.42 117.958L192.574 116.729Z" fill="#727A9C"/>
<path d="M175.399 71.9319L171.675 70.1189C171.621 70.0931 171.574 70.057 171.535 70.0128C171.496 69.9686 171.466 69.9172 171.446 69.8614C171.427 69.8056 171.419 69.7466 171.423 69.6877C171.426 69.6289 171.442 69.5713 171.467 69.5183L171.862 68.7082C171.888 68.655 171.924 68.6073 171.968 68.568C172.012 68.5287 172.064 68.4986 172.12 68.4794C172.176 68.4602 172.235 68.4522 172.294 68.456C172.353 68.4599 172.411 68.4753 172.464 68.5016L174.974 69.7222L177.594 64.3604C177.646 64.2534 177.739 64.1713 177.852 64.1321C177.964 64.0929 178.088 64.0997 178.196 64.151L179.008 64.5478C179.061 64.5734 179.109 64.6093 179.148 64.6534C179.187 64.6975 179.218 64.749 179.237 64.8049C179.256 64.8608 179.264 64.9199 179.26 64.9789C179.256 65.0379 179.241 65.0955 179.215 65.1484L176.001 71.7252C175.975 71.7783 175.939 71.8257 175.895 71.8647C175.85 71.9038 175.799 71.9338 175.743 71.953C175.687 71.9722 175.628 71.9802 175.569 71.9766C175.51 71.973 175.452 71.9578 175.399 71.9319Z" fill="#3ACC6C"/>
<path d="M183.535 95.1229L179.81 93.31C179.757 93.2841 179.71 93.2481 179.671 93.2039C179.631 93.1597 179.601 93.1082 179.582 93.0525C179.563 92.9967 179.555 92.9377 179.558 92.8788C179.562 92.8199 179.577 92.7623 179.603 92.7093L179.998 91.8993C180.051 91.792 180.144 91.7101 180.258 91.6713C180.371 91.6326 180.495 91.6403 180.603 91.6926L183.11 92.9132L185.727 87.546C185.779 87.4389 185.872 87.3569 185.985 87.3177C186.097 87.2785 186.221 87.2852 186.329 87.3366L187.138 87.7333C187.191 87.7589 187.239 87.7948 187.278 87.8389C187.318 87.883 187.348 87.9344 187.368 87.9902C187.387 88.046 187.395 88.1051 187.392 88.1641C187.389 88.2231 187.373 88.2808 187.348 88.334L184.134 94.9108C184.08 95.0175 183.987 95.099 183.874 95.1377C183.761 95.1763 183.637 95.1691 183.529 95.1174L183.535 95.1229Z" fill="#3ACC6C"/>
<path d="M179.883 83.6913L176.158 81.8783C176.051 81.826 175.969 81.7336 175.93 81.6211C175.89 81.5086 175.897 81.3852 175.948 81.2777L176.346 80.4676C176.372 80.4144 176.408 80.3667 176.452 80.3274C176.496 80.2881 176.548 80.258 176.604 80.2388C176.66 80.2196 176.719 80.2116 176.778 80.2154C176.837 80.2192 176.895 80.2347 176.948 80.261L179.458 81.4816L182.078 76.1115C182.104 76.0585 182.14 76.0111 182.184 75.9721C182.228 75.933 182.28 75.903 182.336 75.8838C182.392 75.8646 182.451 75.8566 182.51 75.8602C182.569 75.8638 182.627 75.879 182.68 75.9049L183.491 76.2989C183.598 76.3522 183.68 76.4454 183.719 76.5583C183.757 76.6712 183.75 76.7947 183.698 76.9023L180.482 83.4846C180.456 83.5376 180.42 83.585 180.376 83.6241C180.331 83.6632 180.28 83.6932 180.224 83.7124C180.168 83.7316 180.109 83.7396 180.05 83.736C179.991 83.7323 179.933 83.7172 179.88 83.6913H179.883Z" fill="#3ACC6C"/>
<path d="M187.07 105.593L183.345 103.78C183.292 103.754 183.245 103.718 183.206 103.674C183.167 103.629 183.136 103.578 183.117 103.522C183.098 103.466 183.09 103.407 183.094 103.349C183.097 103.29 183.112 103.232 183.138 103.179L183.533 102.369C183.559 102.316 183.595 102.269 183.64 102.23C183.684 102.19 183.735 102.16 183.791 102.141C183.847 102.122 183.906 102.114 183.965 102.118C184.024 102.121 184.082 102.136 184.135 102.162L186.645 103.383L189.265 98.0212C189.318 97.914 189.411 97.8319 189.524 97.7927C189.637 97.7535 189.761 97.7604 189.87 97.8118L190.679 98.2086C190.732 98.2342 190.78 98.2701 190.819 98.3142C190.858 98.3583 190.889 98.4098 190.908 98.4657C190.927 98.5216 190.935 98.5807 190.931 98.6397C190.927 98.6987 190.912 98.7563 190.886 98.8092L187.675 105.386C187.621 105.493 187.528 105.574 187.415 105.613C187.302 105.652 187.178 105.644 187.07 105.593Z" fill="#3ACC6C"/>
<path d="M47.8247 176.778C47.8247 176.778 49.4675 178.921 47.0682 182.156C44.669 185.391 42.6867 188.124 43.479 190.146C43.479 190.146 47.1014 184.137 50.0473 184.054C52.9932 183.972 51.0661 180.393 47.8247 176.778Z" fill="#3ACC6C"/>
<path opacity="0.1" d="M47.8253 176.778C47.9692 176.985 48.0826 177.211 48.1622 177.45C51.0363 180.823 52.5797 183.969 49.8049 184.063C47.229 184.134 44.1395 188.73 43.4023 189.89C43.4246 189.984 43.4532 190.076 43.4879 190.166C43.4879 190.166 47.1103 184.156 50.0562 184.074C53.0021 183.991 51.0667 180.393 47.8253 176.778Z" fill="black"/>
<path d="M50.8782 179.511C50.8782 180.263 50.7927 180.889 50.6877 180.889C50.5828 180.889 50.5 180.277 50.5 179.511C50.5 178.745 50.6049 179.112 50.7098 179.112C50.8147 179.112 50.8782 178.756 50.8782 179.511Z" fill="#FFD037"/>
<path d="M51.9254 180.409C51.2628 180.77 50.683 180.991 50.6333 180.897C50.5836 180.803 51.0806 180.439 51.7377 180.07C52.3948 179.701 52.138 179.971 52.1877 180.07C52.2374 180.169 52.5908 180.048 51.9254 180.409Z" fill="#FFD037"/>
<path d="M39.1496 176.778C39.1496 176.778 37.5096 178.921 39.9088 182.156C42.3081 185.391 44.2876 188.124 43.498 190.146C43.498 190.146 39.8784 184.137 36.9298 184.054C33.9811 183.972 35.9082 180.393 39.1496 176.778Z" fill="#3ACC6C"/>
<path opacity="0.1" d="M39.1503 176.778C39.0082 176.985 38.8958 177.212 38.8163 177.45C35.9394 180.823 34.3988 183.969 37.1735 184.063C39.7467 184.134 42.8362 188.73 43.5761 189.89C43.5529 189.984 43.5234 190.076 43.4877 190.166C43.4877 190.166 39.8682 184.132 36.914 184.049C33.9598 183.966 35.909 180.393 39.1503 176.778Z" fill="black"/>
<path d="M36.0986 179.511C36.0986 180.263 36.1815 180.889 36.2864 180.889C36.3913 180.889 36.4769 180.277 36.4769 179.511C36.4769 178.745 36.372 179.112 36.267 179.112C36.1621 179.112 36.0986 178.756 36.0986 179.511Z" fill="#FFD037"/>
<path d="M35.049 180.409C35.7143 180.77 36.2914 180.991 36.3411 180.897C36.3908 180.803 35.8938 180.439 35.2367 180.07C34.5796 179.701 34.8336 179.971 34.7839 180.07C34.7342 180.169 34.3863 180.048 35.049 180.409Z" fill="#FFD037"/>
<path opacity="0.1" d="M43.4905 206.535C52.9733 206.535 60.6607 205.358 60.6607 203.906C60.6607 202.455 52.9733 201.278 43.4905 201.278C34.0077 201.278 26.3203 202.455 26.3203 203.906C26.3203 205.358 34.0077 206.535 43.4905 206.535Z" fill="#6C63FF"/>
<path d="M52.324 187.253L52.2411 187.923L52.1279 188.868L52.0782 189.262L51.965 190.207L51.9126 190.601L51.7994 191.546L50.4852 202.292C50.3665 203.25 48.7955 204 46.896 204H40.0737C38.177 204 36.6088 203.25 36.4845 202.292L35.1703 191.546L35.0544 190.601L35.0074 190.207L34.8887 189.262L34.8418 188.868L34.7258 187.923L34.643 187.253C34.5795 186.702 35.4271 186.25 36.5011 186.25H50.4686C51.5454 186.25 52.393 186.711 52.324 187.253Z" fill="#65617D"/>
<path d="M52.2442 187.923L52.1282 188.868H34.8476L34.7344 187.923H52.2442Z" fill="#9D9CB5"/>
<path d="M52.0815 189.262L51.9655 190.207H35.0134L34.8975 189.262H52.0815Z" fill="#9D9CB5"/>
<path d="M51.916 190.601L51.8 191.546H35.1765L35.0605 190.601H51.916Z" fill="#9D9CB5"/>
</g>
<defs>
<linearGradient id="paint0_linear" x1="236.844" y1="194.448" x2="236.844" y2="61.4756" gradientUnits="userSpaceOnUse">
<stop stop-color="#808080" stop-opacity="0.25"/>
<stop offset="0.54" stop-color="#808080" stop-opacity="0.12"/>
<stop offset="1" stop-color="#808080" stop-opacity="0.1"/>
</linearGradient>
<clipPath id="clip0">
<rect width="319" height="219.451" fill="white"/>
</clipPath>
</defs>
</svg>
