<svg width="248" height="183" viewBox="0 0 248 183" fill="none" xmlns="http://www.w3.org/2000/svg">
<g clip-path="url(#clip0)">
<path opacity="0.2" d="M32.8199 92.7141C29.5583 93.7053 26.5054 96.1051 25.6906 99.4346C24.7587 103.261 26.9077 107.118 27.2183 111.047C28.2215 123.919 10.0162 133.001 12.6133 145.646C13.6445 150.673 17.8126 154.372 21.9197 157.427C28.499 162.306 35.799 166.616 43.8832 167.833C56.1533 169.682 68.9735 164.247 80.8999 167.682C90.5194 170.453 97.8805 178.574 107.434 181.571C114.706 183.853 122.54 182.954 130.095 182.029C134.169 181.533 138.436 180.959 141.724 178.5C147.834 173.923 148.219 164.885 152.311 158.408C158.63 148.419 172.487 146.458 184.105 148.399C195.723 150.34 207.006 155.119 218.777 154.73C221.292 154.646 223.869 154.302 226.064 153.06C228.732 151.552 230.535 148.893 232.129 146.263C242.091 129.761 247.559 110.912 247.984 91.6103C248.053 88.2936 247.936 84.8335 246.385 81.9061C244.425 78.2026 240.506 75.9872 236.605 74.4966C227.238 70.911 216.89 70.3245 207.711 66.2804C198.858 62.3798 191.688 55.5389 183.978 49.6764C168.613 38.0161 150.805 30.0385 131.91 26.3519C127.483 25.4914 122.887 24.8767 118.487 25.8704C113.417 27.0153 109.048 30.1937 105.119 33.6154C94.6672 42.7177 86.2902 53.9484 76.6579 63.9242C70.0131 70.8037 62.7776 77.0799 55.0355 82.6795C51.4709 85.2637 47.6821 88.332 43.71 90.2426C40.0741 91.9893 36.6647 91.5488 32.8199 92.7141Z" fill="#6C63FF"/>
<path d="M79.4108 11.8174C79.4108 11.8174 69.5697 24.9638 76.61 40.2872C83.6502 55.6107 64.3398 80.2311 64.3398 80.2311" stroke="#535461" stroke-width="2" stroke-miterlimit="10"/>
<path d="M83.824 6.89737C83.0423 10.2807 79.302 12.2963 79.302 12.2963C79.302 12.2963 76.8322 8.82592 77.6138 5.44263C78.3955 2.05933 80.4147 -0.358401 82.1359 0.043701C83.8571 0.445803 84.6057 3.51407 83.824 6.89737Z" fill="#8ED16F"/>
<path d="M81.311 6.30776C81.5567 5.24557 81.435 4.30939 81.0392 4.21673C80.6434 4.12408 80.1233 4.91005 79.8776 5.97224C79.6318 7.03443 79.7535 7.97062 80.1493 8.06327C80.5451 8.15592 81.0652 7.36995 81.311 6.30776Z" fill="#8ED16F"/>
<path opacity="0.3" d="M81.311 6.30776C81.5567 5.24557 81.435 4.30939 81.0392 4.21673C80.6434 4.12408 80.1233 4.91005 79.8776 5.97224C79.6318 7.03443 79.7535 7.97062 80.1493 8.06327C80.5451 8.15592 81.0652 7.36995 81.311 6.30776Z" fill="black"/>
<path d="M82.123 21.9284C78.8741 23.1065 75.1592 21.0422 75.1592 21.0422C75.1592 21.0422 76.7124 17.0699 79.9639 15.8943C83.2154 14.7187 86.3294 15.126 86.9277 16.7805C87.5261 18.435 85.372 20.7503 82.123 21.9284Z" fill="#8ED16F"/>
<path d="M81.21 19.3202C82.2291 18.9495 82.9433 18.3374 82.8051 17.9531C82.6669 17.5688 81.7287 17.5579 80.7096 17.9287C79.6904 18.2995 78.9763 18.9116 79.1144 19.2959C79.2526 19.6801 80.1908 19.691 81.21 19.3202Z" fill="#8ED16F"/>
<path opacity="0.3" d="M81.21 19.3202C82.2291 18.9495 82.9433 18.3374 82.8051 17.9531C82.6669 17.5688 81.7287 17.5579 80.7096 17.9287C79.6904 18.2995 78.9763 18.9116 79.1144 19.2959C79.2526 19.6801 80.1908 19.691 81.21 19.3202Z" fill="black"/>
<path d="M81.3662 33.9069C78.1173 35.0851 74.4023 33.0208 74.4023 33.0208C74.4023 33.0208 75.9555 29.0484 79.207 27.8728C82.4585 26.6973 85.5725 27.1045 86.1709 28.759C86.7692 30.4135 84.6152 32.7314 81.3662 33.9069Z" fill="#8ED16F"/>
<path d="M80.4921 31.4798C81.5122 31.1104 82.2275 30.4991 82.0899 30.1145C81.9522 29.7299 81.0136 29.7176 79.9935 30.087C78.9734 30.4564 78.2581 31.0677 78.3957 31.4523C78.5334 31.8369 79.472 31.8492 80.4921 31.4798Z" fill="#8ED16F"/>
<path opacity="0.3" d="M80.4921 31.4798C81.5122 31.1104 82.2275 30.4991 82.0899 30.1145C81.9522 29.7299 81.0136 29.7176 79.9935 30.087C78.9734 30.4564 78.2581 31.0677 78.3957 31.4523C78.5334 31.8369 79.472 31.8492 80.4921 31.4798Z" fill="black"/>
<path d="M85.1631 47.9602C81.9141 49.1383 78.1992 47.074 78.1992 47.074C78.1992 47.074 79.7524 43.1016 83.0039 41.9261C86.2554 40.7505 89.3694 41.1577 89.9678 42.8122C90.5661 44.4667 88.412 46.7897 85.1631 47.9602Z" fill="#8ED16F"/>
<path d="M84.288 45.5389C85.3081 45.1695 86.0234 44.5582 85.8858 44.1736C85.7481 43.789 84.8095 43.7766 83.7894 44.1461C82.7693 44.5155 82.054 45.1267 82.1916 45.5114C82.3293 45.896 83.2679 45.9083 84.288 45.5389Z" fill="#8ED16F"/>
<path opacity="0.3" d="M84.288 45.5389C85.3081 45.1695 86.0234 44.5582 85.8858 44.1736C85.7481 43.789 84.8095 43.7766 83.7894 44.1461C82.7693 44.5155 82.054 45.1267 82.1916 45.5114C82.3293 45.896 83.2679 45.9083 84.288 45.5389Z" fill="black"/>
<path d="M82.6934 60.8122C79.4444 61.9903 75.7295 59.926 75.7295 59.926C75.7295 59.926 77.2827 55.9537 80.5342 54.7781C83.7857 53.6025 86.8997 54.0098 87.498 55.6643C88.0964 57.3188 85.9449 59.6366 82.6934 60.8122Z" fill="#8ED16F"/>
<path d="M81.8262 58.1728C82.8453 57.802 83.5595 57.1899 83.4213 56.8056C83.2831 56.4214 82.3449 56.4105 81.3258 56.7813C80.3067 57.152 79.5925 57.7641 79.7307 58.1484C79.8688 58.5327 80.807 58.5436 81.8262 58.1728Z" fill="#8ED16F"/>
<path opacity="0.3" d="M81.8262 58.1728C82.8453 57.802 83.5595 57.1899 83.4213 56.8056C83.2831 56.4214 82.3449 56.4105 81.3258 56.7813C80.3067 57.152 79.5925 57.7641 79.7307 58.1484C79.8688 58.5327 80.807 58.5436 81.8262 58.1728Z" fill="black"/>
<path d="M67.4546 25.3324C69.8531 27.8321 74.0925 27.6375 74.0925 27.6375C74.0925 27.6375 74.4413 23.3834 72.0428 20.8837C69.6443 18.384 66.6729 17.3544 65.4049 18.5787C64.1369 19.8029 65.0561 22.8327 67.4546 25.3324Z" fill="#8ED16F"/>
<path d="M71.2036 24.4455C71.496 24.1615 71.1225 23.2953 70.3695 22.5107C69.6165 21.7261 68.7691 21.3202 68.4767 21.6041C68.1843 21.888 68.5577 22.7542 69.3107 23.5389C70.0637 24.3235 70.9112 24.7294 71.2036 24.4455Z" fill="#8ED16F"/>
<path opacity="0.3" d="M71.2036 24.4455C71.496 24.1615 71.1225 23.2953 70.3695 22.5107C69.6165 21.7261 68.7691 21.3202 68.4767 21.6041C68.1843 21.888 68.5577 22.7542 69.3107 23.5389C70.0637 24.3235 70.9112 24.7294 71.2036 24.4455Z" fill="black"/>
<path d="M66.0757 65.0278C68.4742 67.5275 72.7136 67.3328 72.7136 67.3328C72.7136 67.3328 73.0624 63.0787 70.6639 60.579C68.2654 58.0793 65.294 57.0497 64.026 58.274C62.758 59.4982 63.6772 62.5281 66.0757 65.0278Z" fill="#8ED16F"/>
<path d="M69.8227 64.1442C70.1151 63.8603 69.7417 62.994 68.9887 62.2094C68.2357 61.4248 67.3882 61.0189 67.0958 61.3028C66.8034 61.5867 67.1768 62.453 67.9299 63.2376C68.6829 64.0222 69.5303 64.4281 69.8227 64.1442Z" fill="#8ED16F"/>
<path opacity="0.3" d="M69.8227 64.1442C70.1151 63.8603 69.7417 62.994 68.9887 62.2094C68.2357 61.4248 67.3882 61.0189 67.0958 61.3028C66.8034 61.5867 67.1768 62.453 67.9299 63.2376C68.6829 64.0222 69.5303 64.4281 69.8227 64.1442Z" fill="black"/>
<path d="M69.2559 39.3625C72.347 40.9146 76.2758 39.301 76.2758 39.301C76.2758 39.301 75.1936 35.175 72.1051 33.6229C69.0166 32.0709 65.872 32.0862 65.0852 33.6844C64.2984 35.2826 66.1648 37.8104 69.2559 39.3625Z" fill="#8ED16F"/>
<path d="M72.4872 37.2608C72.6687 36.895 72.0293 36.2037 71.0592 35.7168C70.0891 35.2298 69.1555 35.1316 68.9741 35.4974C68.7926 35.8632 69.432 36.5544 70.4021 37.0414C71.3722 37.5283 72.3057 37.6266 72.4872 37.2608Z" fill="#8ED16F"/>
<path opacity="0.3" d="M72.4872 37.2608C72.6687 36.895 72.0293 36.2037 71.0592 35.7168C70.0891 35.2298 69.1555 35.1316 68.9741 35.4974C68.7926 35.8632 69.432 36.5544 70.4021 37.0414C71.3722 37.5283 72.3057 37.6266 72.4872 37.2608Z" fill="black"/>
<path d="M70.553 53.3386C73.6441 54.8906 77.5729 53.2771 77.5729 53.2771C77.5729 53.2771 76.4907 49.1511 73.4022 47.599C70.3136 46.047 67.1691 46.0623 66.3823 47.6605C65.5955 49.2586 67.4746 51.8019 70.553 53.3386Z" fill="#8ED16F"/>
<path d="M73.785 51.2388C73.9665 50.873 73.3272 50.1818 72.357 49.6948C71.3869 49.2079 70.4534 49.1096 70.2719 49.4754C70.0905 49.8412 70.7298 50.5324 71.6999 51.0194C72.67 51.5063 73.6036 51.6046 73.785 51.2388Z" fill="#8ED16F"/>
<path opacity="0.3" d="M73.785 51.2388C73.9665 50.873 73.3272 50.1818 72.357 49.6948C71.3869 49.2079 70.4534 49.1096 70.2719 49.4754C70.0905 49.8412 70.7298 50.5324 71.6999 51.0194C72.67 51.5063 73.6036 51.6046 73.785 51.2388Z" fill="black"/>
<path d="M32.013 40.0747C32.013 40.0747 49.9866 58.1539 39.84 84.9821C29.6934 111.81 57.2331 156.423 57.2331 156.423C57.2331 156.423 56.9378 156.38 56.3903 156.282C19.4704 149.728 1.13775 107.259 21.6601 75.7107C29.2809 63.9806 35.5573 50.222 32.013 40.0747Z" fill="#8ED16F"/>
<path d="M0 113.198C0 113.198 20.5097 109.912 22.3786 128.401C24.2475 146.89 61.8167 149.454 61.8167 149.454C61.8167 149.454 61.5621 149.623 61.1114 149.925C30.091 170.414 0.437948 162.972 4.90653 135.775C6.57175 125.661 6.43425 115.506 0 113.198Z" fill="#8ED16F"/>
<g opacity="0.3">
<path opacity="0.3" d="M0 113.198C0 113.198 20.5097 109.912 22.3786 128.401C24.2475 146.89 61.8167 149.454 61.8167 149.454C61.8167 149.454 61.5621 149.623 61.1114 149.925C30.091 170.414 0.437948 162.972 4.90653 135.775C6.57175 125.661 6.43425 115.506 0 113.198Z" fill="white"/>
</g>
<path d="M26.8224 112.97C29.9372 112.97 32.4623 106.343 32.4623 98.1691C32.4623 89.9948 29.9372 83.3682 26.8224 83.3682C23.7077 83.3682 21.1826 89.9948 21.1826 98.1691C21.1826 106.343 23.7077 112.97 26.8224 112.97Z" fill="#8ED16F"/>
<path opacity="0.3" d="M26.8224 112.97C29.9372 112.97 32.4623 106.343 32.4623 98.1691C32.4623 89.9948 29.9372 83.3682 26.8224 83.3682C23.7077 83.3682 21.1826 89.9948 21.1826 98.1691C21.1826 106.343 23.7077 112.97 26.8224 112.97Z" fill="black"/>
<path d="M26.3061 151.923C27.7907 150.43 26.3155 146.525 23.0113 143.202C19.7071 139.878 15.825 138.394 14.3404 139.887C12.8558 141.381 14.331 145.286 17.6352 148.609C20.9394 151.933 24.8215 153.417 26.3061 151.923Z" fill="#8ED16F"/>
<path opacity="0.3" d="M26.3061 151.923C27.7907 150.43 26.3155 146.525 23.0113 143.202C19.7071 139.878 15.825 138.394 14.3404 139.887C12.8558 141.381 14.331 145.286 17.6352 148.609C20.9394 151.933 24.8215 153.417 26.3061 151.923Z" fill="black"/>
<path d="M184.317 67.9888H50.8094C49.1962 67.9888 47.649 68.6334 46.5082 69.7809C45.3674 70.9283 44.7266 72.4846 44.7266 74.1074V152.82C44.7266 154.442 45.3674 155.999 46.5082 157.146C47.649 158.294 49.1962 158.938 50.8094 158.938H184.317C185.93 158.938 187.477 158.294 188.618 157.146C189.759 155.999 190.4 154.442 190.4 152.82V74.1074C190.4 72.4846 189.759 70.9283 188.618 69.7809C187.477 68.6334 185.93 67.9888 184.317 67.9888Z" fill="url(#paint0_linear)"/>
<path d="M182.366 69.0591H52.7566C49.2677 69.0591 46.4395 71.904 46.4395 75.4133V151.513C46.4395 155.022 49.2677 157.867 52.7566 157.867H182.366C185.855 157.867 188.683 155.022 188.683 151.513V75.4133C188.683 71.904 185.855 69.0591 182.366 69.0591Z" fill="#6C63FF"/>
<path d="M188.683 84.6001H46.4395V100.881H188.683V84.6001Z" fill="#6C63FF"/>
<path opacity="0.3" d="M188.683 84.6001H46.4395V100.881H188.683V84.6001Z" fill="black"/>
<path d="M175.197 112.97H59.9307V120.864H175.197V112.97Z" fill="#D6D6E3"/>
<path d="M69.4941 151.948C75.7251 151.948 80.7764 146.868 80.7764 140.6C80.7764 134.332 75.7251 129.251 69.4941 129.251C63.2631 129.251 58.2119 134.332 58.2119 140.6C58.2119 146.868 63.2631 151.948 69.4941 151.948Z" fill="#6C63FF"/>
<path opacity="0.3" d="M69.4941 151.948C75.7251 151.948 80.7764 146.868 80.7764 140.6C80.7764 134.332 75.7251 129.251 69.4941 129.251C63.2631 129.251 58.2119 134.332 58.2119 140.6C58.2119 146.868 63.2631 151.948 69.4941 151.948Z" fill="black"/>
<path d="M180.597 47.1611C180.779 47.7403 181.166 48.2323 181.684 48.5441C184.024 50.0987 189.112 49.7683 189.723 49.7683C189.852 49.7683 190.023 50.0014 190.211 50.3933C191.11 52.2578 192.503 57.7233 192.597 58.9527C192.722 60.4407 194.097 67.4045 196.348 69.9989C196.417 70.0783 196.485 70.1526 196.552 70.2218C198.759 72.4525 201.349 69.9989 201.349 69.9989L201.72 68.7004C201.616 69.2127 201.499 69.8094 201.382 70.4779C201.323 70.8134 201.265 71.1694 201.208 71.5356C200.873 73.5994 200.697 75.6861 200.681 77.7772C200.676 78.5364 200.708 79.2955 200.778 80.0515C200.799 80.2615 200.821 80.469 200.849 80.6713C200.964 81.5922 201.021 82.5195 201.018 83.4476C200.997 88.9592 199.599 95.8154 199.599 95.8154L199.653 95.7975C199.62 95.9691 199.599 96.0536 199.599 96.0536L199.681 96.028C199.642 96.2824 199.604 96.5428 199.569 96.8092C199.095 100.267 198.823 104.569 198.693 107.054C198.626 108.364 198.684 109.678 198.866 110.978L201.351 128.575V136.771C201.343 138.013 201.493 139.251 201.799 140.454C202.609 143.55 201.942 154.358 201.568 159.486C201.463 160.884 201.382 161.863 201.359 162.144V162.229L201.43 162.201C201.43 162.26 201.43 162.29 201.43 162.29C201.536 162.245 201.647 162.212 201.761 162.193C200.776 163.73 198.991 166.27 197.618 166.698C196.81 166.946 196.09 167.426 195.548 168.079L195.513 168.127L195.462 168.199C195.292 168.427 195.189 168.699 195.164 168.983C195.144 168.934 195.129 168.883 195.118 168.832C195.014 169.403 195.355 169.925 196.427 170.179C197.052 170.299 197.688 170.35 198.324 170.332C202.041 170.332 208.638 169.182 209.367 167.945V163.678L209.486 163.717V163.755L209.942 163.906L211.192 159.686C212.692 158.569 211.447 138.584 211.192 133.992C210.963 129.807 213.537 113.16 213.993 110.227L213.932 110.153L214.001 109.725C214.092 109.792 214.178 109.867 214.255 109.95C214.405 110.129 214.535 110.323 214.645 110.529C214.86 110.896 215.045 111.28 215.197 111.677C217.713 117.987 218.846 136.033 218.846 137.652V154.622C218.841 156.297 219.072 157.964 219.534 159.573C219.765 160.42 219.943 161.28 220.068 162.149C220.122 162.49 220.167 162.828 220.211 163.151C220.254 163.474 220.297 163.842 220.33 164.145C220.33 164.224 220.348 164.301 220.356 164.373C220.364 164.444 220.356 164.442 220.356 164.478C220.425 165.146 220.46 165.584 220.46 165.584C220.47 165.547 220.487 165.513 220.511 165.484L220.524 165.645C220.542 165.584 220.576 165.529 220.623 165.487C220.727 165.384 220.839 165.292 220.959 165.21V167.367L220.898 167.32V167.692C223.49 169.659 227.709 170.253 230.948 170.23C233.049 170.23 234.75 169.974 235.34 169.677C236.186 169.259 235.722 168.286 234.953 167.541C234.357 166.962 233.581 166.516 233.089 166.573C232.27 166.662 229.466 163.468 227.997 161.719L228.163 161.645L228.397 161.542V133.247C228.397 133.247 228.774 122.075 229.897 111.026C230.429 105.457 229.774 99.8368 227.974 94.5425L227.939 94.4375L228.28 94.4913C228.641 94.5477 228.835 94.581 228.835 94.581C228.835 94.581 228.835 94.4939 228.812 94.3248H228.835C228.835 94.3248 228.397 89.5329 228.392 83.5142C228.392 76.6913 228.965 68.3726 231.335 63.6652C232.7 60.9555 233.156 58.799 233.117 57.0984C233.177 55.602 232.749 54.127 231.898 52.8981C231.541 52.4034 231.056 52.017 230.495 51.7814L230.447 51.7532H230.421C230.012 51.5866 229.574 51.4997 229.133 51.4971H224.012C223.42 51.4976 222.837 51.3432 222.322 51.0489L220.318 49.9066C219.651 48.4391 219.554 46.6207 219.696 44.9149C219.696 44.7792 219.722 44.6435 219.735 44.5103L219.88 44.3566C219.992 44.2362 220.096 44.1005 220.198 43.9852C220.196 44.0863 220.188 44.1872 220.175 44.2875C220.15 44.4488 220.106 44.5436 220.038 44.5641C221.133 44.4206 222.355 44.2029 223.027 43.3526C223.055 43.3193 223.08 43.2835 223.106 43.2476C223.304 42.9242 223.469 42.5808 223.597 42.2232C223.691 41.9788 223.817 41.748 223.972 41.5368C224.14 41.3165 224.359 41.1372 224.539 40.9272L224.57 40.8914C225.214 40.123 225.25 39.0217 225.257 38.0177C225.27 35.5795 225.199 32.8954 223.577 31.0667C222.23 29.5454 220.081 28.9692 218.041 28.9026C216.002 28.836 213.968 29.2048 211.931 29.215C210.545 29.215 208.875 29.192 208.111 30.3445C207.737 30.9105 207.691 31.6507 207.284 32.1937C207.049 32.5061 206.69 32.775 206.67 33.1643C206.668 33.344 206.713 33.521 206.803 33.6766V33.6945C207.296 34.6729 208.345 35.2824 209.44 35.4745C209.255 35.6986 209.085 35.9347 208.931 36.1814C208.263 37.2563 207.91 38.4992 207.913 39.767C207.913 39.9156 207.913 40.0615 207.928 40.2075C208.042 41.9296 208.805 43.5429 210.062 44.7177C210.041 44.8612 210.021 45.0046 209.998 45.1454L210.044 45.1864C210.188 45.3179 210.338 45.4425 210.494 45.5604L210.551 45.6039C210.551 45.6935 210.551 45.7832 210.551 45.86C210.551 46.0086 210.551 46.1597 210.535 46.3057C210.52 46.4516 210.535 46.5413 210.52 46.6591L210.487 46.6309L207.999 44.541L203.999 40.8171C203.999 40.8171 193.998 33.4947 193.496 36.9753C193.435 37.5935 193.605 38.2123 193.972 38.7118C195.808 41.5291 202.12 43.9263 202.12 43.9263C202.12 43.9263 205.883 47.9294 208.402 52.245C208.312 52.2936 208.223 52.3397 208.129 52.3833C205.888 53.4308 202.619 52.9877 202.619 52.9877C198.843 53.5793 198.502 57.7412 198.522 59.4239C198.522 59.5033 198.522 59.5801 198.522 59.6493C198.522 59.7185 198.522 59.7338 198.522 59.7722L193.511 47.9371L193.496 47.9013C193.333 47.5159 193.075 47.1783 192.748 46.9196C192.42 46.6608 192.033 46.4893 191.622 46.4209C188.271 45.8549 179.897 44.6742 180.597 47.1611ZM201.575 162.157C201.648 162.14 201.722 162.126 201.797 162.116L201.774 162.152L201.575 162.157Z" fill="url(#paint1_linear)"/>
<path d="M226.612 159.737C226.612 159.737 231.358 165.738 232.455 165.615C233.553 165.492 236.107 167.94 234.648 168.688C233.189 169.436 224.789 169.912 220.644 166.729V161.932L226.612 159.737Z" fill="#ACA9C9"/>
<path d="M202.629 160.103C202.629 160.103 199.828 165.123 197.882 165.738C195.937 166.352 194.231 168.555 196.788 169.167C199.344 169.779 208.475 168.432 209.325 166.962V160.469L202.629 160.103Z" fill="#ACA9C9"/>
<path d="M199.113 110.788L201.532 128.147V136.218C201.524 137.442 201.672 138.662 201.97 139.849C202.759 142.905 202.11 153.564 201.743 158.623C201.624 160.272 201.532 161.327 201.532 161.327C203.113 160.592 209.81 162.918 209.81 162.918L210.487 160.6L211.027 158.756C212.488 157.655 211.281 137.941 211.027 133.4C210.861 130.299 212.236 120.244 213.117 114.217C213.372 112.514 213.578 111.144 213.703 110.319C213.782 109.807 213.825 109.523 213.825 109.523C214.093 109.743 214.316 110.013 214.482 110.319C214.691 110.681 214.871 111.06 215.019 111.451C217.469 117.677 218.584 135.477 218.584 137.063V153.803C218.579 155.454 218.804 157.098 219.253 158.687C219.555 159.845 219.775 161.024 219.913 162.213C220.086 163.543 220.168 164.613 220.168 164.613C220.29 163.878 227.837 160.572 227.837 160.572V132.655C227.837 132.655 228.201 121.642 229.298 110.737C229.77 105.776 229.295 100.771 227.898 95.9895C227.595 94.9471 227.292 94.0635 227.03 93.3643C226.584 92.1734 226.266 91.5151 226.266 91.5151H201.405C200.987 91.5945 200.641 92.4397 200.328 93.7229C200.124 94.5834 199.946 95.6386 199.79 96.7962C199.329 100.205 199.065 104.449 198.937 106.903C198.873 108.2 198.932 109.501 199.113 110.788Z" fill="#618FD8"/>
<g opacity="0.1">
<path opacity="0.1" d="M227.399 160.651V132.735C227.399 132.735 227.763 121.722 228.86 110.816C229.958 99.9109 225.805 91.5923 225.805 91.5923H226.291C226.291 91.5923 230.429 99.9186 229.347 110.816C228.264 121.714 227.885 132.735 227.885 132.735V160.651C227.885 160.651 220.338 163.958 220.216 164.693C220.216 164.693 220.216 164.529 220.178 164.247C221.823 163.097 227.399 160.651 227.399 160.651Z" fill="black"/>
<path opacity="0.1" d="M202.262 161.251C202.033 161.255 201.806 161.302 201.593 161.389V161.266C201.815 161.244 202.039 161.238 202.262 161.251Z" fill="black"/>
<path opacity="0.1" d="M210.602 158.818C212.063 157.716 210.857 138.003 210.602 133.462C210.347 128.921 213.403 109.587 213.403 109.587C213.563 109.711 213.704 109.858 213.823 110.022C213.375 112.911 210.869 129.336 211.091 133.462C211.345 137.993 212.552 157.706 211.091 158.818L209.874 162.979L209.431 162.831L210.602 158.818Z" fill="black"/>
</g>
<path d="M204.088 61.2913L201.542 70.3527C201.542 70.3527 198.863 72.9139 196.673 70.3527C194.484 67.7916 193.134 60.9251 193.002 59.455C192.869 57.9849 190.932 50.3936 190.201 50.3936C189.47 50.3936 182.168 50.8828 181.315 47.8324C180.632 45.3789 188.785 46.5519 192.05 47.1025C192.452 47.1714 192.83 47.3413 193.149 47.5965C193.468 47.8517 193.718 48.184 193.875 48.5624L198.881 60.587C198.881 60.587 201.532 57.4957 204.088 61.2913Z" fill="#F7C4A7"/>
<path d="M220.521 40.2305C220.521 40.2305 217.356 49.1689 221.374 52.3524C225.392 55.5359 207.006 56.3939 207.006 56.3939L209.501 54.0069C209.501 54.0069 211.266 46.9663 210.049 41.0885L220.521 40.2305Z" fill="#F7C4A7"/>
<path opacity="0.1" d="M216.626 52.3526C216.626 52.3526 219.852 51.5561 219.852 50.7007L222.712 52.3526H229.894C229.894 52.3526 235.129 55.2903 230.747 64.1083C226.365 72.9264 228.313 94.5862 228.313 94.5862C228.313 94.5862 212.733 91.7689 199.829 96.0563C199.829 96.0563 201.777 86.3828 201.046 80.8737C200.315 75.3647 202.263 67.6504 202.263 67.6504L203.358 62.9968C203.358 62.9968 203.297 58.6428 198.793 60.8531C198.793 60.8531 198.123 54.5475 202.749 53.8125C202.749 53.8125 208.096 54.5475 209.688 51.8532C209.688 51.8635 213.219 53.9457 216.626 52.3526Z" fill="black"/>
<path d="M216.625 52.1095C216.625 52.1095 219.851 51.3129 219.851 50.4575L221.947 51.669C222.448 51.9575 223.015 52.1094 223.592 52.1095H228.615C229.14 52.108 229.658 52.2321 230.126 52.4717C230.594 52.7113 230.999 53.0594 231.307 53.4874C232.46 55.1188 233.494 58.3357 230.746 63.8652C226.364 72.6807 228.312 94.343 228.312 94.343C228.312 94.343 212.732 91.5257 199.828 95.8131C199.828 95.8131 201.776 86.1396 201.045 80.6305C200.314 75.1215 202.262 67.4252 202.262 67.4252L203.357 62.7716C203.357 62.7716 203.296 58.4176 198.792 60.6279C198.792 60.6279 198.14 54.4965 202.557 53.6206C202.68 53.5931 202.806 53.5845 202.932 53.5949C203.876 53.6948 208.279 54.015 209.689 51.6152C209.687 51.6177 213.218 53.7 216.625 52.1095Z" fill="#E14B5A"/>
<path opacity="0.1" d="M228.921 63.2502C228.921 63.2502 225.025 65.6987 218.696 63.2502C218.696 63.2502 211.757 60.6891 209.565 55.6589C207.373 50.6288 220.641 56.5169 220.641 56.5169C220.641 56.5169 223.442 56.5169 224.292 55.9048C225.143 55.2927 231.111 60.5559 228.921 63.2502Z" fill="black"/>
<path d="M228.921 62.7614C228.921 62.7614 225.025 65.2098 218.695 62.7614C218.695 62.7614 211.757 60.2002 209.565 55.1701C207.373 50.14 202.262 44.6309 202.262 44.6309C202.262 44.6309 193.376 41.2015 193.86 37.7747C194.344 34.3478 204.085 41.5703 204.085 41.5703L207.981 45.243L220.641 56.0178C220.641 56.0178 223.442 56.0178 224.292 55.4057C225.142 54.7936 231.111 60.067 228.921 62.7614Z" fill="#F7C4A7"/>
<path opacity="0.1" d="M209.932 41.4552L220.399 40.5972C219.861 42.2159 219.495 43.8874 219.307 45.5837C218.09 46.853 216.426 47.5909 214.674 47.6388C212.921 47.6867 211.22 47.0407 209.937 45.8399C210.203 44.3904 210.202 42.9039 209.932 41.4552Z" fill="black"/>
<path d="M214.62 47.2713C218.317 47.2713 221.314 44.2567 221.314 40.538C221.314 36.8193 218.317 33.8047 214.62 33.8047C210.923 33.8047 207.926 36.8193 207.926 40.538C207.926 44.2567 210.923 47.2713 214.62 47.2713Z" fill="#F7C4A7"/>
<path opacity="0.1" d="M218.293 42.0007C217.901 41.3502 218.698 40.5024 218.435 39.7904C218.194 39.1348 217.231 39.0221 216.908 38.4099C216.653 37.9156 216.908 37.3086 216.806 36.7631C216.661 36.0588 215.907 35.6208 215.192 35.585C214.476 35.5491 213.786 35.8181 213.106 36.0486C211.999 36.425 210.832 36.7145 209.671 36.5813C208.51 36.4481 207.352 35.8129 206.835 34.7705C206.75 34.6187 206.706 34.4477 206.705 34.2737C206.725 33.8895 207.077 33.6257 207.303 33.3184C207.701 32.7831 207.746 32.0532 208.108 31.4948C208.846 30.3577 210.468 30.3858 211.818 30.3807C213.804 30.3807 215.78 30.0068 217.766 30.0734C219.752 30.14 221.84 30.706 223.156 32.2068C224.735 34.0124 224.806 36.6556 224.793 39.063C224.793 40.0542 224.753 41.1325 224.124 41.8982C223.94 42.1211 223.716 42.3055 223.541 42.5334C223.159 43.0456 223.057 43.7013 222.698 44.2212C222.061 45.1458 220.819 45.3712 219.711 45.5197C220.037 45.4762 219.767 43.2813 219.711 43.0789C219.497 42.0698 219.265 42.0903 218.293 42.0007Z" fill="black"/>
<path d="M218.293 41.757C217.901 41.1065 218.698 40.2588 218.435 39.5468C218.194 38.8911 217.231 38.7784 216.908 38.1663C216.653 37.672 216.908 37.065 216.806 36.5195C216.661 35.8151 215.907 35.3772 215.192 35.3413C214.476 35.3055 213.786 35.5744 213.106 35.8049C211.999 36.1814 210.832 36.4708 209.671 36.3376C208.51 36.2044 207.352 35.5693 206.835 34.5269C206.75 34.375 206.706 34.204 206.705 34.03C206.725 33.6458 207.077 33.382 207.303 33.0747C207.701 32.5394 207.746 31.8095 208.108 31.2512C208.846 30.114 210.468 30.1422 211.818 30.1371C213.804 30.1371 215.78 29.7631 217.766 29.8297C219.752 29.8963 221.84 30.4623 223.156 31.9632C224.735 33.7688 224.806 36.4119 224.793 38.8194C224.793 39.8106 224.753 40.8888 224.124 41.6546C223.94 41.8774 223.716 42.0618 223.541 42.2898C223.159 42.802 223.057 43.4577 222.698 43.9776C222.061 44.9021 220.819 45.1275 219.711 45.2761C220.037 45.2325 219.767 43.0376 219.711 42.8353C219.497 41.8134 219.265 41.8441 218.293 41.757Z" fill="#281C1C"/>
<path opacity="0.1" d="M228.86 63.5579C228.86 63.5579 225.572 54.9857 223.016 54.7424C220.46 54.4991 227.884 54.7424 227.884 54.7424L230.319 59.1502L228.86 63.5579Z" fill="black"/>
<path d="M229.105 63.5579C229.105 63.5579 225.818 54.9857 223.261 54.7424C220.705 54.4991 228.13 54.7424 228.13 54.7424L230.564 59.1502L229.105 63.5579Z" fill="#E14B5A"/>
<path d="M219.902 162.234C220.075 163.563 220.157 164.634 220.157 164.634C220.279 163.899 227.826 160.592 227.826 160.592V158.602C227.634 158.595 227.441 158.605 227.251 158.631C225.787 158.828 224.429 159.542 223.177 160.306C222.119 161.004 221.026 161.648 219.902 162.234Z" fill="#618FD8"/>
<path opacity="0.3" d="M219.902 162.234C220.075 163.563 220.157 164.634 220.157 164.634C220.279 163.899 227.826 160.592 227.826 160.592V158.602C227.634 158.595 227.441 158.605 227.251 158.631C225.787 158.828 224.429 159.542 223.177 160.306C222.119 161.004 221.026 161.648 219.902 162.234Z" fill="black"/>
<path d="M201.532 161.328C203.113 160.593 209.81 162.918 209.81 162.918L210.487 160.6C209.319 160.362 208.157 160.065 207.017 159.712C206.484 159.557 205.963 159.363 205.458 159.133C205.121 158.952 204.775 158.789 204.42 158.646C203.546 158.344 202.637 158.472 201.741 158.623C201.624 160.272 201.532 161.328 201.532 161.328Z" fill="#618FD8"/>
<path opacity="0.3" d="M201.532 161.328C203.113 160.593 209.81 162.918 209.81 162.918L210.487 160.6C209.319 160.362 208.157 160.065 207.017 159.712C206.484 159.557 205.963 159.363 205.458 159.133C205.121 158.952 204.775 158.789 204.42 158.646C203.546 158.344 202.637 158.472 201.741 158.623C201.624 160.272 201.532 161.328 201.532 161.328Z" fill="black"/>
<path opacity="0.4" d="M234.581 168.306C234.683 168.263 234.774 168.196 234.846 168.112C234.918 168.027 234.971 167.928 234.999 167.82C235.044 167.989 235.027 168.169 234.95 168.326C234.873 168.482 234.742 168.606 234.581 168.673C233.12 169.408 224.722 169.897 220.577 166.713V166.347C224.722 169.531 233.12 169.042 234.581 168.306Z" fill="white"/>
<path opacity="0.4" d="M196.724 168.796C199.27 169.408 208.411 168.061 209.261 166.591V166.957C208.408 168.427 199.28 169.774 196.724 169.162C195.68 168.906 195.346 168.394 195.451 167.833C195.532 168.248 195.914 168.591 196.724 168.796Z" fill="white"/>
<path opacity="0.1" d="M211.573 79.5981C211.573 79.5981 208.895 78.7401 208.164 79.5981C207.433 80.4561 201.188 82.4666 201.188 82.4666" fill="black"/>
<path d="M181.266 45.9551H194.29V45.6785H181.266V45.9551Z" fill="#8ED16F"/>
<path d="M181.266 46.2314H194.29V45.9548H181.266V46.2314Z" fill="#8ED16F"/>
<path opacity="0.1" d="M181.266 46.2314H194.29V45.9548H181.266V46.2314Z" fill="black"/>
<path d="M181.266 46.5078H194.29V46.2312H181.266V46.5078Z" fill="#8ED16F"/>
<path d="M181.266 46.7822H194.29V46.5056H181.266V46.7822Z" fill="#8ED16F"/>
<path opacity="0.1" d="M181.266 46.7822H194.29V46.5056H181.266V46.7822Z" fill="black"/>
<path d="M181.266 47.0586H194.29V46.782H181.266V47.0586Z" fill="#8ED16F"/>
<path d="M181.266 47.3325H194.29V47.0559H181.266V47.3325Z" fill="#8ED16F"/>
<path opacity="0.1" d="M181.266 47.3325H194.29V47.0559H181.266V47.3325Z" fill="black"/>
<path d="M181.266 47.6094H194.29V47.3328H181.266V47.6094Z" fill="#8ED16F"/>
<path d="M181.266 47.8833H194.29V47.6067H181.266V47.8833Z" fill="#8ED16F"/>
<path opacity="0.1" d="M181.266 47.8833H194.29V47.6067H181.266V47.8833Z" fill="black"/>
<path d="M181.266 43.7524H194.29V43.4758H181.266V43.7524Z" fill="#8ED16F"/>
<path d="M190.479 37.2037L200.492 45.5806L200.668 45.3679L190.655 36.991L190.479 37.2037Z" fill="#8ED16F"/>
<path d="M181.349 32.7965L191.362 41.1733L191.538 40.9607L181.525 32.5838L181.349 32.7965Z" fill="#8ED16F"/>
<path d="M181.266 44.0264H194.29V43.7498H181.266V44.0264Z" fill="#8ED16F"/>
<path opacity="0.1" d="M181.266 44.0264H194.29V43.7498H181.266V44.0264Z" fill="black"/>
<path d="M181.266 44.3057H194.29V44.0291H181.266V44.3057Z" fill="#8ED16F"/>
<path d="M181.266 44.5796H194.29V44.303H181.266V44.5796Z" fill="#8ED16F"/>
<path opacity="0.1" d="M181.266 44.5796H194.29V44.303H181.266V44.5796Z" fill="black"/>
<path d="M181.266 44.8535H194.29V44.5769H181.266V44.8535Z" fill="#8ED16F"/>
<path d="M181.266 45.1304H194.29V44.8538H181.266V45.1304Z" fill="#8ED16F"/>
<path opacity="0.1" d="M181.266 45.1304H194.29V44.8538H181.266V45.1304Z" fill="black"/>
<path d="M181.266 45.4043H194.29V45.1277H181.266V45.4043Z" fill="#8ED16F"/>
<path d="M181.266 45.6807H194.29V45.4041H181.266V45.6807Z" fill="#8ED16F"/>
<path opacity="0.1" d="M181.266 45.6807H194.29V45.4041H181.266V45.6807Z" fill="black"/>
<path d="M179.615 56.4204L184.281 57.292L185.97 48.1437L181.304 47.2721L179.615 56.4204Z" fill="#8ED16F"/>
<path d="M183.814 52.49C184.011 51.4261 183.742 50.4837 183.213 50.385C182.685 50.2864 182.098 51.0688 181.902 52.1327C181.705 53.1966 181.974 54.1391 182.502 54.2377C183.03 54.3364 183.618 53.5539 183.814 52.49Z" fill="#8ED16F"/>
<path opacity="0.1" d="M183.814 52.49C184.011 51.4261 183.742 50.4837 183.213 50.385C182.685 50.2864 182.098 51.0688 181.902 52.1327C181.705 53.1966 181.974 54.1391 182.502 54.2377C183.03 54.3364 183.618 53.5539 183.814 52.49Z" fill="black"/>
<path d="M180.415 75.7299L185.081 76.6016L186.77 67.4533L182.104 66.5816L180.415 75.7299Z" fill="#8ED16F"/>
<path d="M184.611 71.7976C184.807 70.7337 184.538 69.7913 184.01 69.6926C183.482 69.594 182.895 70.3764 182.698 71.4403C182.502 72.5042 182.771 73.4467 183.299 73.5453C183.827 73.644 184.415 72.8615 184.611 71.7976Z" fill="#8ED16F"/>
<path opacity="0.1" d="M184.611 71.7976C184.807 70.7337 184.538 69.7913 184.01 69.6926C183.482 69.594 182.895 70.3764 182.698 71.4403C182.502 72.5042 182.771 73.4467 183.299 73.5453C183.827 73.644 184.415 72.8615 184.611 71.7976Z" fill="black"/>
<path d="M163.537 28.2677L161.278 32.4663L169.414 36.8947L171.673 32.696L163.537 28.2677Z" fill="#8ED16F"/>
<path d="M168.981 33.7016C169.239 33.2261 168.68 32.4196 167.734 31.9002C166.787 31.3808 165.811 31.3452 165.553 31.8207C165.295 32.2962 165.853 33.1027 166.8 33.6221C167.747 34.1415 168.723 34.1771 168.981 33.7016Z" fill="#8ED16F"/>
<path opacity="0.1" d="M168.981 33.7016C169.239 33.2261 168.68 32.4196 167.734 31.9002C166.787 31.3808 165.811 31.3452 165.553 31.8207C165.295 32.2962 165.853 33.1027 166.8 33.6221C167.747 34.1415 168.723 34.1771 168.981 33.7016Z" fill="black"/>
<path d="M145.673 111.128L143.414 115.326L151.55 119.755L153.808 115.556L145.673 111.128Z" fill="#8ED16F"/>
<path d="M150.298 116.429C150.554 115.954 149.994 115.151 149.048 114.636C148.102 114.121 147.128 114.089 146.872 114.564C146.616 115.04 147.176 115.842 148.122 116.357C149.068 116.872 150.043 116.905 150.298 116.429Z" fill="#8ED16F"/>
<path opacity="0.1" d="M150.298 116.429C150.554 115.954 149.994 115.151 149.048 114.636C148.102 114.121 147.128 114.089 146.872 114.564C146.616 115.04 147.176 115.842 148.122 116.357C149.068 116.872 150.043 116.905 150.298 116.429Z" fill="black"/>
<path d="M134.744 42.7486L132.485 46.9473L140.621 51.3757L142.88 47.177L134.744 42.7486Z" fill="#8ED16F"/>
<path d="M139.367 48.047C139.622 47.5718 139.063 46.7691 138.116 46.2541C137.17 45.7391 136.196 45.7068 135.94 46.182C135.685 46.6572 136.245 47.46 137.191 47.975C138.137 48.49 139.111 48.5222 139.367 48.047Z" fill="#8ED16F"/>
<path opacity="0.1" d="M139.367 48.047C139.622 47.5718 139.063 46.7691 138.116 46.2541C137.17 45.7391 136.196 45.7068 135.94 46.182C135.685 46.6572 136.245 47.46 137.191 47.975C138.137 48.49 139.111 48.5222 139.367 48.047Z" fill="black"/>
<path d="M148.442 28.2667L146.184 32.4653L154.319 36.8937L156.578 32.6951L148.442 28.2667Z" fill="#8ED16F"/>
<path d="M153.065 33.5651C153.321 33.0898 152.761 32.2871 151.815 31.7721C150.869 31.2571 149.894 31.2249 149.639 31.7001C149.383 32.1753 149.943 32.978 150.889 33.493C151.835 34.008 152.809 34.0403 153.065 33.5651Z" fill="#8ED16F"/>
<path opacity="0.1" d="M153.065 33.5651C153.321 33.0898 152.761 32.2871 151.815 31.7721C150.869 31.2571 149.894 31.2249 149.639 31.7001C149.383 32.1753 149.943 32.978 150.889 33.493C151.835 34.008 152.809 34.0403 153.065 33.5651Z" fill="black"/>
<path d="M162.118 45.3546L157.4 45.8735L158.406 55.1231L163.124 54.6042L162.118 45.3546Z" fill="#8ED16F"/>
<path d="M160.411 52.1943C160.945 52.1356 161.283 51.2159 161.166 50.1403C161.049 49.0646 160.521 48.2402 159.987 48.2989C159.453 48.3577 159.115 49.2773 159.232 50.3529C159.349 51.4286 159.877 52.253 160.411 52.1943Z" fill="#8ED16F"/>
<path opacity="0.1" d="M160.411 52.1943C160.945 52.1356 161.283 51.2159 161.166 50.1403C161.049 49.0646 160.521 48.2402 159.987 48.2989C159.453 48.3577 159.115 49.2773 159.232 50.3529C159.349 51.4286 159.877 52.253 160.411 52.1943Z" fill="black"/>
<path d="M194.465 96.0036L189.747 96.5225L190.753 105.772L195.471 105.253L194.465 96.0036Z" fill="#8ED16F"/>
<path d="M192.761 102.843C193.295 102.785 193.634 101.865 193.517 100.789C193.4 99.7135 192.872 98.8891 192.338 98.9479C191.804 99.0066 191.466 99.9262 191.583 101.002C191.7 102.078 192.227 102.902 192.761 102.843Z" fill="#8ED16F"/>
<path opacity="0.1" d="M192.761 102.843C193.295 102.785 193.634 101.865 193.517 100.789C193.4 99.7135 192.872 98.8891 192.338 98.9479C191.804 99.0066 191.466 99.9262 191.583 101.002C191.7 102.078 192.227 102.902 192.761 102.843Z" fill="black"/>
<path d="M143.645 65.003L141.386 69.2017L149.521 73.6301L151.78 69.4314L143.645 65.003Z" fill="#8ED16F"/>
<path d="M148.265 70.3048C148.521 69.8296 147.961 69.0269 147.015 68.5119C146.069 67.9969 145.095 67.9646 144.839 68.4398C144.583 68.9151 145.143 69.7178 146.089 70.2328C147.035 70.7478 148.009 70.78 148.265 70.3048Z" fill="#8ED16F"/>
<path opacity="0.1" d="M148.265 70.3048C148.521 69.8296 147.961 69.0269 147.015 68.5119C146.069 67.9969 145.095 67.9646 144.839 68.4398C144.583 68.9151 145.143 69.7178 146.089 70.2328C147.035 70.7478 148.009 70.78 148.265 70.3048Z" fill="black"/>
<path d="M123.113 59.1051L120.854 63.3037L128.99 67.7321L131.249 63.5334L123.113 59.1051Z" fill="#8ED16F"/>
<path d="M128.413 64.686C128.67 64.2105 128.112 63.404 127.165 62.8845C126.219 62.3651 125.242 62.3296 124.984 62.8051C124.727 63.2805 125.285 64.0871 126.232 64.6065C127.178 65.1259 128.155 65.1615 128.413 64.686Z" fill="#8ED16F"/>
<path opacity="0.1" d="M128.413 64.686C128.67 64.2105 128.112 63.404 127.165 62.8845C126.219 62.3651 125.242 62.3296 124.984 62.8051C124.727 63.2805 125.285 64.0871 126.232 64.6065C127.178 65.1259 128.155 65.1615 128.413 64.686Z" fill="black"/>
<path d="M116.539 158.403L114.28 162.602L122.416 167.03L124.675 162.831L116.539 158.403Z" fill="#8ED16F"/>
<path d="M121.162 163.703C121.417 163.228 120.858 162.425 119.911 161.91C118.965 161.395 117.991 161.363 117.735 161.838C117.48 162.313 118.039 163.116 118.986 163.631C119.932 164.146 120.906 164.178 121.162 163.703Z" fill="#8ED16F"/>
<path opacity="0.1" d="M121.162 163.703C121.417 163.228 120.858 162.425 119.911 161.91C118.965 161.395 117.991 161.363 117.735 161.838C117.48 162.313 118.039 163.116 118.986 163.631C119.932 164.146 120.906 164.178 121.162 163.703Z" fill="black"/>
<path d="M110.62 160.021L109.754 164.715L118.849 166.413L119.715 161.719L110.62 160.021Z" fill="#8ED16F"/>
<path opacity="0.05" d="M110.62 160.021L109.754 164.715L118.849 166.413L119.715 161.719L110.62 160.021Z" fill="black"/>
<path d="M116.642 163.634C116.74 163.103 115.962 162.512 114.904 162.315C113.846 162.117 112.909 162.388 112.811 162.919C112.713 163.451 113.491 164.041 114.549 164.239C115.607 164.436 116.544 164.165 116.642 163.634Z" fill="#8ED16F"/>
<path opacity="0.1" d="M116.642 163.634C116.74 163.103 115.962 162.512 114.904 162.315C113.846 162.117 112.909 162.388 112.811 162.919C112.713 163.451 113.491 164.041 114.549 164.239C115.607 164.436 116.544 164.165 116.642 163.634Z" fill="black"/>
<path d="M111.471 162.836L110.605 167.53L119.701 169.228L120.566 164.534L111.471 162.836Z" fill="#8ED16F"/>
<path d="M117.49 166.449C117.588 165.918 116.81 165.327 115.752 165.13C114.695 164.932 113.758 165.203 113.66 165.734C113.562 166.266 114.34 166.856 115.398 167.054C116.455 167.251 117.392 166.98 117.49 166.449Z" fill="#8ED16F"/>
<path opacity="0.1" d="M117.49 166.449C117.588 165.918 116.81 165.327 115.752 165.13C114.695 164.932 113.758 165.203 113.66 165.734C113.562 166.266 114.34 166.856 115.398 167.054C116.455 167.251 117.392 166.98 117.49 166.449Z" fill="black"/>
<path d="M126.135 170.471L123.876 174.669L132.011 179.098L134.27 174.899L126.135 170.471Z" fill="#8ED16F"/>
<path d="M130.761 175.771C131.017 175.295 130.457 174.493 129.511 173.978C128.565 173.463 127.591 173.43 127.335 173.906C127.079 174.381 127.639 175.184 128.585 175.699C129.531 176.214 130.506 176.246 130.761 175.771Z" fill="#8ED16F"/>
<path opacity="0.1" d="M130.761 175.771C131.017 175.295 130.457 174.493 129.511 173.978C128.565 173.463 127.591 173.43 127.335 173.906C127.079 174.381 127.639 175.184 128.585 175.699C129.531 176.214 130.506 176.246 130.761 175.771Z" fill="black"/>
<path d="M120.217 172.086L119.352 176.78L128.447 178.477L129.312 173.783L120.217 172.086Z" fill="#8ED16F"/>
<path opacity="0.05" d="M120.217 172.086L119.352 176.78L128.447 178.477L129.312 173.783L120.217 172.086Z" fill="black"/>
<path d="M126.236 175.699C126.334 175.167 125.556 174.577 124.499 174.379C123.441 174.182 122.504 174.453 122.406 174.984C122.308 175.515 123.086 176.106 124.144 176.303C125.201 176.501 126.138 176.23 126.236 175.699Z" fill="#8ED16F"/>
<path opacity="0.1" d="M126.236 175.699C126.334 175.167 125.556 174.577 124.499 174.379C123.441 174.182 122.504 174.453 122.406 174.984C122.308 175.515 123.086 176.106 124.144 176.303C125.201 176.501 126.138 176.23 126.236 175.699Z" fill="black"/>
<path d="M121.07 174.904L120.204 179.598L129.299 181.295L130.165 176.601L121.07 174.904Z" fill="#8ED16F"/>
<path d="M127.09 178.516C127.188 177.985 126.41 177.395 125.352 177.197C124.294 177 123.357 177.27 123.259 177.802C123.161 178.333 123.939 178.924 124.997 179.121C126.055 179.318 126.992 179.048 127.09 178.516Z" fill="#8ED16F"/>
<path opacity="0.1" d="M127.09 178.516C127.188 177.985 126.41 177.395 125.352 177.197C124.294 177 123.357 177.27 123.259 177.802C123.161 178.333 123.939 178.924 124.997 179.121C126.055 179.318 126.992 179.048 127.09 178.516Z" fill="black"/>
<path d="M140.533 162.694L138.274 166.893L146.41 171.321L148.669 167.122L140.533 162.694Z" fill="#8ED16F"/>
<path d="M145.154 167.992C145.409 167.517 144.85 166.714 143.904 166.199C142.957 165.684 141.983 165.652 141.728 166.127C141.472 166.603 142.032 167.405 142.978 167.92C143.924 168.435 144.898 168.468 145.154 167.992Z" fill="#8ED16F"/>
<path opacity="0.1" d="M145.154 167.992C145.409 167.517 144.85 166.714 143.904 166.199C142.957 165.684 141.983 165.652 141.728 166.127C141.472 166.603 142.032 167.405 142.978 167.92C143.924 168.435 144.898 168.468 145.154 167.992Z" fill="black"/>
<path d="M134.616 164.311L133.75 169.004L142.845 170.702L143.711 166.008L134.616 164.311Z" fill="#8ED16F"/>
<path opacity="0.05" d="M134.616 164.311L133.75 169.004L142.845 170.702L143.711 166.008L134.616 164.311Z" fill="black"/>
<path d="M140.633 167.923C140.731 167.391 139.953 166.801 138.895 166.603C137.837 166.406 136.9 166.677 136.802 167.208C136.704 167.739 137.482 168.33 138.54 168.527C139.598 168.725 140.535 168.454 140.633 167.923Z" fill="#8ED16F"/>
<path opacity="0.1" d="M140.633 167.923C140.731 167.391 139.953 166.801 138.895 166.603C137.837 166.406 136.9 166.677 136.802 167.208C136.704 167.739 137.482 168.33 138.54 168.527C139.598 168.725 140.535 168.454 140.633 167.923Z" fill="black"/>
<path d="M135.466 167.128L134.601 171.822L143.696 173.519L144.561 168.825L135.466 167.128Z" fill="#8ED16F"/>
<path d="M141.488 170.741C141.586 170.209 140.808 169.619 139.75 169.421C138.693 169.224 137.756 169.495 137.658 170.026C137.56 170.557 138.338 171.148 139.396 171.345C140.453 171.543 141.39 171.272 141.488 170.741Z" fill="#8ED16F"/>
<path opacity="0.1" d="M141.488 170.741C141.586 170.209 140.808 169.619 139.75 169.421C138.693 169.224 137.756 169.495 137.658 170.026C137.56 170.557 138.338 171.148 139.396 171.345C140.453 171.543 141.39 171.272 141.488 170.741Z" fill="black"/>
</g>
<defs>
<linearGradient id="paint0_linear" x1="117.563" y1="158.938" x2="117.563" y2="67.9888" gradientUnits="userSpaceOnUse">
<stop stop-color="#808080" stop-opacity="0.25"/>
<stop offset="0.54" stop-color="#808080" stop-opacity="0.12"/>
<stop offset="1" stop-color="#808080" stop-opacity="0.1"/>
</linearGradient>
<linearGradient id="paint1_linear" x1="-163593" y1="107210" x2="-163593" y2="29109.2" gradientUnits="userSpaceOnUse">
<stop stop-color="#808080" stop-opacity="0.25"/>
<stop offset="0.54" stop-color="#808080" stop-opacity="0.12"/>
<stop offset="1" stop-color="#808080" stop-opacity="0.1"/>
</linearGradient>
<clipPath id="clip0">
<rect width="248" height="183" fill="white"/>
</clipPath>
</defs>
</svg>
