<svg width="204" height="179" viewBox="0 0 204 179" fill="none" xmlns="http://www.w3.org/2000/svg">
<g clip-path="url(#clip0)">
<path opacity="0.1" d="M0.0993406 93.1608C0.707098 99.9573 4.5846 106.11 6.9508 112.582C10.2979 121.775 10.6136 131.787 7.85231 141.17C7.28912 143.098 6.59425 145.033 6.59425 147.008C6.59425 153.817 14.3999 158.336 21.4924 161.342C39.5201 168.948 58.3227 174.593 77.5723 178.18C83.8666 179.362 91.729 179.871 95.7118 175.428C97.6242 173.294 98.0861 170.508 99.49 168.114C103.07 162.012 111.781 159.639 119.599 158.282C129.026 156.645 138.541 155.556 148.096 155.022C157.715 154.485 168.637 154.016 175.012 147.741C179.064 143.751 180.243 138.244 180.405 133.044C180.934 115.984 172.731 97.5234 183.259 82.7485C187.674 76.5518 194.882 72.0261 199.264 65.8114C205.607 56.8063 205.06 45.3693 200.765 35.7724C196.47 26.1754 188.863 18.0159 181.365 10.0195C178.873 7.37412 176.228 4.62408 172.5 3.39804C168.625 2.12167 164.23 2.70751 160.075 3.31147C141.178 6.05346 121.558 9.03904 105.707 18.4568C97.8349 23.1335 91.259 29.1993 84.2333 34.7778C69.0677 46.8329 51.4893 57.9659 31.4576 62.7251C15.1819 66.5905 -1.37346 77.0189 0.0993406 93.1608Z" fill="#6C63FF"/>
<path d="M90.001 94.1492C90.0973 94.0999 90.196 94.0555 90.2968 94.0163C90.2968 94.0163 81.9442 89.3397 79.6185 88.0412C78.778 87.5424 77.9762 86.9819 77.2199 86.3642C80.125 85.3173 84.1888 83.447 86.3363 80.6386C86.3363 80.6386 85.7285 80.1353 84.9486 79.4045L85.7872 78.4301C85.7872 78.4301 90.1672 74.9231 87.1567 73.1052C84.7095 71.6275 83.1658 75.5512 82.6735 77.0752L82.5013 76.8739C82.5013 76.8739 77.7892 84.0268 71.434 80.4695C71.0383 79.9171 70.7092 79.3205 70.4535 78.6918C69.972 77.4944 69.2077 76.4297 68.2251 75.5875L67.5788 73.1052L66.4261 72.161C66.4261 70.8041 66.4707 69.1714 66.6287 67.7319C66.6382 67.6407 66.6483 67.5501 66.6591 67.4602C68.8875 66.5804 70.4596 64.4947 70.4596 62.0608C70.46 61.2052 70.2632 60.3608 69.8843 59.5926C70.7858 58.5678 71.4401 57.1767 71.2456 55.9688C71.0937 55.0327 70.2894 54.4227 69.3251 53.9918C68.3973 53.5248 67.2628 53.251 66.414 53.0215C64.852 52.6007 63.1462 52.4014 61.6269 52.947C59.1148 53.8469 57.563 54.8837 55.6101 56.6332C54.0663 58.0162 52.3687 60.424 50.5454 61.4648C48.7221 62.5057 46.9373 63.8545 46.2303 65.7449C45.2336 68.4185 46.599 71.2913 47.2149 74.0655C47.903 77.1881 47.6334 80.444 46.441 83.4128C45.2458 86.3823 43.1085 89.2833 43.6332 92.4219C44.0383 94.8055 45.9366 96.6496 48.2724 97.7146C49.309 98.2227 50.4157 98.5755 51.5563 98.7615C53.5234 99.0816 55.6242 98.9789 57.4414 98.24C56.6764 100.414 55.5679 102.452 54.1575 104.28C52.8103 105.983 52.942 106.909 54.1332 106.997C54.0913 107.157 54.0522 107.327 54.0157 107.507C53.6288 109.393 53.5052 112.479 54.1575 117.529C55.8005 130.258 52.241 134.154 52.241 134.154C52.241 134.154 52.6219 134.286 53.3107 134.484C53.2823 134.56 53.254 134.639 53.2256 134.719C52.472 136.845 51.7589 140.59 53.2013 145.591C54.7551 150.966 55.211 153.442 55.3426 154.505V154.567C55.1866 154.628 54.6194 154.896 54.2021 155.731C53.9171 156.317 53.8124 156.973 53.901 157.618C53.9897 158.262 54.2677 158.867 54.7004 159.355V164.287H55.3852V160.13C55.9867 160.839 56.5015 161.617 56.9188 162.447C57.3079 163.223 57.8841 163.891 58.596 164.392C59.3078 164.893 60.1333 165.211 60.9988 165.318C62.7613 165.556 64.7062 165.642 65.5165 165.064C65.5165 165.064 66.1243 163.927 63.2172 162.548L63.1928 162.512C62.2366 161.126 60.7618 158.723 60.539 156.836C60.4161 155.679 60.1648 154.539 59.7894 153.436C59.4984 152.608 59.3186 151.744 59.2546 150.869C59.052 148.194 58.6995 142.329 59.2222 141.035C59.5747 140.163 59.7833 137.975 59.9008 136.062C59.9008 135.976 59.9109 135.889 59.917 135.804C62.9576 136.191 66.034 136.214 69.08 135.871V137.139C69.08 137.139 67.8483 141.037 70.3117 146.621C70.3117 146.621 73.6524 151.693 74.408 154.688C74.4296 154.774 74.4492 154.858 74.4667 154.94C74.019 154.992 72.0458 155.453 72.7772 159.609L72.6394 165.064H73.3242L73.4619 160.259C73.4619 160.259 74.1467 159.089 76.4744 161.557C76.8269 161.932 77.1456 162.279 77.4306 162.598C78.2651 163.519 79.2934 164.246 80.4425 164.728C81.5916 165.209 82.8333 165.434 84.0795 165.384C85.5745 165.332 87.0028 165.183 87.5619 164.805C87.5619 164.805 88.9314 163.766 85.5077 163.246L83.9316 162.781H83.8728L83.6479 162.532C82.4527 161.187 80.7165 158.908 80.2729 156.593C80.1155 155.794 79.8667 155.016 79.5314 154.274L78.2511 151.411L75.2386 136.098C75.2386 136.098 75.3966 135.426 75.5506 134.603C75.5668 134.512 75.585 134.417 75.6012 134.325L76.0591 134.15C76.0591 134.15 78.798 132.201 74.6896 120.381C74.6896 120.381 73.0932 113.798 72.2849 108.554L74.2783 108.173C74.2783 108.173 73.9704 103.543 73.3566 100.322C73.7617 98.8118 73.9846 97.5032 73.7314 96.863C73.5223 96.2804 73.4048 95.6693 73.3829 95.0511C73.3031 93.6547 73.1524 92.2631 72.9312 90.8818L75.5101 92.6937L88.5161 98.9346C88.0177 97.9159 87.9387 97.0804 88.0826 96.406C89.0307 97.7528 91.5468 100.759 93.7185 98.2843C95.9348 95.7819 91.7007 94.5337 90.001 94.1492Z" fill="url(#paint0_linear)"/>
<path d="M88.1493 94.1919C88.1493 94.1919 94.8529 95.3455 92.274 98.4196C89.6951 101.494 86.6016 95.9857 86.6016 95.9857L88.1493 94.1919Z" fill="#F8BDC5"/>
<path d="M65.8467 74.3354C65.8467 74.3354 69.1975 75.8735 70.3583 79.0745C71.5191 82.2755 76.8046 87.0166 78.9945 88.299C81.1845 89.5814 89.0489 94.1917 89.0489 94.1917C89.0489 94.1917 85.6981 95.4721 87.3735 99.0596L75.1271 92.9113L69.5864 88.8124L65.8467 74.3354Z" fill="#575988"/>
<path opacity="0.1" d="M65.8467 74.3354C65.8467 74.3354 69.1975 75.8735 70.3583 79.0745C71.5191 82.2755 76.8046 87.0166 78.9945 88.299C81.1845 89.5814 89.0489 94.1917 89.0489 94.1917C89.0489 94.1917 85.6981 95.4721 87.3735 99.0596L75.1271 92.9113L69.5864 88.8124L65.8467 74.3354Z" fill="black"/>
<path d="M117.852 0.497084C117.852 0.497084 103.087 -4.86206 87.3871 19.6648C87.3871 19.6648 80.7868 33.3546 66.0386 33.3002L64.4584 29.7208L61.4824 30.8824L101.392 121.477L104.402 120.516L85.6064 77.6068C91.842 77.1317 105.737 72.6704 118.411 44.8621C118.411 44.8621 129.796 23.7436 146.469 26.2399L117.852 0.497084Z" fill="url(#paint1_linear)"/>
<path d="M63.6113 33.6951L82.9563 77.1682C82.9563 77.1682 101.716 81.7181 118.328 45.271C118.328 45.271 129.47 24.6136 145.774 27.0556L117.789 1.8724C117.789 1.8724 103.345 -3.36193 87.9885 20.6234C87.9865 20.6234 80.4948 36.1754 63.6113 33.6951Z" fill="#5D76B7"/>
<path d="M88.2509 28.676L89.1909 31.2811L87.3818 33.0668L89.4908 32.8091L90.2788 35.1927L90.9028 32.487L92.8658 32.33L91.1256 30.9268L91.5288 28.374L89.9911 30.0812L88.2509 28.676Z" fill="#FFD037"/>
<path d="M92.1967 20.873L93.0334 23.3311L91.4512 25.2859L93.3332 24.8571L94.3421 27.0898L94.5933 24.3176L96.6516 23.9854L94.8668 22.8298L95.2476 20.3999L93.9815 22.0286L92.1967 20.873Z" fill="#FFD037"/>
<path d="M98.159 16.1238L99.0646 18.2095L97.5107 20.3616L99.3664 19.7375L100.272 21.8232L100.874 19.2423L103.007 18.8598L101.022 17.7304L101.698 15.0991L100.041 17.1043L98.159 16.1238Z" fill="#FFD037"/>
<path d="M104.822 15.9847L105.73 18.0704L103.846 19.9085L106.001 19.4011L106.834 21.5371L107.511 18.9059L109.694 18.5979L107.914 17.7624L108.538 15.0566L106.706 16.9672L104.822 15.9847Z" fill="#FFD037"/>
<path d="M110.362 19.8705L111.268 21.9561L109.386 23.7942L111.541 23.2869L112.374 25.4229L113.049 22.7916L115.232 22.4836L113.452 21.6481L114.078 18.9424L112.244 20.8529L110.362 19.8705Z" fill="#FFD037"/>
<path d="M113.327 25.8514L114.233 27.9371L112.351 29.7752L114.504 29.2678L115.339 31.4038L116.013 28.7726L118.197 28.4646L116.416 27.6291L117.042 24.9233L115.209 26.8339L113.327 25.8514Z" fill="#FFD037"/>
<path d="M111.899 35.3941L112.908 37.6267L111.115 40.3768L113.287 39.4245L114.217 41.3854L114.667 38.585L116.964 37.6549L114.934 36.7752L115.359 34.0996L113.976 36.0262L111.899 35.3941Z" fill="#FFD037"/>
<path d="M108.644 44.3491L109.432 46.7328L107.86 49.3298L109.959 48.4299L110.842 50.6404L111.264 47.6407L113.237 46.7187L111.456 45.8832L111.928 42.958L110.447 45.0598L108.644 44.3491Z" fill="#FFD037"/>
<path d="M102.422 49.8187L103.236 52.3996L101.336 54.6826L103.218 54.2538L104.053 56.3918L104.677 53.686L106.627 52.8868L105.092 51.7755L105.513 48.7778L104.083 50.9521L102.422 49.8187Z" fill="#FFD037"/>
<path d="M95.9949 50.7693L96.7364 53.4005L94.749 55.0916L96.7627 55.0071L97.3462 57.0988L98.1241 54.6125L100.33 54.1796L98.7156 52.7986L99.0965 50.3687L97.6561 51.9027L95.9949 50.7693Z" fill="#FFD037"/>
<path d="M90.1644 45.9976L90.9302 48.5061L88.4951 50.1791L91.0599 50.2596L91.5521 52.8466L92.5225 50.012L94.9333 49.871L93.1202 48.5182L93.8859 45.3896L91.7304 47.3062L90.1644 45.9976Z" fill="#FFD037"/>
<path d="M87.8783 37.3853L88.6441 39.8938L86.209 41.5668L88.7737 41.6453L89.266 44.2343L90.2364 41.3976L92.6472 41.2587L90.832 39.9059L91.5998 36.7773L89.4443 38.6919L87.8783 37.3853Z" fill="#FFD037"/>
<path d="M109.431 35.7769L104.974 30.8506C104.906 30.7753 104.823 30.714 104.732 30.6702C104.64 30.6265 104.54 30.6012 104.438 30.5958C104.336 30.5904 104.234 30.6049 104.138 30.6386C104.042 30.6723 103.954 30.7245 103.878 30.7922L103.519 31.1184L101.656 29.0549C101.482 28.863 101.273 28.707 101.039 28.5957C100.805 28.4844 100.551 28.42 100.292 28.4061C100.033 28.3923 99.7735 28.4293 99.5289 28.5151C99.2842 28.6008 99.059 28.7336 98.866 28.9059L96.4349 31.0741C96.2419 31.2463 96.0849 31.4547 95.9729 31.6872C95.8609 31.9197 95.7961 32.1719 95.7821 32.4293C95.7682 32.6868 95.8055 32.9444 95.8918 33.1875C95.978 33.4306 96.1117 33.6545 96.285 33.8463L98.1488 35.9098L97.7862 36.2339C97.7103 36.3016 97.6487 36.3835 97.6047 36.4748C97.5607 36.5662 97.5352 36.6653 97.5297 36.7664C97.5243 36.8676 97.5389 36.9688 97.5729 37.0643C97.6068 37.1598 97.6593 37.2477 97.7274 37.3231L102.184 42.2494C102.252 42.3248 102.335 42.3861 102.427 42.4298C102.519 42.4735 102.618 42.4988 102.72 42.5042C102.822 42.5096 102.924 42.4951 103.02 42.4614C103.116 42.4277 103.205 42.3755 103.28 42.3078L109.374 36.8721C109.451 36.8042 109.513 36.7219 109.557 36.6299C109.602 36.538 109.627 36.4382 109.633 36.3363C109.638 36.2344 109.623 36.1325 109.588 36.0365C109.553 35.9405 109.5 35.8523 109.431 35.7769ZM97.1521 33.7356C96.9787 33.5438 96.8451 33.3199 96.7588 33.0768C96.6725 32.8337 96.6353 32.576 96.6492 32.3186C96.6631 32.0612 96.728 31.809 96.84 31.5765C96.952 31.3439 97.109 31.1356 97.302 30.9634L98.6695 29.7434C98.8625 29.5711 99.0877 29.4383 99.3324 29.3526C99.577 29.2668 99.8363 29.2298 100.095 29.2436C100.354 29.2575 100.608 29.3219 100.842 29.4332C101.076 29.5445 101.286 29.7005 101.459 29.8923L102.989 31.5855L98.6816 35.4266L97.1521 33.7356ZM104.056 36.5259L104.777 37.3311C104.816 37.3733 104.845 37.4225 104.864 37.476C104.883 37.5295 104.891 37.5862 104.888 37.6428C104.885 37.6994 104.871 37.7549 104.847 37.8061C104.822 37.8573 104.787 37.9032 104.745 37.9411C104.703 37.9791 104.653 38.0083 104.599 38.0272C104.545 38.0462 104.488 38.0544 104.431 38.0514C104.374 38.0484 104.319 38.0343 104.267 38.0098C104.216 37.9854 104.169 37.9511 104.131 37.9089L103.369 37.0654C103.136 37.1215 102.889 37.0964 102.672 36.9941C102.454 36.8919 102.278 36.7186 102.174 36.5033C102.069 36.288 102.042 36.0435 102.096 35.8106C102.151 35.5777 102.284 35.3703 102.473 35.223C102.663 35.0757 102.898 34.9974 103.138 35.001C103.379 35.0047 103.611 35.0901 103.796 35.2431C103.981 35.396 104.108 35.6074 104.155 35.8418C104.202 36.0763 104.168 36.3198 104.056 36.5319V36.5259Z" fill="url(#paint2_linear)"/>
<path d="M99.0247 29.1955L96.7173 31.255C96.5339 31.4187 96.3848 31.6166 96.2785 31.8375C96.1721 32.0584 96.1106 32.2979 96.0974 32.5425C96.0842 32.787 96.1197 33.0317 96.2017 33.2627C96.2837 33.4936 96.4107 33.7062 96.5755 33.8883L98.5304 36.0525L99.0349 35.6015L97.398 33.7897C97.2333 33.6075 97.1062 33.3949 97.0242 33.164C96.9422 32.9331 96.9067 32.6884 96.9199 32.4438C96.9331 32.1993 96.9946 31.9597 97.101 31.7388C97.2073 31.5179 97.3564 31.32 97.5398 31.1564L98.8384 29.9988C99.0216 29.8351 99.2356 29.7089 99.4679 29.6274C99.7003 29.5458 99.9466 29.5106 100.193 29.5237C100.439 29.5368 100.68 29.5979 100.902 29.7036C101.124 29.8093 101.324 29.9575 101.488 30.1397L103.125 31.9516L103.629 31.5006L101.675 29.3364C101.51 29.1542 101.311 29.0061 101.088 28.9004C100.866 28.7947 100.625 28.7335 100.379 28.7204C100.133 28.7074 99.8867 28.7426 99.6543 28.8241C99.4219 28.9056 99.208 29.0318 99.0247 29.1955Z" fill="#F0F5FA"/>
<path d="M103.787 30.991L97.999 36.1509C97.8534 36.2806 97.7656 36.4625 97.755 36.6566C97.7444 36.8507 97.8117 37.041 97.9423 37.1857L102.17 41.8644C102.301 42.0091 102.484 42.0963 102.679 42.1068C102.874 42.1174 103.066 42.0505 103.212 41.9207L109.001 36.7548C109.147 36.6251 109.235 36.4432 109.245 36.2491C109.256 36.0551 109.189 35.8648 109.058 35.7201L104.836 31.0474C104.772 30.9746 104.693 30.9153 104.605 30.8729C104.517 30.8306 104.421 30.8061 104.323 30.8009C104.226 30.7956 104.128 30.8097 104.036 30.8424C103.944 30.875 103.859 30.9256 103.787 30.991ZM103.951 36.4368L104.636 37.1957C104.672 37.2354 104.7 37.2817 104.718 37.3321C104.736 37.3825 104.744 37.436 104.742 37.4895C104.739 37.5429 104.726 37.5954 104.703 37.6438C104.68 37.6921 104.647 37.7356 104.607 37.7715C104.567 37.8075 104.521 37.8353 104.47 37.8533C104.419 37.8713 104.366 37.8793 104.312 37.8767C104.258 37.8741 104.205 37.8609 104.157 37.8381C104.108 37.8152 104.064 37.783 104.028 37.7433L103.305 36.938C103.082 36.9912 102.848 36.9671 102.642 36.8697C102.435 36.7724 102.268 36.6076 102.169 36.4029C102.07 36.1982 102.044 35.9659 102.096 35.7446C102.148 35.5233 102.275 35.3265 102.455 35.1867C102.636 35.047 102.859 34.9729 103.087 34.9767C103.316 34.9806 103.536 35.0621 103.712 35.2077C103.888 35.3534 104.008 35.5543 104.052 35.7772C104.097 36.0001 104.063 36.2314 103.957 36.4327L103.951 36.4368Z" fill="#F0F5FA"/>
<path d="M62.6416 31.5974L101.54 119.886L104.484 118.946L65.5588 30.46L62.6416 31.5974Z" fill="#F0F5FA"/>
<path d="M81.7031 78.0499C81.7031 78.0499 83.2509 71.7727 86.0871 73.5665C88.9233 75.3603 84.7986 78.8189 84.7986 78.8189L83.6378 80.2282L81.7031 78.0499Z" fill="#F8BDC5"/>
<path d="M66.1827 72.3062L67.6514 73.5664L68.2714 76.0668L67.2645 75.487V73.5664L66.1807 73.4376L66.1827 72.3062Z" fill="#DEDFF7"/>
<path opacity="0.1" d="M66.1827 72.3062L67.6514 73.5664L68.2714 76.0668L67.2645 75.487V73.5664L66.1807 73.4376L66.1827 72.3062Z" fill="black"/>
<path d="M70.5527 97.6504L71.4097 108.669L73.9724 108.155C73.9724 108.155 73.4031 99.1885 72.2646 97.6504C71.1261 96.1123 70.5527 97.6504 70.5527 97.6504Z" fill="#575988"/>
<path opacity="0.1" d="M70.5527 97.6504L71.4097 108.669L73.9724 108.155C73.9724 108.155 73.4031 99.1885 72.2646 97.6504C71.1261 96.1123 70.5527 97.6504 70.5527 97.6504Z" fill="black"/>
<path d="M64.2987 162.858L60.1741 163.498L57.8545 161.705L56.1791 156.452V154.528C56.1824 154.297 56.1668 154.067 56.1325 153.839C56.0089 152.798 55.5794 150.35 54.1066 145.047C52.7473 140.121 53.4199 136.429 54.1289 134.333C54.3459 133.646 54.6409 132.987 55.0081 132.366H60.5509C60.5509 132.366 60.5205 133.894 60.4172 135.66C60.3058 137.546 60.1113 139.706 59.777 140.566C59.2827 141.842 59.621 147.626 59.8074 150.266C59.868 151.126 60.0375 151.976 60.3118 152.794C60.6663 153.884 60.9033 155.008 61.0189 156.148C61.2214 158.01 62.6173 160.376 63.5168 161.747C63.9746 162.427 64.2987 162.858 64.2987 162.858Z" fill="#F8BDC5"/>
<path d="M83.8947 162.983L82.0897 163.497L78.6093 162.087L74.2253 157.477V154.916C74.2059 154.619 74.1591 154.324 74.0855 154.034C73.3744 151.079 70.2364 146.078 70.2364 146.078C67.9168 140.57 69.0756 136.727 69.0756 136.727V132.753C69.0756 132.753 75.1349 130.703 75.3922 131.472C75.536 131.903 75.3557 133.186 75.1714 134.225C75.0255 135.03 74.8776 135.698 74.8776 135.698L77.7138 150.815L78.9192 153.634C79.2354 154.368 79.4691 155.135 79.6161 155.921C80.0355 158.198 81.6703 160.451 82.7947 161.777C83.4227 162.532 83.8947 162.983 83.8947 162.983Z" fill="#F8BDC5"/>
<path opacity="0.1" d="M64.2991 162.858L60.1744 163.498L57.8548 161.704L56.1794 156.452V154.527C56.1827 154.297 56.1671 154.067 56.1328 153.839C56.1887 153.806 56.2477 153.779 56.3091 153.758C56.3091 153.758 56.8257 155.681 56.5664 156.577C56.3638 157.291 58.1202 159.961 58.8434 161.006C59.2007 161.543 59.7208 161.953 60.3284 162.178C61.7363 162.673 63.0876 162.004 63.5292 161.747C63.9749 162.427 64.2991 162.858 64.2991 162.858Z" fill="black"/>
<path d="M63.5513 161.775C63.5513 161.775 61.9184 162.906 60.1985 162.3C59.592 162.079 59.072 161.671 58.7135 161.137C57.9903 160.084 56.2298 157.414 56.4365 156.708C56.6938 155.812 56.1792 153.889 56.1792 153.889C56.1792 153.889 55.5248 154.09 55.065 155.053C54.7954 155.633 54.6964 156.277 54.7796 156.91C54.8628 157.543 55.1247 158.141 55.535 158.632V163.496H56.1792V159.401C56.7481 160.105 57.2329 160.872 57.6236 161.686C57.9755 162.441 58.5123 163.095 59.1849 163.59C59.8574 164.084 60.644 164.403 61.4728 164.517C63.1319 164.75 64.9633 164.837 65.727 164.267C65.7169 164.267 66.2842 163.146 63.5513 161.775Z" fill="#575988"/>
<path opacity="0.1" d="M83.8951 162.983L82.0901 163.496L78.6097 162.087L74.2257 157.477V154.916C74.2063 154.618 74.1595 154.323 74.0859 154.034C74.1321 154.026 74.1788 154.021 74.2257 154.02C74.2257 154.686 75.3683 156.273 76.1705 157.302C76.5886 157.842 76.9788 158.403 77.3395 158.983C79.0088 161.656 81.8997 161.801 82.789 161.785C83.4231 162.532 83.8951 162.983 83.8951 162.983Z" fill="black"/>
<path d="M74.225 154.274C74.225 154.274 71.7757 154.274 72.5496 158.886L72.422 164.268H73.0662L73.1959 159.528C73.1959 159.528 73.8401 158.375 76.0321 160.809C76.3643 161.178 76.6648 161.52 76.9336 161.836C77.6998 162.735 78.6616 163.45 79.7463 163.926C80.8311 164.402 82.0105 164.627 83.1955 164.584C84.6014 164.531 85.9486 164.382 86.4754 164.012C86.4754 164.012 87.7638 162.987 84.5407 162.474L83.0577 162.025C83.0577 162.025 79.3322 162.427 77.3408 159.236C76.9799 158.654 76.5891 158.09 76.1698 157.547C75.3696 156.527 74.225 154.94 74.225 154.274Z" fill="#575988"/>
<path opacity="0.1" d="M55.0176 132.368H60.5604C60.5604 132.368 60.53 133.896 60.4266 135.662C58.3002 135.391 56.1998 134.947 54.1465 134.335C54.3609 133.649 54.6532 132.989 55.0176 132.368Z" fill="black"/>
<path opacity="0.1" d="M75.1632 134.225C73.201 134.973 71.1537 135.478 69.0674 135.73V132.753C69.0674 132.753 75.1267 130.703 75.384 131.472C75.5299 131.903 75.3496 133.188 75.1632 134.225Z" fill="black"/>
<path d="M75.6432 133.777C65.0723 138.134 53.2129 133.777 53.2129 133.777C53.2129 133.777 56.5637 129.934 55.0179 117.38C54.4102 112.401 54.5196 109.357 54.8842 107.495C55.4373 104.662 56.5637 104.57 56.5637 104.57L71.7758 102.776C71.6401 103.289 71.632 104.155 71.707 105.232C72.0696 110.333 74.3527 120.198 74.3527 120.198C78.2221 131.857 75.6432 133.777 75.6432 133.777Z" fill="#575988"/>
<path d="M67.5215 65.1113C67.1285 65.6971 66.8915 66.8929 66.7497 68.27C66.4316 71.4065 66.618 75.4873 66.618 75.4873C66.618 75.4873 58.7536 79.715 60.5587 74.2069C61.6029 70.804 61.2805 67.1315 59.6592 63.9597C59.6592 63.9597 68.812 63.1907 67.5215 65.1113Z" fill="#F8BDC5"/>
<path opacity="0.1" d="M67.5215 65.1111C67.1285 65.6969 66.8915 66.8927 66.7497 68.2698C65.781 68.6621 64.7236 68.7869 63.6894 68.631C62.6552 68.4751 61.6827 68.0442 60.8747 67.384C60.6312 66.1926 60.2221 65.0408 59.6592 63.9615C59.6592 63.9615 68.812 63.1905 67.5215 65.1111Z" fill="black"/>
<path d="M64.556 68.4428C67.7604 68.4428 70.358 65.8613 70.358 62.6769C70.358 59.4926 67.7604 56.9111 64.556 56.9111C61.3516 56.9111 58.7539 59.4926 58.7539 62.6769C58.7539 65.8613 61.3516 68.4428 64.556 68.4428Z" fill="#F8BDC5"/>
<path opacity="0.1" d="M71.7074 105.232C71.0004 107.161 70.3582 108.669 70.3582 108.669C70.3582 108.669 64.2989 103.543 59.6596 105.979C57.4697 107.126 55.7984 107.62 54.8867 107.495C55.4398 104.662 56.5662 104.57 56.5662 104.57L71.7783 102.776C71.6406 103.289 71.6325 104.153 71.7074 105.232Z" fill="black"/>
<path d="M70.3588 108.155C70.3588 108.155 64.2995 103.032 59.6603 105.466C55.021 107.899 52.6994 107.388 55.019 104.312C57.3386 101.236 60.4341 94.7029 58.1125 89.835C55.7909 84.9671 54.8894 77.2807 56.6944 75.2312C58.4994 73.1818 60.1748 70.8746 60.1748 70.3633C60.1748 70.3633 66.7487 75.1024 68.0392 77.025C68.4099 77.5766 69.0157 78.9858 69.6883 80.7152C70.0509 81.6493 70.4358 82.676 70.8146 83.7108C71.4069 85.334 71.8875 86.9954 72.253 88.6834C72.7161 90.8383 73.0081 93.026 73.1261 95.2264C73.1469 95.8337 73.2575 96.4347 73.4543 97.0101C74.2262 99.0595 70.3588 108.155 70.3588 108.155Z" fill="#575988"/>
<path d="M67.6519 73.6952L67.5 76.3688L60.057 70.7318C60.057 70.7318 59.9152 69.6004 61.8499 70.7519C63.7846 71.9035 67.6519 73.6952 67.6519 73.6952Z" fill="#DEDFF7"/>
<path opacity="0.1" d="M72.2505 88.6834C65.4416 88.8082 57.7251 81.2526 57.7251 81.2526C55.0185 74.0796 64.1714 75.6157 64.1714 75.6157C64.1714 75.6157 64.925 77.5443 69.6878 80.7151C70.0504 81.6492 70.4353 82.676 70.8142 83.7108C71.4058 85.334 71.8857 86.9954 72.2505 88.6834Z" fill="black"/>
<path d="M57.7251 80.357C57.7251 80.357 66.491 88.9393 73.5815 87.6589C73.5815 87.6589 81.9605 85.6095 85.3133 80.9972C85.3133 80.9972 83.1213 79.0746 81.7032 77.2829C81.7032 77.2829 77.1916 84.4559 71.1322 80.7415C65.0729 77.0272 64.1714 74.72 64.1714 74.72C64.1714 74.72 55.0185 73.182 57.7251 80.357Z" fill="#575988"/>
<path opacity="0.1" d="M66.8072 53.8937C65.3364 53.4789 63.7299 53.2897 62.2997 53.8192C59.9335 54.707 58.4728 55.7297 56.6273 57.455C55.1727 58.818 53.5723 61.1935 51.8604 62.2163C50.1486 63.239 48.4752 64.5717 47.8087 66.444C46.8707 69.0813 48.1551 71.9139 48.7365 74.6498C49.3843 77.7288 49.1312 80.9277 48.0072 83.8683C46.8809 86.7955 44.8692 89.6582 45.3736 92.7546C45.9024 96.0663 49.2471 98.313 52.5715 98.8787C54.8364 99.2653 57.2877 99.0277 59.2123 97.7835C59.7549 97.4573 60.2128 97.0091 60.5493 96.475C61.3698 95.0657 60.8309 93.2921 60.3245 91.7419C59.2872 88.5671 58.4688 85.3258 57.6483 82.0886C57.1702 80.1982 56.6961 78.1709 57.3728 76.3409C58.0332 74.5552 59.6802 73.305 61.4022 72.4715C62.0768 72.1454 62.796 71.8514 63.3025 71.3039C63.581 70.9913 63.7963 70.6284 63.9366 70.2348C64.8036 67.9378 63.8312 64.9743 65.5046 63.1685C66.3554 62.2505 67.6662 61.9324 68.7156 61.2459C70.0405 60.3782 71.3492 58.3288 71.1 56.6658C70.8285 54.9144 68.3286 54.3225 66.8072 53.8937Z" fill="black"/>
<path d="M66.5475 53.7648C65.0767 53.35 63.4702 53.1608 62.0399 53.6903C59.6737 54.5781 58.2131 55.6008 56.3675 57.3261C54.9129 58.6891 53.3125 61.0646 51.6007 62.0873C49.8888 63.1101 48.2154 64.4428 47.5489 66.3151C46.611 68.9524 47.8954 71.785 48.4768 74.5209C49.1245 77.5999 48.8714 80.7988 47.7475 83.7394C46.6211 86.6666 44.6094 89.5293 45.1139 92.6256C45.6426 95.9374 48.9873 98.1841 52.3117 98.7498C54.5767 99.1363 57.0279 98.8988 58.9525 97.6546C59.4951 97.3284 59.9531 96.8802 60.2896 96.346C61.11 94.9368 60.5712 93.1632 60.0647 91.613C59.0275 88.4382 58.209 85.1969 57.3885 81.9597C56.9104 80.0693 56.4364 78.042 57.113 76.212C57.7735 74.4263 59.4205 73.1761 61.1425 72.3426C61.8171 72.0165 62.5363 71.7225 63.0427 71.175C63.3213 70.8624 63.5366 70.4995 63.6768 70.1059C64.5439 67.8089 63.5715 64.8454 65.2448 63.0396C66.0957 62.1216 67.4064 61.8035 68.4558 61.117C69.7807 60.2493 71.0894 58.1999 70.8403 56.5369C70.5708 54.7875 68.0709 54.1936 66.5475 53.7648Z" fill="#EB6475"/>
<path d="M22.8269 137.083C22.8269 137.083 20.1406 128.023 23.3314 121.352C24.6871 118.563 25.0958 115.412 24.4962 112.373C24.2005 110.932 23.7726 109.522 23.2179 108.159" stroke="#535461" stroke-width="2" stroke-miterlimit="10"/>
<path d="M25.2002 103.944C25.2002 105.055 23.1743 108.274 23.1743 108.274C23.1743 108.274 21.1484 105.053 21.1484 103.944C21.1484 103.41 21.3619 102.898 21.7418 102.52C22.1217 102.143 22.637 101.931 23.1743 101.931C23.7116 101.931 24.2269 102.143 24.6068 102.52C24.9867 102.898 25.2002 103.41 25.2002 103.944Z" fill="#6C63FF"/>
<path d="M28.5445 110.094C27.9367 111.026 24.4766 112.637 24.4766 112.637C24.4766 112.637 24.5394 108.84 25.1471 107.908C25.4501 107.486 25.905 107.197 26.4171 107.1C26.9293 107.003 27.4593 107.106 27.8969 107.388C28.3345 107.669 28.646 108.108 28.7666 108.612C28.8872 109.116 28.8077 109.647 28.5445 110.094Z" fill="#6C63FF"/>
<path d="M28.398 120.607C27.3993 121.106 23.5947 120.762 23.5947 120.762C23.5947 120.762 25.578 117.517 26.5748 117.017C27.0507 116.804 27.5913 116.781 28.0837 116.954C28.5762 117.127 28.9824 117.482 29.2176 117.945C29.4529 118.409 29.4989 118.944 29.3462 119.441C29.1935 119.937 28.8538 120.356 28.398 120.609V120.607Z" fill="#6C63FF"/>
<path d="M26.4864 128.537C25.5869 129.197 21.7783 129.495 21.7783 129.495C21.7783 129.495 23.1802 125.964 24.0797 125.304C24.5125 125.017 25.0398 124.906 25.5523 124.995C26.0648 125.084 26.5233 125.366 26.8327 125.781C27.1421 126.197 27.2787 126.715 27.2143 127.228C27.1498 127.741 26.8892 128.21 26.4864 128.537Z" fill="#6C63FF"/>
<path d="M20.2306 112.854C21.0409 113.627 24.7665 114.431 24.7665 114.431C24.7665 114.431 23.8528 110.744 23.0506 109.971C22.8639 109.77 22.6379 109.609 22.3865 109.498C22.135 109.387 21.8634 109.327 21.5881 109.324C21.3129 109.32 21.0398 109.373 20.7855 109.477C20.5313 109.582 20.3012 109.738 20.1093 109.934C19.9175 110.13 19.7678 110.363 19.6696 110.618C19.5713 110.874 19.5265 111.147 19.5379 111.42C19.5492 111.693 19.6165 111.961 19.7356 112.208C19.8547 112.455 20.0231 112.675 20.2306 112.854Z" fill="#6C63FF"/>
<path d="M18.1107 122.153C19.1094 122.652 22.914 122.308 22.914 122.308C22.914 122.308 20.9307 119.063 19.9339 118.563C19.6954 118.431 19.4323 118.347 19.1605 118.319C18.8887 118.29 18.6138 118.316 18.3524 118.395C18.091 118.475 17.8485 118.606 17.6395 118.781C17.4304 118.956 17.2592 119.171 17.1361 119.414C17.013 119.656 16.9405 119.921 16.9231 120.192C16.9056 120.463 16.9436 120.735 17.0346 120.991C17.1257 121.247 17.268 121.482 17.4529 121.682C17.6378 121.882 17.8616 122.043 18.1107 122.155V122.153Z" fill="#6C63FF"/>
<path d="M17.2991 131.474C18.1986 132.134 22.0072 132.432 22.0072 132.432C22.0072 132.432 20.6053 128.901 19.7059 128.241C19.2731 127.954 18.7458 127.843 18.2332 127.932C17.7207 128.021 17.2623 128.303 16.9528 128.718C16.6434 129.134 16.5068 129.652 16.5713 130.165C16.6358 130.678 16.8964 131.147 17.2991 131.474Z" fill="#6C63FF"/>
<path d="M97.4745 162.931C97.8458 162.63 98.1164 162.224 98.2504 161.767C98.3517 161.304 98.1532 160.75 97.7075 160.581C97.2092 160.392 96.6764 160.734 96.2732 161.082C95.8701 161.431 95.4061 161.825 94.8774 161.751C95.1492 161.506 95.3525 161.195 95.4675 160.849C95.5825 160.503 95.6054 160.133 95.5338 159.776C95.5109 159.628 95.4479 159.489 95.3514 159.373C95.0739 159.079 94.5735 159.206 94.2413 159.438C93.1878 160.175 92.8941 161.596 92.888 162.876C92.7827 162.415 92.8718 161.934 92.8677 161.467C92.8637 161 92.734 160.46 92.3329 160.215C92.0842 160.082 91.8049 160.016 91.5226 160.024C91.0485 160.005 90.5218 160.054 90.1977 160.398C89.7925 160.825 89.8999 161.544 90.2503 162.009C90.6008 162.474 91.1316 162.774 91.6219 163.1C92.0148 163.332 92.3499 163.649 92.6024 164.028C92.632 164.08 92.6565 164.136 92.6753 164.193H95.6432C96.3081 163.856 96.9242 163.432 97.4745 162.931Z" fill="#6C63FF"/>
<path d="M137.327 86.2539C137.327 86.2539 128.851 94.6771 133.636 107.175C138.421 119.673 125.434 140.457 125.434 140.457C125.434 140.457 125.573 140.437 125.839 140.393C143.247 137.339 151.895 117.555 142.216 102.857C138.61 97.391 135.656 90.9809 137.327 86.2539Z" fill="#6C63FF"/>
<path opacity="0.1" d="M137.327 86.3926C137.327 86.3926 128.851 94.8158 133.636 107.314C138.421 119.812 125.434 140.596 125.434 140.596C125.434 140.596 125.573 140.576 125.839 140.532C143.239 137.478 151.887 117.686 142.208 102.989C138.61 97.5316 135.656 91.1115 137.327 86.3926Z" fill="black"/>
<path d="M137.327 86.2539C137.327 86.2539 132.542 96.5776 137.327 105.001C142.113 113.424 138.138 137.061 125.434 140.457" stroke="#535461" stroke-miterlimit="10"/>
<path d="M152.422 120.319C152.422 120.319 142.75 118.789 141.869 127.401C140.988 136.014 123.271 137.214 123.271 137.214L123.604 137.433C138.23 146.976 152.215 143.511 150.106 130.84C149.324 126.127 149.387 121.396 152.422 120.319Z" fill="#6C63FF"/>
<path d="M152.422 120.319C152.422 120.319 144.914 121.956 145.534 128.741C146.154 135.525 134.383 143.656 123.271 137.214" stroke="#535461" stroke-miterlimit="10"/>
<path d="M143.913 137.524C143.913 137.524 136.296 136.006 134.264 133.993C132.232 131.98 123.091 128.443 122.076 130.973C121.061 133.504 108.365 142.066 116.991 143.58C125.617 145.094 137.305 145.593 139.843 144.587C142.381 143.58 143.913 137.524 143.913 137.524Z" fill="#A8A8A8"/>
<path opacity="0.2" d="M116.992 142.65C125.626 144.163 137.305 144.663 139.844 143.656C141.778 142.887 143.121 139.195 143.652 137.476L143.905 137.528C143.905 137.528 142.382 143.584 139.844 144.592C137.305 145.601 125.624 145.098 116.992 143.586C114.5 143.149 113.787 142.122 114.056 140.824C114.275 141.665 115.144 142.317 116.992 142.65Z" fill="black"/>
<path d="M16.7842 136.57C16.7842 136.57 21.3241 136.431 22.6916 135.462C24.059 134.494 29.6747 133.339 30.013 134.891C30.3514 136.443 36.8341 142.613 31.7026 142.65C26.5711 142.686 19.7946 141.856 18.4292 141.039C17.0637 140.222 16.7842 136.57 16.7842 136.57Z" fill="#A8A8A8"/>
<path opacity="0.2" d="M31.7999 142.114C26.6745 142.154 19.8919 141.321 18.5265 140.503C17.4872 139.873 17.0719 137.617 16.9342 136.574H16.7822C16.7822 136.574 17.0699 140.212 18.4353 141.039C19.8008 141.866 26.5833 142.7 31.7088 142.65C33.1876 142.637 33.6981 142.114 33.6718 141.341C33.4652 141.812 32.902 142.104 31.7999 142.114Z" fill="black"/>
</g>
<defs>
<linearGradient id="paint0_linear" x1="68.9503" y1="165.499" x2="68.9503" y2="52.6208" gradientUnits="userSpaceOnUse">
<stop stop-color="#808080" stop-opacity="0.25"/>
<stop offset="0.54" stop-color="#808080" stop-opacity="0.12"/>
<stop offset="1" stop-color="#808080" stop-opacity="0.1"/>
</linearGradient>
<linearGradient id="paint1_linear" x1="82271" y1="9901.92" x2="48713" y2="-38921.2" gradientUnits="userSpaceOnUse">
<stop stop-color="#808080" stop-opacity="0.25"/>
<stop offset="0.54" stop-color="#808080" stop-opacity="0.12"/>
<stop offset="1" stop-color="#808080" stop-opacity="0.1"/>
</linearGradient>
<linearGradient id="paint2_linear" x1="9673.17" y1="-4358.61" x2="9134.97" y2="-5141.62" gradientUnits="userSpaceOnUse">
<stop stop-color="#808080" stop-opacity="0.25"/>
<stop offset="0.54" stop-color="#808080" stop-opacity="0.12"/>
<stop offset="1" stop-color="#808080" stop-opacity="0.1"/>
</linearGradient>
<clipPath id="clip0">
<rect width="204" height="179" fill="white"/>
</clipPath>
</defs>
</svg>
