<svg width="291" height="220" viewBox="0 0 291 220" fill="none" xmlns="http://www.w3.org/2000/svg">
<g clip-path="url(#clip0)">
<path d="M140.79 194.025C78.1557 189.291 3.4617 141.083 7.26448 91.4459C11.0673 41.8086 83.4092 -4.39968 146.043 0.334959C208.677 5.0696 244.732 97.8335 240.929 147.471C237.126 197.108 203.424 198.76 140.79 194.025Z" fill="#F2F2F2"/>
<path d="M146.042 201.998C218.251 201.998 276.788 198.436 276.788 194.041C276.788 189.647 218.251 186.084 146.042 186.084C73.8322 186.084 15.2949 189.647 15.2949 194.041C15.2949 198.436 73.8322 201.998 146.042 201.998Z" fill="#3F3D56"/>
<path opacity="0.1" d="M146.042 199.175C207.548 199.175 257.409 196.819 257.409 193.913C257.409 191.007 207.548 188.651 146.042 188.651C84.5356 188.651 34.6748 191.007 34.6748 193.913C34.6748 196.819 84.5356 199.175 146.042 199.175Z" fill="black"/>
<path d="M54.8292 219.451C85.1106 219.451 109.658 217.325 109.658 214.703C109.658 212.08 85.1106 209.955 54.8292 209.955C24.5479 209.955 0 212.08 0 214.703C0 217.325 24.5479 219.451 54.8292 219.451Z" fill="#3F3D56"/>
<path opacity="0.1" d="M54.8293 217.766C80.6223 217.766 101.532 216.361 101.532 214.626C101.532 212.892 80.6223 211.486 54.8293 211.486C29.0363 211.486 8.12695 212.892 8.12695 214.626C8.12695 216.361 29.0363 217.766 54.8293 217.766Z" fill="black"/>
<path d="M245.006 41.5801H50.6953V193.014H245.006V41.5801Z" fill="#3F3D56"/>
<path d="M145.64 62.2754H97.7041C97.6276 62.2755 97.5518 62.2607 97.4811 62.2317C97.4103 62.2028 97.3461 62.1602 97.2919 62.1066C97.2378 62.0529 97.1948 61.9891 97.1655 61.9189C97.1362 61.8487 97.1211 61.7735 97.1211 61.6975C97.1211 61.6215 97.1362 61.5463 97.1655 61.4761C97.1948 61.4059 97.2378 61.3421 97.2919 61.2885C97.3461 61.2348 97.4103 61.1922 97.4811 61.1633C97.5518 61.1343 97.6276 61.1195 97.7041 61.1196H145.64C145.795 61.12 145.942 61.181 146.051 61.2893C146.16 61.3977 146.221 61.5445 146.221 61.6975C146.221 61.8506 146.16 61.9974 146.051 62.1057C145.942 62.214 145.795 62.2751 145.64 62.2754Z" fill="#F2F2F2"/>
<path d="M198.115 68.6318H122.719C122.565 68.6318 122.417 68.5709 122.308 68.4626C122.199 68.3542 122.138 68.2072 122.138 68.0539C122.138 67.9007 122.199 67.7537 122.308 67.6453C122.417 67.537 122.565 67.4761 122.719 67.4761H198.115C198.191 67.4761 198.267 67.491 198.337 67.5201C198.408 67.5491 198.472 67.5917 198.526 67.6453C198.58 67.699 198.623 67.7627 198.652 67.8328C198.681 67.9029 198.696 67.9781 198.696 68.0539C198.696 68.1298 198.681 68.205 198.652 68.2751C198.623 68.3452 198.58 68.4089 198.526 68.4626C198.472 68.5162 198.408 68.5588 198.337 68.5878C198.267 68.6169 198.191 68.6318 198.115 68.6318Z" fill="#F2F2F2"/>
<path d="M145.873 74.9883H97.9362C97.782 74.9883 97.634 74.9274 97.5249 74.819C97.4158 74.7106 97.3545 74.5637 97.3545 74.4104C97.3545 74.2571 97.4158 74.1101 97.5249 74.0018C97.634 73.8934 97.782 73.8325 97.9362 73.8325H145.873C146.027 73.8325 146.175 73.8934 146.284 74.0018C146.393 74.1101 146.454 74.2571 146.454 74.4104C146.454 74.5637 146.393 74.7106 146.284 74.819C146.175 74.9274 146.027 74.9883 145.873 74.9883Z" fill="#F2F2F2"/>
<path d="M198.115 75.104H150.178C150.024 75.104 149.876 75.0431 149.767 74.9347C149.658 74.8264 149.597 74.6794 149.597 74.5261C149.597 74.3729 149.658 74.2259 149.767 74.1175C149.876 74.0091 150.024 73.9482 150.178 73.9482H198.115C198.269 73.9482 198.417 74.0091 198.526 74.1175C198.635 74.2259 198.697 74.3729 198.697 74.5261C198.697 74.6794 198.635 74.8264 198.526 74.9347C198.417 75.0431 198.269 75.104 198.115 75.104Z" fill="#F2F2F2"/>
<path d="M145.988 81.3452H98.0515C97.8972 81.3452 97.7492 81.2843 97.6401 81.176C97.531 81.0676 97.4697 80.9206 97.4697 80.7673C97.4697 80.6141 97.531 80.4671 97.6401 80.3587C97.7492 80.2503 97.8972 80.1895 98.0515 80.1895H145.988C146.142 80.1895 146.29 80.2503 146.399 80.3587C146.508 80.4671 146.57 80.6141 146.57 80.7673C146.57 80.9206 146.508 81.0676 146.399 81.176C146.29 81.2843 146.142 81.3452 145.988 81.3452Z" fill="#F2F2F2"/>
<path d="M146.106 87.7011H98.1696C98.0154 87.7011 97.8674 87.6403 97.7583 87.5319C97.6492 87.4235 97.5879 87.2765 97.5879 87.1233C97.5879 86.97 97.6492 86.823 97.7583 86.7147C97.8674 86.6063 98.0154 86.5454 98.1696 86.5454H146.106C146.26 86.5454 146.408 86.6063 146.517 86.7147C146.626 86.823 146.688 86.97 146.688 87.1233C146.688 87.2765 146.626 87.4235 146.517 87.5319C146.408 87.6403 146.26 87.7011 146.106 87.7011Z" fill="#F2F2F2"/>
<path d="M167.863 62.3906H154.134C153.979 62.3906 153.831 62.3297 153.722 62.2213C153.613 62.113 153.552 61.966 153.552 61.8127C153.552 61.6595 153.613 61.5125 153.722 61.4041C153.831 61.2957 153.979 61.2349 154.134 61.2349H167.863C168.017 61.2349 168.165 61.2957 168.274 61.4041C168.383 61.5125 168.445 61.6595 168.445 61.8127C168.445 61.966 168.383 62.113 168.274 62.2213C168.165 62.3297 168.017 62.3906 167.863 62.3906Z" fill="#F2F2F2"/>
<path d="M167.863 81.3452H154.134C153.979 81.3452 153.831 81.2843 153.722 81.176C153.613 81.0676 153.552 80.9206 153.552 80.7673C153.552 80.6141 153.613 80.4671 153.722 80.3587C153.831 80.2503 153.979 80.1895 154.134 80.1895H167.863C168.017 80.1895 168.165 80.2503 168.274 80.3587C168.383 80.4671 168.445 80.6141 168.445 80.7673C168.445 80.9206 168.383 81.0676 168.274 81.176C168.165 81.2843 168.017 81.3452 167.863 81.3452Z" fill="#F2F2F2"/>
<path d="M167.863 87.5859H154.134C154.057 87.5861 153.981 87.5713 153.911 87.5423C153.84 87.5133 153.776 87.4708 153.722 87.4171C153.667 87.3634 153.625 87.2997 153.595 87.2295C153.566 87.1593 153.551 87.084 153.551 87.0081C153.551 86.9321 153.566 86.8568 153.595 86.7866C153.625 86.7164 153.667 86.6527 153.722 86.599C153.776 86.5453 153.84 86.5028 153.911 86.4738C153.981 86.4448 154.057 86.43 154.134 86.4302H167.863C167.94 86.43 168.015 86.4448 168.086 86.4738C168.157 86.5028 168.221 86.5453 168.275 86.599C168.329 86.6527 168.372 86.7164 168.402 86.7866C168.431 86.8568 168.446 86.9321 168.446 87.0081C168.446 87.084 168.431 87.1593 168.402 87.2295C168.372 87.2997 168.329 87.3634 168.275 87.4171C168.221 87.4708 168.157 87.5133 168.086 87.5423C168.015 87.5713 167.94 87.5861 167.863 87.5859Z" fill="#F2F2F2"/>
<path d="M190.901 87.5859H177.171C177.017 87.5856 176.87 87.5246 176.761 87.4162C176.652 87.3079 176.591 87.1611 176.591 87.0081C176.591 86.855 176.652 86.7082 176.761 86.5999C176.87 86.4915 177.017 86.4305 177.171 86.4302H190.901C190.977 86.43 191.053 86.4448 191.124 86.4738C191.194 86.5028 191.259 86.5453 191.313 86.599C191.367 86.6527 191.41 86.7164 191.439 86.7866C191.469 86.8568 191.484 86.9321 191.484 87.0081C191.484 87.084 191.469 87.1593 191.439 87.2295C191.41 87.2997 191.367 87.3634 191.313 87.4171C191.259 87.4708 191.194 87.5133 191.124 87.5423C191.053 87.5713 190.977 87.5861 190.901 87.5859Z" fill="#F2F2F2"/>
<path d="M111.317 68.6318H97.5876C97.4333 68.6318 97.2853 68.5709 97.1762 68.4626C97.0671 68.3542 97.0059 68.2072 97.0059 68.0539C97.0059 67.9007 97.0671 67.7537 97.1762 67.6453C97.2853 67.537 97.4333 67.4761 97.5876 67.4761H111.317C111.471 67.4761 111.619 67.537 111.728 67.6453C111.837 67.7537 111.899 67.9007 111.899 68.0539C111.899 68.2072 111.837 68.3542 111.728 68.4626C111.619 68.5709 111.471 68.6318 111.317 68.6318Z" fill="#F2F2F2"/>
<path d="M145.699 155.89H97.7624C97.6081 155.89 97.4602 155.829 97.3511 155.721C97.242 155.612 97.1807 155.466 97.1807 155.312C97.1807 155.159 97.242 155.012 97.3511 154.904C97.4602 154.795 97.6081 154.734 97.7624 154.734H145.699C145.853 154.734 146.001 154.795 146.11 154.904C146.219 155.012 146.281 155.159 146.281 155.312C146.281 155.466 146.219 155.612 146.11 155.721C146.001 155.829 145.853 155.89 145.699 155.89Z" fill="#F2F2F2"/>
<path d="M145.465 168.604H97.529C97.3747 168.604 97.2268 168.543 97.1177 168.434C97.0086 168.326 96.9473 168.179 96.9473 168.026C96.9473 167.872 97.0086 167.725 97.1177 167.617C97.2268 167.509 97.3747 167.448 97.529 167.448H145.465C145.62 167.448 145.768 167.509 145.877 167.617C145.986 167.725 146.047 167.872 146.047 168.026C146.047 168.179 145.986 168.326 145.877 168.434C145.768 168.543 145.62 168.604 145.465 168.604Z" fill="#F2F2F2"/>
<path d="M145.582 174.96H97.6455C97.569 174.96 97.4932 174.945 97.4225 174.916C97.3518 174.887 97.2875 174.845 97.2333 174.791C97.1792 174.737 97.1362 174.674 97.1069 174.604C97.0776 174.533 97.0625 174.458 97.0625 174.382C97.0625 174.306 97.0776 174.231 97.1069 174.161C97.1362 174.09 97.1792 174.027 97.2333 173.973C97.2875 173.919 97.3518 173.877 97.4225 173.848C97.4932 173.819 97.569 173.804 97.6455 173.804H145.582C145.658 173.804 145.734 173.819 145.805 173.848C145.876 173.877 145.94 173.919 145.994 173.973C146.048 174.027 146.091 174.09 146.12 174.161C146.15 174.231 146.165 174.306 146.165 174.382C146.165 174.458 146.15 174.533 146.12 174.604C146.091 174.674 146.048 174.737 145.994 174.791C145.94 174.845 145.876 174.887 145.805 174.916C145.734 174.945 145.658 174.96 145.582 174.96Z" fill="#F2F2F2"/>
<path d="M166.06 168.719H152.331C152.176 168.719 152.029 168.658 151.919 168.55C151.81 168.442 151.749 168.295 151.749 168.141C151.749 167.988 151.81 167.841 151.919 167.733C152.029 167.624 152.176 167.563 152.331 167.563H166.06C166.214 167.563 166.362 167.624 166.472 167.733C166.581 167.841 166.642 167.988 166.642 168.141C166.642 168.295 166.581 168.442 166.472 168.55C166.362 168.658 166.214 168.719 166.06 168.719Z" fill="#F2F2F2"/>
<path d="M166.06 174.96H152.331C152.176 174.96 152.029 174.899 151.919 174.791C151.81 174.682 151.749 174.535 151.749 174.382C151.749 174.229 151.81 174.082 151.919 173.973C152.029 173.865 152.176 173.804 152.331 173.804H166.06C166.214 173.804 166.362 173.865 166.472 173.973C166.581 174.082 166.642 174.229 166.642 174.382C166.642 174.535 166.581 174.682 166.472 174.791C166.362 174.899 166.214 174.96 166.06 174.96Z" fill="#F2F2F2"/>
<path d="M189.096 168.719H175.367C175.213 168.719 175.065 168.658 174.956 168.55C174.846 168.442 174.785 168.295 174.785 168.141C174.785 167.988 174.846 167.841 174.956 167.733C175.065 167.624 175.213 167.563 175.367 167.563H189.096C189.251 167.563 189.398 167.624 189.508 167.733C189.617 167.841 189.678 167.988 189.678 168.141C189.678 168.295 189.617 168.442 189.508 168.55C189.398 168.658 189.251 168.719 189.096 168.719Z" fill="#F2F2F2"/>
<path d="M198.171 162.247H122.776C122.622 162.247 122.474 162.186 122.365 162.077C122.256 161.969 122.194 161.822 122.194 161.669C122.194 161.515 122.256 161.368 122.365 161.26C122.474 161.152 122.622 161.091 122.776 161.091H198.171C198.325 161.091 198.473 161.152 198.583 161.26C198.692 161.368 198.753 161.515 198.753 161.669C198.753 161.822 198.692 161.969 198.583 162.077C198.473 162.186 198.325 162.247 198.171 162.247Z" fill="#F2F2F2"/>
<path d="M111.375 162.247H97.6452C97.4909 162.247 97.343 162.186 97.2339 162.077C97.1248 161.969 97.0635 161.822 97.0635 161.669C97.0635 161.515 97.1248 161.368 97.2339 161.26C97.343 161.152 97.4909 161.091 97.6452 161.091H111.375C111.529 161.091 111.677 161.152 111.786 161.26C111.895 161.368 111.956 161.515 111.956 161.669C111.956 161.822 111.895 161.969 111.786 162.077C111.677 162.186 111.529 162.247 111.375 162.247Z" fill="#F2F2F2"/>
<path d="M198.172 181.432H122.777C122.701 181.432 122.625 181.417 122.554 181.388C122.484 181.359 122.419 181.317 122.365 181.263C122.311 181.21 122.268 181.146 122.239 181.076C122.209 181.005 122.194 180.93 122.194 180.854C122.194 180.778 122.209 180.703 122.239 180.633C122.268 180.563 122.311 180.499 122.365 180.445C122.419 180.392 122.484 180.349 122.554 180.32C122.625 180.291 122.701 180.276 122.777 180.276H198.172C198.327 180.276 198.475 180.337 198.584 180.446C198.693 180.554 198.754 180.701 198.754 180.854C198.754 181.008 198.693 181.154 198.584 181.263C198.475 181.371 198.327 181.432 198.172 181.432Z" fill="#F2F2F2"/>
<path d="M111.375 181.432H97.6455C97.569 181.432 97.4932 181.417 97.4225 181.388C97.3518 181.359 97.2875 181.317 97.2333 181.263C97.1792 181.21 97.1362 181.146 97.1069 181.076C97.0776 181.005 97.0625 180.93 97.0625 180.854C97.0625 180.778 97.0776 180.703 97.1069 180.633C97.1362 180.563 97.1792 180.499 97.2333 180.445C97.2875 180.392 97.3518 180.349 97.4225 180.32C97.4932 180.291 97.569 180.276 97.6455 180.276H111.375C111.451 180.276 111.527 180.291 111.598 180.32C111.669 180.349 111.733 180.392 111.787 180.445C111.841 180.499 111.884 180.563 111.913 180.633C111.943 180.703 111.958 180.778 111.958 180.854C111.958 180.93 111.943 181.005 111.913 181.076C111.884 181.146 111.841 181.21 111.787 181.263C111.733 181.317 111.669 181.359 111.598 181.388C111.527 181.417 111.451 181.432 111.375 181.432Z" fill="#F2F2F2"/>
<path d="M134.121 102.958L115.505 121.218L134.121 139.479L138.31 135.318L124.231 121.334L138.426 107.234L134.121 102.958Z" fill="#6C63FF"/>
<path d="M161.579 102.958L180.195 121.218L161.579 139.479L157.391 135.318L171.469 121.334L157.274 107.234L161.579 102.958Z" fill="#6C63FF"/>
<path d="M55.8626 47.7401C57.147 47.7401 58.1882 46.7059 58.1882 45.4301C58.1882 44.1543 57.147 43.1201 55.8626 43.1201C54.5783 43.1201 53.5371 44.1543 53.5371 45.4301C53.5371 46.7059 54.5783 47.7401 55.8626 47.7401Z" fill="#6C63FF"/>
<path d="M62.0648 47.7401C63.3491 47.7401 64.3903 46.7059 64.3903 45.4301C64.3903 44.1543 63.3491 43.1201 62.0648 43.1201C60.7804 43.1201 59.7393 44.1543 59.7393 45.4301C59.7393 46.7059 60.7804 47.7401 62.0648 47.7401Z" fill="#6C63FF"/>
<path d="M68.266 47.7401C69.5503 47.7401 70.5915 46.7059 70.5915 45.4301C70.5915 44.1543 69.5503 43.1201 68.266 43.1201C66.9816 43.1201 65.9404 44.1543 65.9404 45.4301C65.9404 46.7059 66.9816 47.7401 68.266 47.7401Z" fill="#6C63FF"/>
<path opacity="0.1" d="M245.006 49.2803H50.6953V50.0503H245.006V49.2803Z" fill="black"/>
<path d="M291.001 155.914C291.001 172.282 281.205 177.997 269.121 177.997C257.037 177.997 247.241 172.282 247.241 155.914C247.241 139.546 269.121 118.723 269.121 118.723C269.121 118.723 291.001 139.546 291.001 155.914Z" fill="#F2F2F2"/>
<path d="M268.323 175.494L268.547 161.795L277.873 144.848L268.582 159.646L268.683 153.487L275.11 141.226L268.71 151.857L268.891 140.779L275.773 131.017L268.919 139.037L269.032 118.724L268.321 145.615L268.379 144.505L261.382 133.866L268.267 146.635L267.615 159.007L267.596 158.678L259.529 147.482L267.571 159.839L267.49 161.386L267.475 161.409L267.482 161.536L265.828 192.926H268.038L268.303 176.712L276.326 164.386L268.323 175.494Z" fill="#3F3D56"/>
<path d="M31.6836 192.781C31.0123 193.153 30.3041 193.454 29.5704 193.68C28.2581 194.037 26.8555 193.906 25.5299 194.21C24.9872 194.334 24.3965 194.595 24.2239 195.121C24.0973 195.507 24.2351 195.923 24.3669 196.307C25.8316 200.573 26.7145 205.102 29.0504 208.966C30.032 210.589 31.2505 212.059 32.666 213.327C33.197 213.802 33.7988 214.267 34.5097 214.342C34.8373 214.376 35.1683 214.324 35.4692 214.191C35.7701 214.057 36.0302 213.848 36.2234 213.582C36.4166 213.317 36.536 213.006 36.5695 212.681C36.603 212.355 36.5494 212.027 36.4142 211.728C36.2048 211.266 35.8154 210.908 35.5643 210.467C35.2921 209.904 35.1324 209.295 35.0942 208.672C34.8634 206.848 34.6411 204.941 35.2775 203.214C35.7043 202.056 36.4873 201.069 37.1396 200.019C37.7919 198.97 38.3338 197.768 38.1887 196.543C38.0896 195.707 37.6791 194.942 37.2455 194.219C36.8111 193.495 35.9524 191.548 35.0795 191.306C34.1734 191.055 32.4738 192.379 31.6836 192.781Z" fill="#2F2E41"/>
<path d="M55.5692 207.516C55.5829 207.929 55.5249 208.341 55.3979 208.734C55.1246 209.451 54.4467 209.942 54.0965 210.625C53.6094 211.575 53.8302 212.723 54.1529 213.74C54.3552 214.377 54.6206 215.04 55.1639 215.434C55.6285 215.72 56.1568 215.888 56.7023 215.924C61.3627 216.564 66.0969 216.197 70.7998 216.331C71.657 216.356 72.5645 216.385 73.3127 215.969C74.061 215.553 74.5236 214.507 74.0147 213.821C73.5577 213.206 72.6541 213.212 71.885 213.175C69.8821 213.074 67.9747 212.294 66.4812 210.964C66.1867 210.714 65.9312 210.422 65.7233 210.097C65.5633 209.809 65.4306 209.507 65.3268 209.195C64.6675 207.421 63.8832 205.695 62.9797 204.031C62.7268 203.565 62.4404 203.08 61.9704 202.831C61.6263 202.675 61.2529 202.594 60.875 202.593C59.7028 202.518 56.6675 202.121 55.7611 203.027C54.9237 203.863 55.5878 206.454 55.5692 207.516Z" fill="#2F2E41"/>
<path d="M62.7818 104.129C66.9168 104.129 70.2688 100.8 70.2688 96.6923C70.2688 92.585 66.9168 89.2554 62.7818 89.2554C58.6469 89.2554 55.2949 92.585 55.2949 96.6923C55.2949 100.8 58.6469 104.129 62.7818 104.129Z" fill="#FBBEBE"/>
<path d="M56.0205 102.833C55.5752 104.017 54.8198 105.129 53.7207 105.767L64.0757 107.865C63.7001 106.363 63.6506 104.8 63.9305 103.278C64.0332 102.91 64.0544 102.524 63.9924 102.147C63.7977 101.4 62.952 101.041 62.1953 100.87C60.3055 100.442 58.6342 100.212 56.8779 99.3833C56.3411 100.296 56.4163 101.78 56.0205 102.833Z" fill="#FBBEBE"/>
<path d="M53.6344 102.982C54.7483 102.481 55.962 102.238 57.1843 102.269C58.4066 102.301 59.6058 102.607 60.6919 103.165C62.0194 103.86 63.1187 104.909 64.1987 105.944C65.1941 106.898 66.2561 107.99 66.3267 109.362C66.361 110.027 66.1521 110.677 66.0466 111.335C65.8571 112.694 66.098 114.078 66.736 115.296C67.374 116.513 68.3775 117.503 69.6073 118.128C70.4299 119.49 70.5997 121.139 70.6123 122.726C70.6601 128.742 68.7495 134.831 70.1135 140.692C70.4337 142.068 70.9304 143.401 71.2071 144.786C71.5654 146.581 71.5477 148.426 71.7352 150.246C71.9385 152.216 72.3822 154.155 73.0564 156.019C72.6058 156.731 71.6679 157.004 70.8233 156.947C69.9787 156.889 69.1889 156.525 68.4353 156.142C64.7859 154.287 61.4434 151.841 57.6637 150.264C55.1631 149.221 52.4991 148.572 50.0732 147.367C47.6473 146.162 45.3911 144.25 44.6494 141.659C44.3287 140.539 44.3089 139.358 44.2914 138.193C44.2177 133.287 44.1492 128.328 45.2242 123.539C46.1723 119.316 47.9997 115.276 48.3984 110.967C48.5282 109.565 48.5309 108.063 49.3198 106.893C50.4348 105.239 52.8423 104.811 53.6344 102.982Z" fill="#2F2E41"/>
<path d="M58.5243 96.797C58.9655 96.2255 59.8164 96.1475 60.5212 96.3166C61.226 96.4857 61.8758 96.8465 62.5876 96.9836C62.7494 97.0292 62.919 97.0408 63.0856 97.0175C63.2521 96.9943 63.412 96.9368 63.5549 96.8486C63.8037 96.6052 63.9525 96.2786 63.9723 95.9322C64.2216 94.4587 64.2799 92.9595 64.1456 91.4712C64.1086 91.2624 64.1226 91.0479 64.1867 90.8456C64.3629 90.4238 64.9005 90.3234 65.3396 90.1881C66.0641 89.9449 66.6863 89.4688 67.1081 88.8351C67.5298 88.2015 67.727 87.4463 67.6685 86.6889C67.6575 86.3256 67.5039 85.981 67.2404 85.7288C66.9367 85.483 66.5117 85.4679 66.12 85.4648C64.1075 85.4488 62.0949 85.4492 60.0822 85.4663C59.3374 85.4726 58.5551 85.4908 57.9093 85.8597C57.4319 86.1324 57.0769 86.5714 56.6482 86.915C55.5304 87.811 54.0184 87.9934 52.6584 88.4526C51.9945 88.6404 51.3916 88.9975 50.9097 89.4884C50.4574 90.0017 50.24 90.7649 50.524 91.3859C50.6698 91.6447 50.8327 91.8937 51.0116 92.1312C51.8138 93.4053 51.2797 95.058 51.3995 96.5561C51.5491 98.4268 54.3361 101.461 56.226 101.904C59.277 102.619 57.5143 98.025 58.5243 96.797Z" fill="#2F2E41"/>
<path d="M54.2961 178.816C54.4887 180.182 54.7356 181.553 54.6696 182.93C54.5774 184.854 53.8791 186.707 53.75 188.628C53.6536 190.063 53.8766 191.514 53.676 192.938C53.5475 193.85 53.2481 194.729 53.0628 195.632C52.7693 197.102 52.7775 198.616 53.0871 200.083C53.3968 201.55 54.0013 202.94 54.8646 204.17C54.9914 204.38 55.1717 204.554 55.3874 204.673C55.5943 204.749 55.8157 204.778 56.0354 204.758C58.2145 204.714 60.3878 204.518 62.5392 204.171C62.6967 204.165 62.8459 204.099 62.9569 203.988C63.0054 203.914 63.0364 203.831 63.0476 203.743C63.4465 201.706 62.5368 199.664 62.3054 197.602C62.0584 195.399 62.5904 193.193 63.1184 191.04C63.3578 189.978 63.6569 188.93 64.0143 187.901C64.2695 187.209 64.5778 186.536 64.799 185.832C65.1123 184.726 65.303 183.59 65.3679 182.443C65.5215 180.634 65.6029 178.82 65.6121 177.002C65.6642 175.28 65.5199 173.557 65.1818 171.866C64.6965 169.726 63.7028 167.739 62.7178 165.775C62.1911 165.901 61.6967 166.134 61.2662 166.461C59.9968 167.277 58.6715 168.005 57.2999 168.637C56.3783 169.063 54.5811 169.365 53.9962 170.251C53.4194 171.125 53.7915 172.907 53.8356 173.871C53.9112 175.525 54.0647 177.174 54.2961 178.816Z" fill="#2F2E41"/>
<path opacity="0.1" d="M54.2961 178.816C54.4887 180.182 54.7356 181.553 54.6696 182.93C54.5774 184.854 53.8791 186.707 53.75 188.628C53.6536 190.063 53.8766 191.514 53.676 192.938C53.5475 193.85 53.2481 194.729 53.0628 195.632C52.7693 197.102 52.7775 198.616 53.0871 200.083C53.3968 201.55 54.0013 202.94 54.8646 204.17C54.9914 204.38 55.1717 204.554 55.3874 204.673C55.5943 204.749 55.8157 204.778 56.0354 204.758C58.2145 204.714 60.3878 204.518 62.5392 204.171C62.6967 204.165 62.8459 204.099 62.9569 203.988C63.0054 203.914 63.0364 203.831 63.0476 203.743C63.4465 201.706 62.5368 199.664 62.3054 197.602C62.0584 195.399 62.5904 193.193 63.1184 191.04C63.3578 189.978 63.6569 188.93 64.0143 187.901C64.2695 187.209 64.5778 186.536 64.799 185.832C65.1123 184.726 65.303 183.59 65.3679 182.443C65.5215 180.634 65.6029 178.82 65.6121 177.002C65.6642 175.28 65.5199 173.557 65.1818 171.866C64.6965 169.726 63.7028 167.739 62.7178 165.775C62.1911 165.901 61.6967 166.134 61.2662 166.461C59.9968 167.277 58.6715 168.005 57.2999 168.637C56.3783 169.063 54.5811 169.365 53.9962 170.251C53.4194 171.125 53.7915 172.907 53.8356 173.871C53.9112 175.525 54.0647 177.174 54.2961 178.816Z" fill="black"/>
<path d="M44.1745 149.642C43.1802 152.301 44.6417 155.174 45.9114 157.715C49.0395 163.974 51.2117 170.653 53.3723 177.303C53.5342 177.801 53.6959 178.345 53.5155 178.836C53.3597 179.186 53.1067 179.484 52.7863 179.696C51.2966 180.82 49.3997 181.22 47.625 181.808C45.91 182.376 44.2674 183.141 42.7304 184.087C41.4444 184.879 40.2398 185.792 39.0375 186.704L35.2102 189.608C34.9624 189.774 34.7458 189.983 34.5704 190.223C34.2013 190.798 34.3525 191.549 34.5363 192.207C35.023 193.947 35.6496 195.646 36.4102 197.287C36.5353 197.646 36.7736 197.956 37.0897 198.171C37.6871 198.49 38.4178 198.067 38.874 197.569C39.3302 197.07 39.7247 196.45 40.3678 196.236C41.0101 196.022 41.717 196.281 42.3878 196.188C43.4727 196.036 44.193 195.044 44.975 194.282C48.1701 191.168 53.5046 191.394 57.0193 188.641C57.5274 188.189 58.0653 187.772 58.6294 187.391C59.2236 187.042 59.8974 186.851 60.5139 186.543C62.3889 185.605 63.5677 183.666 64.1992 181.677C64.8306 179.688 65.0107 177.589 65.4645 175.553C65.6991 174.5 66.0079 173.459 66.1122 172.386C66.1793 171.388 66.1574 170.386 66.0468 169.391L64.7786 153.808C64.6753 152.539 64.5719 151.269 64.3714 150.011C60.6049 150.145 56.8411 150.296 53.0725 150.34C50.0737 150.375 47.0198 150.583 44.1745 149.642Z" fill="#2F2E41"/>
<path d="M42.7905 153.287C43.3014 154.104 44.545 154.087 45.4013 153.639C46.2577 153.192 46.923 152.44 47.7813 151.996C48.9347 151.4 50.2996 151.423 51.5994 151.459C53.6571 151.517 55.7401 151.578 57.7199 152.138C59.7676 152.718 61.7611 153.833 63.8784 153.611C64.2469 153.572 64.6497 153.467 64.8502 153.158C64.9677 152.933 65.023 152.682 65.0104 152.43L65.0796 150.592C65.122 150.274 65.0709 149.951 64.9323 149.662C64.7546 149.421 64.5111 149.236 64.2306 149.128C61.2168 147.679 57.7799 147.409 54.4336 147.295C52.7326 147.237 51.0308 147.213 49.3284 147.224C47.8837 147.232 46.1494 147.025 44.7448 147.408C42.8598 147.923 41.8342 151.76 42.7905 153.287Z" fill="#2F2E41"/>
<path d="M61.7142 105.164C57.7654 105.129 54.187 102.54 50.2385 102.477C49.7615 102.444 49.2835 102.526 48.8451 102.716C48.2949 102.991 47.9332 103.523 47.5152 103.973C46.3477 105.229 44.6571 105.899 43.4577 107.125C42.3331 108.274 41.7076 109.987 42.1516 111.528C42.5956 113.069 44.2714 114.25 45.8412 113.88C46.4737 111.846 47.7791 110.085 49.5458 108.88C50.465 108.295 51.4338 107.789 52.4411 107.371C54.2157 106.572 56.2002 105.758 58.0529 106.357C58.7361 106.613 59.3804 106.962 59.9673 107.394L63.0561 109.455C62.6962 108.045 62.3726 106.463 61.7142 105.164Z" fill="#6C63FF"/>
<path d="M45.3859 112.517C44.8615 113.166 45.6169 114.108 45.5013 114.933C45.4245 115.481 44.9705 115.899 44.7814 116.42C44.5856 116.959 44.6894 117.556 44.6151 118.124C44.5406 118.537 44.4304 118.944 44.2857 119.338C43.953 120.517 43.7208 121.721 43.5915 122.938L42.9003 128.065C42.7804 128.837 42.7074 129.615 42.6817 130.395C42.7166 130.978 42.6773 131.564 42.5649 132.137C42.4119 132.697 42.073 133.188 41.845 133.722C41.617 134.257 41.5113 134.903 41.8193 135.397C40.788 136.25 40.4813 137.926 41.2025 139.05C41.3397 139.226 41.4471 139.422 41.5203 139.632C41.5602 139.925 41.5114 140.223 41.3803 140.489L40.6814 142.339C40.5026 142.812 40.446 143.533 40.9433 143.641C40.5314 144.066 40.2104 144.57 39.9999 145.121C39.8977 145.398 39.8672 145.696 39.9111 145.988C39.955 146.28 40.0719 146.556 40.2511 146.791C40.4248 146.943 40.5726 147.121 40.689 147.319C40.7573 147.595 40.7397 147.885 40.6384 148.151C40.5338 148.555 40.5137 148.976 40.5792 149.388C40.6446 149.8 40.7943 150.195 41.019 150.547C41.2518 150.895 41.5815 151.167 41.9678 151.332C42.3541 151.496 42.7803 151.545 43.1942 151.473C44.5923 151.16 45.8485 150.666 47.2581 150.923C50.2932 151.476 53.338 152.031 56.2776 152.964C59.6326 154.028 62.8811 155.588 66.3874 155.915C66.6181 155.962 66.8581 155.925 67.0636 155.811C67.2422 155.643 67.3533 155.416 67.3762 155.172C67.7374 153.49 68.0987 151.807 68.4599 150.125C68.8966 148.26 69.2292 146.373 69.4561 144.471C69.5795 143.244 69.6146 142.01 69.6497 140.777L69.929 130.964C70.0598 129.518 69.8657 128.061 69.3605 126.699L67.754 121.604C66.8372 118.697 64.7339 116.119 63.9851 113.165C63.5112 111.295 63.1611 109.288 61.8901 107.831C60.0782 105.753 56.9433 105.43 54.1994 105.787C52.9598 105.949 51.7096 106.227 50.6374 106.866C49.3975 107.604 48.4842 108.767 47.6005 109.904C46.8723 110.84 46.131 111.593 45.3859 112.517Z" fill="#6C63FF"/>
<path d="M51.7923 141.379C52.0184 142.347 52.4932 143.24 52.7838 144.191C53.2707 145.785 53.2294 147.501 53.7153 149.095C53.9193 149.764 54.2148 150.406 54.3612 151.09C54.7025 152.684 54.2042 154.333 53.5851 155.842C52.9661 157.352 52.2122 158.84 52.0112 160.457C51.8697 161.596 52.073 162.883 52.957 163.622C53.8747 164.389 55.2084 164.337 56.4037 164.235C56.8328 164.223 57.2564 164.136 57.6546 163.977C58.5687 163.547 58.9537 162.473 59.1674 161.491C59.8835 158.201 59.6789 154.79 59.4708 151.43L58.9266 142.643C58.8218 140.952 58.7096 139.225 58.1848 137.601C57.9939 137.01 57.6612 135.816 57.1178 135.439C56.5797 135.065 55.043 135.048 54.3767 135.017C51.2507 134.871 51.2857 139.205 51.7923 141.379Z" fill="#FBBEBE"/>
<path d="M55.2566 108.936C54.6182 108.604 53.8138 108.747 53.1967 109.117C52.6009 109.522 52.079 110.025 51.6536 110.605C50.2741 112.278 48.8137 114.197 49.0183 116.35C49.095 117.157 49.4062 117.921 49.6171 118.704C50.542 122.138 49.5192 125.77 49.6366 129.323C49.7044 131.376 50.1541 133.395 50.602 135.401C50.6934 135.81 50.8398 136.284 51.2384 136.422C51.5378 136.525 51.8612 136.392 52.1575 136.28C53.2615 135.875 54.4475 135.74 55.6152 135.886C56.7829 136.032 57.898 136.455 58.8662 137.12C59.6065 136.728 59.3291 135.487 59.1631 134.67C58.67 132.242 59.3394 129.738 60.1524 127.397C60.9653 125.056 61.938 122.718 62.0727 120.245C62.2253 117.443 61.2901 114.709 60.3673 112.057C60.1659 111.478 59.9458 110.871 59.4788 110.471C59.079 110.176 58.6209 109.968 58.1344 109.861C57.1543 109.573 56.162 109.407 55.2566 108.936Z" fill="#2F2E41"/>
</g>
<defs>
<clipPath id="clip0">
<rect width="291" height="219.451" fill="white"/>
</clipPath>
</defs>
</svg>
