<svg width="168" height="175" viewBox="0 0 168 175" fill="none" xmlns="http://www.w3.org/2000/svg">
<g clip-path="url(#clip0)">
<path d="M168 167.476H0V167.913H168V167.476Z" fill="#3F3D56"/>
<path d="M160.001 162.511H154.877V167.616H160.001V162.511Z" fill="#6C63FF"/>
<path d="M25.3356 160.721L21.3525 163.932L24.5753 167.901L28.5584 164.69L25.3356 160.721Z" fill="#6C63FF"/>
<path d="M84.2189 19.8999H83.7803V91.5719H84.2189V19.8999Z" fill="#3F3D56"/>
<path d="M137.514 26.6743H108.563V27.1113H137.514V26.6743Z" fill="#3F3D56"/>
<path d="M59.4357 26.6743H30.4854V27.1113H59.4357V26.6743Z" fill="#3F3D56"/>
<path d="M30.5754 4.14819L30.3955 3.74957C41.5604 -1.25433 51.3697 -1.24975 59.5507 3.7627L59.3209 4.13506C51.2713 -0.797039 41.5999 -0.792449 30.5754 4.14819Z" fill="#3F3D56"/>
<path d="M107.777 4.14811L107.597 3.74949C118.762 -1.25431 128.571 -1.24972 136.752 3.76262L136.522 4.13498C128.472 -0.797226 118.801 -0.792851 107.777 4.14811Z" fill="#3F3D56"/>
<path d="M44.9611 26.6742C48.716 26.6742 51.76 23.6414 51.76 19.9003C51.76 16.1592 48.716 13.1265 44.9611 13.1265C41.2061 13.1265 38.1621 16.1592 38.1621 19.9003C38.1621 23.6414 41.2061 26.6742 44.9611 26.6742Z" fill="#3F3D56"/>
<path d="M123.039 26.6742C126.794 26.6742 129.838 23.6414 129.838 19.9003C129.838 16.1592 126.794 13.1265 123.039 13.1265C119.284 13.1265 116.24 16.1592 116.24 19.9003C116.24 23.6414 119.284 26.6742 123.039 26.6742Z" fill="#3F3D56"/>
<path d="M14.914 83.0501C21.9394 83.0501 27.6346 77.3758 27.6346 70.3763C27.6346 63.3768 21.9394 57.7026 14.914 57.7026C7.88858 57.7026 2.19336 63.3768 2.19336 70.3763C2.19336 77.3758 7.88858 83.0501 14.914 83.0501Z" fill="#6C63FF"/>
<path d="M153.086 83.0501C160.111 83.0501 165.806 77.3758 165.806 70.3763C165.806 63.3768 160.111 57.7026 153.086 57.7026C146.06 57.7026 140.365 63.3768 140.365 70.3763C140.365 77.3758 146.06 83.0501 153.086 83.0501Z" fill="#6C63FF"/>
<path d="M86.0938 135.42C85.0589 135.42 83.9826 135.384 82.8892 135.312C80.6362 135.154 78.3962 134.848 76.1837 134.396C58.1508 130.731 44.9409 118.296 44.8096 118.17L45.1129 117.854C45.2433 117.979 58.366 130.329 76.2714 133.968C78.4647 134.416 80.6854 134.719 82.9188 134.875C84.1141 134.955 85.2893 134.992 86.4112 134.982C88.751 134.969 91.0862 134.775 93.3958 134.401C103.988 132.68 113.909 127.114 122.882 117.861L123.197 118.164C114.157 127.487 104.154 133.095 93.4665 134.833C91.1345 135.21 88.7767 135.406 86.4142 135.419C86.308 135.42 86.2009 135.42 86.0938 135.42Z" fill="#3F3D56"/>
<path d="M14.9138 83.2689C11.9642 83.2689 9.08073 82.3975 6.62816 80.7648C4.17559 79.1321 2.26405 76.8114 1.13526 74.0963C0.00646318 71.3812 -0.288882 68.3936 0.286572 65.5113C0.862025 62.629 2.28243 59.9814 4.36817 57.9033C6.45391 55.8253 9.1113 54.4101 12.0043 53.8368C14.8973 53.2635 17.896 53.5577 20.6211 54.6823C23.3463 55.807 25.6755 57.7115 27.3143 60.155C28.953 62.5985 29.8277 65.4713 29.8277 68.4101C29.8232 72.3495 28.2505 76.1263 25.4546 78.9119C22.6587 81.6975 18.8679 83.2645 14.9138 83.2689ZM14.9138 53.9883C12.0509 53.9883 9.25229 54.8341 6.87186 56.4188C4.49142 58.0035 2.6361 60.2559 1.54051 62.8911C0.444917 65.5264 0.158258 68.4261 0.716787 71.2237C1.27532 74.0212 2.65394 76.5909 4.67834 78.6079C6.70273 80.6248 9.28197 81.9983 12.0899 82.5548C14.8978 83.1113 17.8083 82.8257 20.4533 81.7341C23.0983 80.6426 25.359 78.7941 26.9495 76.4224C28.5401 74.0508 29.389 71.2625 29.389 68.4101C29.3847 64.5865 27.8583 60.9208 25.1446 58.2171C22.4309 55.5134 18.7516 53.9926 14.9138 53.9883Z" fill="#3F3D56"/>
<path d="M153.086 83.2689C150.136 83.2689 147.253 82.3975 144.8 80.7648C142.347 79.1321 140.436 76.8114 139.307 74.0963C138.178 71.3812 137.883 68.3936 138.458 65.5113C139.034 62.629 140.454 59.9814 142.54 57.9033C144.626 55.8253 147.283 54.4101 150.176 53.8368C153.069 53.2635 156.068 53.5577 158.793 54.6823C161.518 55.807 163.847 57.7115 165.486 60.155C167.125 62.5985 168 65.4713 168 68.4101C167.995 72.3495 166.422 76.1263 163.626 78.9119C160.831 81.6975 157.04 83.2645 153.086 83.2689ZM153.086 53.9883C150.223 53.9883 147.424 54.8341 145.044 56.4188C142.663 58.0035 140.808 60.2559 139.712 62.8911C138.617 65.5264 138.33 68.4261 138.889 71.2237C139.447 74.0212 140.826 76.5909 142.85 78.6079C144.875 80.6248 147.454 81.9983 150.262 82.5548C153.07 83.1113 155.98 82.8257 158.625 81.7341C161.27 80.6426 163.531 78.7941 165.121 76.4224C166.712 74.0508 167.561 71.2625 167.561 68.4101C167.557 64.5865 166.03 60.9208 163.316 58.2171C160.603 55.5134 156.923 53.9926 153.086 53.9883Z" fill="#3F3D56"/>
<path d="M76.9817 94.4127C78.0718 94.4127 78.9556 93.5322 78.9556 92.4461C78.9556 91.36 78.0718 90.4795 76.9817 90.4795C75.8916 90.4795 75.0078 91.36 75.0078 92.4461C75.0078 93.5322 75.8916 94.4127 76.9817 94.4127Z" fill="#3F3D56"/>
<path d="M91.0188 94.4127C92.109 94.4127 92.9927 93.5322 92.9927 92.4461C92.9927 91.36 92.109 90.4795 91.0188 90.4795C89.9287 90.4795 89.0449 91.36 89.0449 92.4461C89.0449 93.5322 89.9287 94.4127 91.0188 94.4127Z" fill="#3F3D56"/>
<path d="M84.0006 150.789C87.0288 150.789 89.4836 149.909 89.4836 148.823C89.4836 147.736 87.0288 146.856 84.0006 146.856C80.9724 146.856 78.5176 147.736 78.5176 148.823C78.5176 149.909 80.9724 150.789 84.0006 150.789Z" fill="#F2F2F2"/>
<path d="M129.934 127.916C127.687 124.133 123.242 123.957 123.242 123.957C123.242 123.957 118.91 123.405 116.131 129.166C113.541 134.536 109.966 139.721 115.556 140.978L116.565 137.847L117.191 141.211C117.986 141.268 118.785 141.282 119.582 141.252C125.568 141.059 131.268 141.308 131.085 139.168C130.841 136.323 132.097 131.556 129.934 127.916Z" fill="#2F2E41"/>
<path d="M115.236 161.043C115.17 161.459 115.075 161.87 114.95 162.272C114.809 162.666 114.592 163.031 114.463 163.429C114.054 164.697 114.622 166.112 115.529 167.091C116.316 167.937 117.332 168.538 118.454 168.821C119.28 168.997 120.122 169.085 120.967 169.084C123.303 169.163 125.699 169.234 127.912 168.486C128.611 168.244 129.287 167.938 129.93 167.572C130.133 167.476 130.312 167.336 130.453 167.162C130.602 166.907 130.668 166.613 130.642 166.319C130.637 165.333 130.437 164.351 130.484 163.366C130.511 162.82 130.613 162.274 130.563 161.73C130.493 161.112 130.233 160.531 129.819 160.066C129.405 159.6 128.856 159.274 128.249 159.131C127.613 159.034 126.966 159.034 126.33 159.131C124.671 159.29 123.004 159.365 121.338 159.354C119.634 159.343 117.942 159.084 116.247 159.057C115.746 159.049 115.756 159.203 115.596 159.686C115.449 160.131 115.329 160.584 115.236 161.043Z" fill="#2F2E41"/>
<path d="M120.07 136.682C120.019 137.115 119.873 137.532 119.642 137.902C119.346 138.306 118.862 138.537 118.544 138.923C118.064 139.505 118.036 140.323 118.034 141.076C118.032 141.769 118.047 142.509 118.435 143.085C118.711 143.442 119.054 143.743 119.445 143.972C120.9 144.949 122.473 145.944 124.228 145.976C124.956 145.99 125.735 145.802 126.214 145.257C126.42 145 126.583 144.712 126.695 144.402C127.143 143.3 127.415 142.135 127.501 140.948C127.565 140.39 127.513 139.825 127.347 139.289C127.134 138.697 126.703 138.209 126.418 137.648C126.081 136.98 125.958 136.225 126.065 135.486C126.079 135.434 126.075 135.378 126.053 135.329C126.029 135.303 126 135.282 125.967 135.269C125.934 135.256 125.899 135.25 125.864 135.253L122.384 135.003C122.06 134.987 121.737 134.95 121.418 134.893C121.23 134.855 120.734 134.59 120.556 134.66C120.224 134.791 120.138 136.328 120.07 136.682Z" fill="#FFB8B8"/>
<path opacity="0.1" d="M120.07 136.682C120.019 137.115 119.873 137.532 119.642 137.902C119.346 138.306 118.862 138.537 118.544 138.923C118.064 139.505 118.036 140.323 118.034 141.076C118.032 141.769 118.047 142.509 118.435 143.085C118.711 143.442 119.054 143.743 119.445 143.972C120.9 144.949 122.473 145.944 124.228 145.976C124.956 145.99 125.735 145.802 126.214 145.257C126.42 145 126.583 144.712 126.695 144.402C127.143 143.3 127.415 142.135 127.501 140.948C127.565 140.39 127.513 139.825 127.347 139.289C127.134 138.697 126.703 138.209 126.418 137.648C126.081 136.98 125.958 136.225 126.065 135.486C126.079 135.434 126.075 135.378 126.053 135.329C126.029 135.303 126 135.282 125.967 135.269C125.934 135.256 125.899 135.25 125.864 135.253L122.384 135.003C122.06 134.987 121.737 134.95 121.418 134.893C121.23 134.855 120.734 134.59 120.556 134.66C120.224 134.791 120.138 136.328 120.07 136.682Z" fill="black"/>
<path d="M123.399 137.147C126.218 137.147 128.504 134.869 128.504 132.06C128.504 129.251 126.218 126.973 123.399 126.973C120.579 126.973 118.293 129.251 118.293 132.06C118.293 134.869 120.579 137.147 123.399 137.147Z" fill="#FFB8B8"/>
<path d="M120.788 143.453C121.04 143.744 121.344 143.986 121.685 144.167C122.04 144.314 122.421 144.386 122.805 144.38C123.726 144.406 124.723 144.238 125.364 143.578C126.189 142.729 126.162 141.358 126.809 140.367C126.861 140.277 126.932 140.199 127.017 140.14C127.126 140.081 127.248 140.053 127.372 140.058C128.189 140.051 128.9 140.579 129.543 141.082C129.845 141.289 130.104 141.552 130.307 141.857C130.434 142.104 130.521 142.37 130.564 142.644C130.847 144.201 131.023 145.776 131.089 147.358C131.145 148.23 131.202 149.103 131.198 149.977C131.184 152.857 130.512 155.688 129.844 158.49C129.758 158.851 129.64 159.254 129.311 159.427C129.164 159.493 129.006 159.531 128.845 159.54C126.936 159.796 125.014 159.956 123.088 160.018C122.337 160.029 121.585 160.011 120.834 159.963C120.705 159.962 120.577 159.939 120.455 159.897C120.289 159.818 120.146 159.697 120.041 159.547C118.999 158.239 118.937 156.43 118.944 154.76C118.96 150.677 119.106 146.598 119.383 142.521C119.406 142.185 119.411 141.776 119.168 141.511C119.641 142.211 120.184 142.862 120.788 143.453Z" fill="#D0CDE1"/>
<path d="M119.705 137.58C119.532 137.891 118.261 138.663 118.015 138.921C116.644 140.361 114.141 140.307 112.887 141.849C112.471 142.415 112.185 143.064 112.048 143.752C111.809 144.711 111.682 145.756 112.082 146.66C112.466 147.53 113.275 148.132 113.825 148.909C114.428 149.762 114.699 150.798 114.959 151.809C115.151 152.555 115.344 153.32 115.27 154.087C115.185 154.959 114.761 155.758 114.511 156.598C114.261 157.438 114.218 158.438 114.796 159.098C115.221 159.583 115.887 159.775 116.524 159.884C117.34 160.006 118.162 160.077 118.987 160.097C119.715 160.129 120.517 160.135 121.077 159.67C121.286 159.473 121.453 159.235 121.566 158.971C121.68 158.707 121.737 158.423 121.735 158.136C121.729 157.563 121.672 156.991 121.566 156.428C121.488 155.839 121.458 155.245 121.433 154.652C121.321 151.99 121.306 149.326 121.388 146.66C121.429 146.106 121.401 145.549 121.306 145.002C121.15 144.288 120.763 143.651 120.441 142.996C119.796 141.762 119.503 140.375 119.596 138.987C119.694 137.56 120.318 136.473 119.705 137.58Z" fill="#6C63FF"/>
<path d="M126.876 137.689C127.139 137.957 128.031 138.046 128.365 138.219C128.68 138.364 129.007 138.477 129.344 138.557C130.563 138.907 131.722 139.437 132.783 140.13C133.004 140.258 133.199 140.426 133.359 140.625C133.527 140.897 133.635 141.202 133.677 141.52C133.873 142.321 133.971 143.143 133.968 143.967C133.929 144.841 133.665 145.687 133.403 146.521L132.424 149.639C131.693 151.967 130.958 154.317 130.752 156.747C130.639 158.094 130.689 159.449 130.903 160.784C130.923 160.849 130.929 160.917 130.921 160.985C130.912 161.052 130.889 161.117 130.854 161.175C130.789 161.238 130.704 161.277 130.614 161.285C130.141 161.358 129.684 161.118 129.256 160.906C127.948 160.257 126.552 159.802 125.111 159.555C125.674 158.744 126.108 157.853 126.399 156.911C126.564 156.312 126.693 155.705 126.788 155.092L127.243 152.468C127.428 151.509 127.559 150.54 127.634 149.566C127.668 149.201 127.647 148.832 127.57 148.473C127.465 148.132 127.326 147.801 127.154 147.487C126.404 145.932 126.052 144.157 126.347 142.457C126.476 141.713 126.727 140.967 126.623 140.219C126.522 139.5 126.627 138.941 126.441 138.23C125.681 135.307 126.382 137.183 126.876 137.689Z" fill="#6C63FF"/>
<path d="M112.873 144.309C112.531 145.016 111.959 145.619 111.765 146.38C111.689 146.735 111.656 147.099 111.668 147.462C111.634 148.01 111.689 148.559 111.829 149.089C111.938 149.425 112.115 149.734 112.242 150.063C112.419 150.523 112.498 151.014 112.474 151.506C112.44 152.188 112.207 152.849 112.189 153.531C112.161 154.604 112.659 155.612 113.144 156.569C113.267 156.267 113.454 155.996 113.692 155.774C113.931 155.552 114.215 155.384 114.526 155.283C114.836 155.182 115.165 155.149 115.489 155.188C115.813 155.226 116.125 155.335 116.403 155.506C116.514 155.37 116.567 155.196 116.55 155.021C116.586 153.777 116.62 152.533 116.654 151.288C116.706 149.364 116.756 147.414 116.312 145.54C116.145 144.683 115.773 143.879 115.227 143.195C114.926 142.85 113.903 141.94 113.408 142.327C113.186 142.501 113.238 142.975 113.202 143.215C113.149 143.594 113.038 143.963 112.873 144.309Z" fill="#6C63FF"/>
<path d="M134.067 142.27C134.205 142.78 134.264 143.308 134.242 143.836C134.248 144.911 134.234 145.987 134.199 147.062C134.204 147.614 134.133 148.163 133.988 148.696C133.878 149.042 133.707 149.367 133.593 149.711C133.251 150.745 133.438 151.867 133.467 152.955C133.488 153.307 133.458 153.661 133.378 154.004C133.197 154.679 132.712 155.224 132.374 155.835C132.052 156.416 131.858 157.067 131.475 157.608C131.091 158.15 130.426 158.579 129.782 158.413C129.293 158.287 128.947 157.856 128.707 157.414C128.183 156.443 128.004 155.324 128.198 154.238C128.439 152.917 129.218 151.745 129.499 150.433C129.885 148.63 129.298 146.769 129.316 144.926C129.308 144.637 129.347 144.348 129.432 144.072C129.613 143.663 129.87 143.292 130.188 142.977C130.554 142.555 130.893 142.111 131.204 141.649C131.414 141.338 131.698 140.538 132.069 140.472C132.897 140.323 133.861 141.633 134.067 142.27Z" fill="#6C63FF"/>
<path d="M108.576 160.241C108.118 160.127 107.646 160.077 107.174 160.093C106.678 160.12 106.194 160.252 105.753 160.481C105.312 160.709 104.926 161.028 104.618 161.417C104.311 161.805 104.09 162.255 103.971 162.735C103.851 163.215 103.836 163.715 103.926 164.202C104.04 164.729 104.227 165.238 104.481 165.714C104.853 166.466 105.299 167.216 105.987 167.698C106.402 167.963 106.848 168.174 107.316 168.328L110.941 169.689C111.474 169.889 112.007 170.089 112.546 170.275C115.252 171.206 118.072 171.765 120.93 171.935C121.799 172.016 122.676 171.972 123.533 171.804C123.74 171.777 123.93 171.675 124.066 171.517C124.135 171.397 124.176 171.263 124.185 171.125L124.408 169.569C124.458 169.352 124.452 169.127 124.389 168.913C124.258 168.662 124.046 168.463 123.787 168.347C121.404 166.984 118.621 166.231 116.615 164.36C116.143 163.919 115.748 163.221 115.174 162.921C114.523 162.582 113.757 162.388 113.085 162.076C111.615 161.392 110.169 160.606 108.576 160.241Z" fill="#2F2E41"/>
<path opacity="0.1" d="M112.196 162.338C113.478 162.738 118.887 165.51 119.814 166.477C119.69 166.522 115.473 164.167 115.347 164.13C114.187 163.812 113.051 163.413 111.948 162.936C111.728 162.835 110.52 162.359 110.575 162.083C110.637 161.771 111.969 162.267 112.196 162.338Z" fill="black"/>
<path d="M128.18 172.742C128.252 172.747 128.324 172.726 128.383 172.683C128.408 172.65 128.427 172.612 128.438 172.572C128.449 172.533 128.452 172.491 128.446 172.45L128.44 170.33C127.813 170.072 127.149 169.912 126.473 169.857L123.339 169.44C123.411 169.45 122.849 170.785 122.935 170.963C123.087 171.277 124.247 171.556 124.575 171.704C125.714 172.22 126.897 172.787 128.18 172.742Z" fill="#FFB8B8"/>
<path d="M118.347 170.323C117.756 170.417 117.095 170.5 116.712 170.959C116.226 171.541 116.433 172.408 116.665 173.129C116.679 173.222 116.712 173.312 116.761 173.392C116.81 173.472 116.875 173.542 116.952 173.596C117.029 173.651 117.116 173.69 117.208 173.711C117.3 173.731 117.396 173.733 117.489 173.716C118.028 173.751 118.603 173.777 119.074 173.513C119.288 173.373 119.493 173.221 119.69 173.057C120.038 172.827 120.42 172.653 120.822 172.542C121.562 172.31 122.324 172.153 123.095 172.075C123.399 172.061 123.7 172.008 123.991 171.918C124.136 171.871 124.268 171.792 124.377 171.686C124.487 171.58 124.57 171.451 124.621 171.308C124.73 170.923 124.506 170.53 124.29 170.192C124.042 169.75 123.72 169.353 123.337 169.018C122.753 168.567 122.464 168.913 121.876 169.203C120.763 169.75 119.573 170.128 118.347 170.323Z" fill="#FFB8B8"/>
<path d="M116.8 170.854L113.043 169.747C112.593 169.591 112.122 169.5 111.645 169.477C111.407 169.468 111.169 169.509 110.947 169.598C110.726 169.687 110.526 169.823 110.361 169.995C110.07 170.335 109.986 170.801 109.914 171.243L109.758 172.188C109.655 172.664 109.626 173.153 109.671 173.638C109.696 173.881 109.777 174.115 109.906 174.322C110.035 174.529 110.21 174.704 110.418 174.834C110.938 175.116 111.575 174.978 112.155 174.86C113.327 174.621 114.519 174.494 115.716 174.48C116.165 174.474 116.637 174.48 117.034 174.27C117.265 174.134 117.459 173.944 117.599 173.716C117.739 173.488 117.821 173.229 117.838 172.963C117.912 172.156 117.642 171.102 116.8 170.854Z" fill="#2F2E41"/>
<path d="M129.657 169.889C130.144 169.804 130.574 169.529 131.04 169.366C131.697 169.137 132.409 169.137 133.105 169.139C133.361 169.116 133.618 169.167 133.846 169.287C134.152 169.49 134.231 169.897 134.283 170.261L134.597 172.452C134.681 172.861 134.69 173.282 134.623 173.694C134.587 173.899 134.496 174.092 134.359 174.25C134.223 174.409 134.047 174.529 133.848 174.596C133.357 174.723 132.875 174.411 132.412 174.205C131.252 173.692 129.904 173.823 128.696 173.44C128.58 173.416 128.471 173.369 128.375 173.301C128.279 173.233 128.199 173.145 128.139 173.043C128.098 172.922 128.083 172.792 128.096 172.665C128.117 171.96 127.968 170.998 128.181 170.325C128.372 169.719 129.113 169.889 129.657 169.889Z" fill="#2F2E41"/>
<path d="M137.607 159.359C138.358 159.172 139.136 159.119 139.906 159.203C140.52 159.27 141.153 159.441 141.602 159.864C142.148 160.38 142.323 161.178 142.338 161.927C142.362 163.42 141.865 164.874 140.932 166.043C140.704 166.338 140.433 166.598 140.128 166.814C139.799 167.019 139.449 167.187 139.082 167.316L130.965 170.506C128.829 171.345 126.686 172.187 124.458 172.74C124.397 172.769 124.331 172.786 124.264 172.79C124.196 172.793 124.129 172.783 124.065 172.76C124.002 172.737 123.943 172.702 123.894 172.656C123.844 172.61 123.804 172.555 123.776 172.494C123.065 171.481 122.468 170.394 121.997 169.251C121.975 169.224 121.959 169.192 121.952 169.157C121.945 169.123 121.946 169.087 121.955 169.054C121.965 169.02 121.982 168.989 122.007 168.963C122.031 168.938 122.061 168.918 122.094 168.906L127.836 165.62C128.257 165.401 128.649 165.131 129.004 164.817C129.252 164.578 129.456 164.296 129.604 163.985C129.723 163.737 129.734 163.153 129.886 162.97C130.035 162.791 130.544 162.776 130.78 162.706C131.111 162.605 131.436 162.482 131.752 162.34C133.036 161.767 134.18 160.935 135.411 160.265C136.102 159.872 136.84 159.567 137.607 159.359Z" fill="#2F2E41"/>
<path opacity="0.1" d="M134.354 161.814C133.367 162.552 132.09 163.231 131.112 163.988C130.779 164.247 125.216 167.363 125.138 167.776C126.05 167.929 131.86 163.88 132.691 163.476C133.509 163.043 134.279 162.527 134.99 161.936C135.176 161.792 135.965 161.358 135.43 161.197C135.13 161.107 134.576 161.666 134.354 161.814Z" fill="black"/>
<path d="M128.941 127.551L124.549 125.259L118.484 126.197L117.229 131.719L120.353 131.599L121.226 129.57V131.566L122.667 131.51L123.504 128.281L124.026 131.719L129.15 131.614L128.941 127.551Z" fill="#2F2E41"/>
<path d="M127.961 138.879H118.51V150.243H127.961V138.879Z" fill="#3F3D56"/>
<path d="M114.023 158.644C114.222 158.981 114.504 159.26 114.843 159.457C115.065 159.558 115.307 159.607 115.552 159.6C115.796 159.594 116.035 159.532 116.252 159.419C116.684 159.188 117.038 158.834 117.269 158.403C117.746 157.563 117.845 156.558 117.786 155.595C117.726 154.632 117.52 153.684 117.428 152.723C117.362 152.024 117.356 151.322 117.351 150.62C117.334 150.473 117.366 150.324 117.44 150.195C117.567 150.069 117.732 149.986 117.91 149.961C118.874 149.676 119.513 148.776 119.972 147.885C120.278 147.29 120.544 146.64 120.485 145.974C120.426 145.308 119.945 144.637 119.278 144.569C118.728 144.513 118.219 144.861 117.822 145.245C116.821 146.219 116.177 147.501 115.995 148.884C115.908 149.561 115.933 150.257 115.748 150.914C115.353 152.317 114.118 153.178 113.503 154.441C112.825 155.833 113.199 157.413 114.023 158.644Z" fill="#FFB8B8"/>
<path d="M132.198 153.282C132.057 153.607 131.853 153.902 131.596 154.147C131.34 154.393 131.037 154.584 130.705 154.711C130.292 154.876 129.836 154.904 129.407 154.79C129.193 154.731 128.997 154.624 128.832 154.477C128.667 154.33 128.538 154.148 128.456 153.943C128.39 153.737 128.354 153.523 128.349 153.307C128.287 152.36 128.311 151.385 128.656 150.501C128.789 150.16 128.968 149.836 129.073 149.486C129.177 149.081 129.229 148.665 129.231 148.247L129.344 145.665C129.363 145.477 129.35 145.288 129.306 145.105C129.192 144.731 128.842 144.488 128.52 144.265C127.743 143.727 126.976 143.099 126.599 142.234C126.47 141.974 126.424 141.68 126.467 141.393C126.573 140.88 127.092 140.548 127.606 140.436C127.942 140.363 128.289 140.358 128.627 140.422C128.965 140.486 129.286 140.618 129.571 140.809C129.857 141 130.1 141.247 130.287 141.534C130.475 141.822 130.601 142.144 130.66 142.482C130.711 142.773 130.71 143.071 130.74 143.365C130.803 143.989 131.002 144.591 131.127 145.206C131.433 146.722 131.274 148.288 131.577 149.803C131.831 151.069 132.787 151.896 132.198 153.282Z" fill="#FFB8B8"/>
<path d="M123.478 144.452C124.326 144.452 125.013 143.767 125.013 142.923C125.013 142.078 124.326 141.393 123.478 141.393C122.63 141.393 121.942 142.078 121.942 142.923C121.942 143.767 122.63 144.452 123.478 144.452Z" fill="#6C63FF"/>
<path d="M46.4958 24.4889C47.4648 24.4889 48.2503 23.7062 48.2503 22.7408C48.2503 21.7753 47.4648 20.9927 46.4958 20.9927C45.5268 20.9927 44.7412 21.7753 44.7412 22.7408C44.7412 23.7062 45.5268 24.4889 46.4958 24.4889Z" fill="#F2F2F2"/>
<path d="M125.233 24.4889C126.202 24.4889 126.988 23.7062 126.988 22.7408C126.988 21.7753 126.202 20.9927 125.233 20.9927C124.264 20.9927 123.479 21.7753 123.479 22.7408C123.479 23.7062 124.264 24.4889 125.233 24.4889Z" fill="#F2F2F2"/>
</g>
<defs>
<clipPath id="clip0">
<rect width="168" height="175" fill="white"/>
</clipPath>
</defs>
</svg>
