<svg width="198" height="195" viewBox="0 0 198 195" fill="none" xmlns="http://www.w3.org/2000/svg">
<path d="M113.556 108.346H93.4678V197H113.556V108.346Z" fill="url(#paint0_linear)"/>
<path d="M112.234 108.346H95.3174V195.414H112.234V108.346Z" fill="#ECEFF1"/>
<path d="M160.291 39.2747H69.8194C66.7096 39.3541 63.6448 40.0379 60.7955 41.288C51.5988 45.3687 46.246 51.7735 44.7344 65.9775V98.7933L20.7614 98.5392C15.9404 98.5392 14.1777 106.128 14.1777 111.257H176.114V56.1082C176.114 46.8118 169.039 39.2747 160.291 39.2747Z" fill="url(#paint1_linear)"/>
<path d="M73.1123 42.7148H162.752C165.665 42.7148 168.458 43.8731 170.517 45.9348C172.576 47.9965 173.733 50.7927 173.733 53.7084V108.346H73.1123V42.7148Z" fill="#6C63FF"/>
<path d="M70.9923 42.7148C77.4419 42.7148 83.6274 45.2799 88.188 49.8457C92.7486 54.4115 95.3107 60.6041 95.3107 67.0612V96.4313C95.3107 99.5914 94.0568 102.622 91.8249 104.857C89.5929 107.091 86.5657 108.346 83.4093 108.346H58.5753C55.4188 108.346 52.3916 107.091 50.1597 104.857C47.9277 102.622 46.6738 99.5914 46.6738 96.4313V67.0612C46.6738 60.6041 49.2359 54.4115 53.7965 49.8457C58.3571 45.2799 64.5426 42.7148 70.9923 42.7148Z" fill="#6C63FF"/>
<path opacity="0.2" d="M70.9923 42.7148C77.4419 42.7148 83.6274 45.2799 88.188 49.8457C92.7486 54.4115 95.3107 60.6041 95.3107 67.0612V96.4313C95.3107 99.5914 94.0568 102.622 91.8249 104.857C89.5929 107.091 86.5657 108.346 83.4093 108.346H58.5753C55.4188 108.346 52.3916 107.091 50.1597 104.857C47.9277 102.622 46.6738 99.5914 46.6738 96.4313V67.0612C46.6738 60.6041 49.2359 54.4115 53.7965 49.8457C58.3571 45.2799 64.5426 42.7148 70.9923 42.7148Z" fill="black"/>
<path d="M135.761 33.9832H123.207H115.673V48.9304V67.3259H124.791V48.9304H135.761V33.9832Z" fill="url(#paint2_linear)"/>
<path d="M134.174 33.9832H123.6H117.257V47.744V64.6802H123.6V47.744H134.174V33.9832Z" fill="#FFCC80"/>
<path d="M46.8711 55.2442L44.3701 75.8147L77.8031 79.8889L80.3042 59.3184L46.8711 55.2442Z" fill="url(#paint3_linear)"/>
<path d="M47.2198 55.8055L44.8857 75.0024L77.1853 78.9385L79.5193 59.7415L47.2198 55.8055Z" fill="#FAF8E4"/>
<g opacity="0.6">
<path opacity="0.6" d="M48.0653 60.4884L52.1758 60.9893L52.546 57.9445L48.4355 57.4435L48.0653 60.4884Z" fill="#6C63FF"/>
<path opacity="0.6" d="M50.7171 66.8214L66.4971 68.7444L66.6171 67.7572L50.8371 65.8342L50.7171 66.8214Z" fill="#6C63FF"/>
<path opacity="0.6" d="M54.7322 69.4826L66.2383 70.8848L66.3182 70.2275L54.8121 68.8254L54.7322 69.4826Z" fill="#6C63FF"/>
</g>
<path d="M60.4942 59.7691L57.9932 80.3396L91.4262 84.4138L93.9272 63.8433L60.4942 59.7691Z" fill="url(#paint4_linear)"/>
<path d="M60.8428 60.333L58.5088 79.53L90.8084 83.4661L93.1424 64.2691L60.8428 60.333Z" fill="#FAF8E4"/>
<g opacity="0.6">
<path opacity="0.6" d="M61.6913 65.0164L65.8018 65.5173L66.172 62.4725L62.0615 61.9716L61.6913 65.0164Z" fill="#6C63FF"/>
<path opacity="0.6" d="M64.343 71.3495L80.123 73.2725L80.2431 72.2852L64.4631 70.3623L64.343 71.3495Z" fill="#6C63FF"/>
<path opacity="0.6" d="M68.3523 74.0102L79.8584 75.4124L79.9383 74.7551L68.4322 73.353L68.3523 74.0102Z" fill="#6C63FF"/>
</g>
<path d="M31.5503 61.703L28.1602 89.5864L73.4771 95.1088L76.8672 67.2254L31.5503 61.703Z" fill="url(#paint5_linear)"/>
<path d="M32.0235 62.4593L28.8594 88.4836L72.6409 93.8189L75.805 67.7946L32.0235 62.4593Z" fill="white"/>
<g opacity="0.6">
<path opacity="0.6" d="M33.1723 68.8092L38.7432 69.488L39.2448 65.3621L33.674 64.6833L33.1723 68.8092Z" fill="#6C63FF"/>
<path opacity="0.6" d="M36.7604 77.3964L58.1514 80.0032L58.3141 78.6645L36.9231 76.0578L36.7604 77.3964Z" fill="#6C63FF"/>
<path opacity="0.6" d="M42.203 81.0016L57.8008 82.9023L57.9094 82.009L42.3116 80.1082L42.203 81.0016Z" fill="#6C63FF"/>
</g>
<path d="M50.0161 67.8364L46.626 95.7197L91.9429 101.242L95.333 73.3587L50.0161 67.8364Z" fill="url(#paint6_linear)"/>
<path d="M50.4864 68.5977L47.3223 94.6221L91.1038 99.9573L94.2679 73.933L50.4864 68.5977Z" fill="white"/>
<g opacity="0.6">
<path opacity="0.6" d="M51.6391 74.9466L57.21 75.6255L57.7116 71.4996L52.1408 70.8207L51.6391 74.9466Z" fill="#6C63FF"/>
<path opacity="0.6" d="M55.2271 83.5339L76.6182 86.1406L76.7809 84.802L55.3899 82.1953L55.2271 83.5339Z" fill="#6C63FF"/>
<path opacity="0.6" d="M60.6698 87.139L76.2676 89.0398L76.3762 88.1465L60.7784 86.2457L60.6698 87.139Z" fill="#6C63FF"/>
</g>
<path opacity="0.2" d="M70.7342 42.9797C67.5529 42.9772 64.4023 43.6016 61.4619 44.8174C62.6072 44.6529 63.7627 44.5698 64.9198 44.5688C68.1133 44.5688 71.2756 45.1985 74.226 46.422C77.1765 47.6455 79.8573 49.4389 82.1155 51.6997C84.3737 53.9604 86.165 56.6443 87.3871 59.5982C88.6092 62.552 89.2382 65.7179 89.2382 68.9151V107.56H95.0526V67.3261C95.0526 60.869 92.4905 54.6764 87.9299 50.1106C83.3693 45.5448 77.1838 42.9797 70.7342 42.9797Z" fill="black"/>
<path d="M25.533 99.877H95.3166V108.346H17.0732C17.0732 106.1 17.9645 103.946 19.551 102.358C21.1376 100.769 23.2893 99.877 25.533 99.877Z" fill="#6C63FF"/>
<path opacity="0.2" d="M25.533 99.877H95.3166V108.346H17.0732C17.0732 106.1 17.9645 103.946 19.551 102.358C21.1376 100.769 23.2893 99.877 25.533 99.877Z" fill="white"/>
<path d="M177.446 19.0738L176.645 19.4657L176.736 19.3008L176.666 19.3225L176.766 19.2495L187.569 0L193.092 4.71576L197.832 9.10723L196.471 9.77203L197.999 12.4718L177.446 19.0738Z" fill="url(#paint7_linear)"/>
<path d="M192.547 5.21826L196.877 9.2395L177.247 19.0088L187.694 5.60471L192.547 5.21826Z" fill="#6C63FF"/>
<path opacity="0.2" d="M192.547 5.21826L196.877 9.2395L177.247 19.0088L187.694 5.60471L192.547 5.21826Z" fill="black"/>
<path d="M187.494 0.905273L177.247 19.0089L192.547 5.21837L187.494 0.905273Z" fill="#6C63FF"/>
<path d="M197.003 12.3502L177.269 18.8766L193.764 6.5481L197.003 12.3502Z" fill="#6C63FF"/>
<path d="M32.843 23.503L34.1333 23.703L33.9335 23.5138H34.0442L33.8714 23.4544L10.4249 1.19434L4.73466 10.1854L0 18.3873L2.19187 18.7278L1.22011 23.1706L32.843 23.503Z" fill="url(#paint8_linear)"/>
<path d="M5.71694 10.6531L1.39258 18.1578L33.0937 23.3248L12.6759 9.09106L5.71694 10.6531Z" fill="#6C63FF"/>
<path opacity="0.2" d="M5.71694 10.6531L1.39258 18.1578L33.0937 23.3248L12.6759 9.09106L5.71694 10.6531Z" fill="black"/>
<path d="M10.9248 2.42944L33.0946 23.3247L5.71777 10.653L10.9248 2.42944Z" fill="#6C63FF"/>
<path d="M2.56152 22.5681L33.0075 23.1518L4.58604 13.0447L2.56152 22.5681Z" fill="#6C63FF"/>
<defs>
<linearGradient id="paint0_linear" x1="103.512" y1="197" x2="103.512" y2="108.346" gradientUnits="userSpaceOnUse">
<stop stop-color="#808080" stop-opacity="0.25"/>
<stop offset="0.54" stop-color="#808080" stop-opacity="0.12"/>
<stop offset="1" stop-color="#808080" stop-opacity="0.1"/>
</linearGradient>
<linearGradient id="paint1_linear" x1="38597.2" y1="26083.9" x2="135751" y2="26083.9" gradientUnits="userSpaceOnUse">
<stop stop-color="#808080" stop-opacity="0.25"/>
<stop offset="0.54" stop-color="#808080" stop-opacity="0.12"/>
<stop offset="1" stop-color="#808080" stop-opacity="0.1"/>
</linearGradient>
<linearGradient id="paint2_linear" x1="9471.54" y1="8340.66" x2="9471.54" y2="4226.83" gradientUnits="userSpaceOnUse">
<stop stop-color="#808080" stop-opacity="0.25"/>
<stop offset="0.54" stop-color="#808080" stop-opacity="0.12"/>
<stop offset="1" stop-color="#808080" stop-opacity="0.1"/>
</linearGradient>
<linearGradient id="paint3_linear" x1="-6953.33" y1="12182.8" x2="-6640.57" y2="9616.31" gradientUnits="userSpaceOnUse">
<stop stop-color="#808080" stop-opacity="0.25"/>
<stop offset="0.54" stop-color="#808080" stop-opacity="0.12"/>
<stop offset="1" stop-color="#808080" stop-opacity="0.1"/>
</linearGradient>
<linearGradient id="paint4_linear" x1="-5939.34" y1="12668.6" x2="-5626.58" y2="10102.1" gradientUnits="userSpaceOnUse">
<stop stop-color="#808080" stop-opacity="0.25"/>
<stop offset="0.54" stop-color="#808080" stop-opacity="0.12"/>
<stop offset="1" stop-color="#808080" stop-opacity="0.1"/>
</linearGradient>
<linearGradient id="paint5_linear" x1="-10614.5" y1="19021.9" x2="-10039.8" y2="14306.5" gradientUnits="userSpaceOnUse">
<stop stop-color="#808080" stop-opacity="0.25"/>
<stop offset="0.54" stop-color="#808080" stop-opacity="0.12"/>
<stop offset="1" stop-color="#808080" stop-opacity="0.1"/>
</linearGradient>
<linearGradient id="paint6_linear" x1="-8744.55" y1="19913" x2="-8169.92" y2="15197.5" gradientUnits="userSpaceOnUse">
<stop stop-color="#808080" stop-opacity="0.25"/>
<stop offset="0.54" stop-color="#808080" stop-opacity="0.12"/>
<stop offset="1" stop-color="#808080" stop-opacity="0.1"/>
</linearGradient>
<linearGradient id="paint7_linear" x1="-3094.57" y1="14864.3" x2="-3972.44" y2="14114.4" gradientUnits="userSpaceOnUse">
<stop stop-color="#808080" stop-opacity="0.25"/>
<stop offset="0.54" stop-color="#808080" stop-opacity="0.12"/>
<stop offset="1" stop-color="#808080" stop-opacity="0.1"/>
</linearGradient>
<linearGradient id="paint8_linear" x1="1326.92" y1="17144.6" x2="2375.08" y2="15492.3" gradientUnits="userSpaceOnUse">
<stop stop-color="#808080" stop-opacity="0.25"/>
<stop offset="0.54" stop-color="#808080" stop-opacity="0.12"/>
<stop offset="1" stop-color="#808080" stop-opacity="0.1"/>
</linearGradient>
</defs>
</svg>
