<svg width="176" height="161" viewBox="0 0 176 161" fill="none" xmlns="http://www.w3.org/2000/svg">
<g clip-path="url(#clip0)">
<path d="M27.9053 91.8081L0 60.0111L83.4925 0L166.985 60.0111L138.633 91.8081H27.9053Z" fill="#6C63FF"/>
<path d="M27.9053 91.8081L0 60.0111L83.4925 0L166.985 60.0111L138.633 91.8081H27.9053Z" fill="#514ABF"/>
<path d="M162.967 64.0415H0V135.473H162.967V64.0415Z" fill="#6C63FF"/>
<path d="M162.967 64.0415H0V135.473H162.967V64.0415Z" fill="url(#paint0_linear)"/>
<path d="M166.985 161H0V60.0112L83.4925 110.618L166.985 60.0112V161Z" fill="#6C63FF"/>
<path d="M145.684 26.1583L127.974 12.5376L81.0621 73.9039L55.0073 53.8647L41.4277 71.6282L76.335 98.4359L85.2865 105.165L145.684 26.1583Z" fill="#3AD29F"/>
<path d="M0.703961 37.3687L0.0400391 37.6939L0.116388 37.5577L0.0581217 37.5765L0.139828 37.5159L9.07554 21.5654L13.6433 25.472L17.5619 29.1109L16.4367 29.662L17.7016 31.8999L0.703961 37.3687Z" fill="url(#paint1_linear)"/>
<path d="M13.1906 25.8892L16.7722 29.2202L0.538086 37.3157L9.17733 26.2091L13.1906 25.8892Z" fill="#6C63FF"/>
<path opacity="0.2" d="M13.1906 25.8892L16.7722 29.2202L0.538086 37.3157L9.17733 26.2091L13.1906 25.8892Z" fill="black"/>
<path d="M9.0128 22.3159L0.538086 37.3156L13.1906 25.889L9.0128 22.3159Z" fill="#6C63FF"/>
<path d="M16.8769 31.799L0.555664 37.2068L14.1991 26.9912L16.8769 31.799Z" fill="#6C63FF"/>
<path d="M153.358 8.67242L149.782 14.8905L176 19.1726L159.114 7.37793L153.358 8.67242Z" fill="#6C63FF"/>
<path opacity="0.2" d="M153.358 8.67242L149.782 14.8905L176 19.1726L159.114 7.37793L153.358 8.67242Z" fill="black"/>
<path d="M157.664 1.85693L176 19.1726L153.358 8.67245L157.664 1.85693Z" fill="#6C63FF"/>
<path d="M150.75 18.5455L175.929 19.028L152.423 10.6533L150.75 18.5455Z" fill="#6C63FF"/>
</g>
<defs>
<linearGradient id="paint0_linear" x1="81.4834" y1="135.473" x2="81.4834" y2="64.0415" gradientUnits="userSpaceOnUse">
<stop stop-opacity="0.12"/>
<stop offset="0.55135" stop-opacity="0.09"/>
<stop offset="1" stop-opacity="0.02"/>
</linearGradient>
<linearGradient id="paint1_linear" x1="13.2869" y1="37.0951" x2="3.17939" y2="28.5033" gradientUnits="userSpaceOnUse">
<stop stop-color="#808080" stop-opacity="0.25"/>
<stop offset="0.53514" stop-color="#808080" stop-opacity="0.12"/>
<stop offset="1" stop-color="#808080" stop-opacity="0.1"/>
</linearGradient>
<clipPath id="clip0">
<rect width="176" height="161" fill="white"/>
</clipPath>
</defs>
</svg>
